<svg width="98" height="98" viewBox="0 0 98 98" fill="none" xmlns="http://www.w3.org/2000/svg">
<circle cx="49" cy="49" r="48.5" fill="black" stroke="black"/>
<line x1="73.9805" y1="7.80476" x2="64.3328" y2="17.4524" stroke="white"/>
<line x1="28.6234" y1="55.1929" x2="17.4524" y2="66.3639" stroke="white"/>
<line x1="28.6886" y1="29.3315" x2="1.26895" y2="56.7512" stroke="white"/>
<line x1="50.1152" y1="35.1905" x2="69.4105" y2="54.4858" stroke="white"/>
<line x1="49.4165" y1="75.6469" x2="67.6962" y2="93.9267" stroke="white"/>
<line x1="49.7539" y1="-2.18557e-08" x2="49.7539" y2="76.1658" stroke="white"/>
<line x1="28.9352" y1="5.07771" x2="28.9352" y2="73.1192" stroke="white"/>
<line x1="17.7642" y1="66.0104" x2="17.7642" y2="86.3212" stroke="white"/>
<line x1="49.4165" y1="76.354" x2="31.7912" y2="93.9793" stroke="white"/>
<line x1="78.6969" y1="9.64767" x2="78.6969" y2="36.0518" stroke="white"/>
<line x1="64.4793" y1="17.2643" x2="64.4793" y2="26.4041" stroke="white"/>
<line x1="89.8679" y1="21.8342" x2="89.8679" y2="51.285" stroke="white"/>
<line x1="69.557" y1="54.8394" x2="69.557" y2="71.0881" stroke="white"/>
<circle cx="78.1969" cy="38.5907" r="2.03886" stroke="white"/>
<circle cx="64.487" cy="28.943" r="2.53886" fill="white"/>
<circle cx="89.5389" cy="52.3005" r="2.53886" fill="white"/>
<circle cx="28.943" cy="75.658" r="2.03886" fill="black" stroke="white"/>
<circle cx="69.5648" cy="73.6269" r="2.03886" stroke="white"/>
</svg>
