<svg width="633" height="633" viewBox="0 0 633 633" fill="none" xmlns="http://www.w3.org/2000/svg">
<path d="M620.93 316.5C620.93 323.24 620.706 329.978 620.259 336.703" stroke="black" stroke-width="24"/>
<path d="M620.453 316.261C620.453 322.996 620.229 329.728 619.782 336.448" stroke="black" stroke-width="24"/>
<path d="M619.772 343.033C619.184 349.747 618.374 356.44 617.343 363.1" stroke="black" stroke-width="24"/>
<path d="M619.317 342.753C618.73 349.462 617.92 356.15 616.889 362.805" stroke="black" stroke-width="24"/>
<path d="M616.305 369.364C615.135 376.001 613.745 382.598 612.136 389.143" stroke="black" stroke-width="24"/>
<path d="M615.876 369.046C614.707 375.678 613.318 382.269 611.711 388.809" stroke="black" stroke-width="24"/>
<path d="M610.557 395.292C608.813 401.802 606.853 408.253 604.68 414.633" stroke="black" stroke-width="24"/>
<path d="M610.158 394.938C608.415 401.443 606.456 407.888 604.285 414.263" stroke="black" stroke-width="24"/>
<path d="M602.571 420.621C600.266 426.955 597.751 433.21 595.031 439.376" stroke="black" stroke-width="24"/>
<path d="M602.204 420.234C599.9 426.562 597.388 432.812 594.669 438.974" stroke="black" stroke-width="24"/>
<path d="M592.408 445.158C589.559 451.266 586.509 457.278 583.261 463.184" stroke="black" stroke-width="24"/>
<path d="M592.076 444.74C589.23 450.843 586.181 456.85 582.937 462.752" stroke="black" stroke-width="24"/>
<path d="M580.144 468.715C576.774 474.552 573.212 480.275 569.462 485.876" stroke="black" stroke-width="24"/>
<path d="M579.85 468.269C576.483 474.102 572.923 479.821 569.176 485.416" stroke="black" stroke-width="24"/>
<path d="M395.292 610.557C388.782 612.301 382.216 613.829 375.604 615.138" stroke="black" stroke-width="24"/>
<path d="M395.399 610.034C388.894 611.777 382.333 613.303 375.727 614.611" stroke="black" stroke-width="24"/>
<path d="M369.364 616.305C362.726 617.476 356.052 618.425 349.351 619.153" stroke="black" stroke-width="24"/>
<path d="M369.516 615.794C362.884 616.963 356.215 617.912 349.519 618.639" stroke="black" stroke-width="24"/>
<path d="M343.033 619.772C336.319 620.359 329.587 620.724 322.849 620.864" stroke="black" stroke-width="24"/>
<path d="M343.229 619.275C336.52 619.862 329.794 620.226 323.061 620.367" stroke="black" stroke-width="24"/>
<path d="M316.5 620.93C309.76 620.93 303.022 620.706 296.297 620.259" stroke="black" stroke-width="24"/>
<path d="M316.739 620.453C310.004 620.453 303.272 620.229 296.552 619.782" stroke="black" stroke-width="24"/>
<path d="M289.967 619.772C283.253 619.184 276.56 618.374 269.9 617.343" stroke="black" stroke-width="24"/>
<path d="M290.247 619.317C283.538 618.73 276.85 617.92 270.195 616.889" stroke="black" stroke-width="24"/>
<path d="M263.636 616.305C256.999 615.135 250.402 613.745 243.857 612.136" stroke="black" stroke-width="24"/>
<path d="M263.954 615.876C257.322 614.707 250.731 613.318 244.191 611.711" stroke="black" stroke-width="24"/>
<path d="M237.708 610.557C231.197 608.813 224.747 606.853 218.367 604.68" stroke="black" stroke-width="24"/>
<path d="M238.062 610.158C231.557 608.415 225.111 606.456 218.736 604.285" stroke="black" stroke-width="24"/>
<path d="M30.4289 212.379C32.7341 206.045 35.2489 199.79 37.9693 193.624" stroke="black" stroke-width="24"/>
<path d="M30.7961 212.766C33.0994 206.438 35.6122 200.188 38.3305 194.026" stroke="black" stroke-width="24"/>
<path d="M187.842 40.5924C193.95 37.744 200.152 35.0993 206.436 32.6626" stroke="black" stroke-width="24"/>
<path d="M187.828 41.1261C193.931 38.28 200.127 35.6374 206.406 33.2026" stroke="black" stroke-width="24"/>
<path d="M101.235 531.765C96.4695 526.999 91.8634 522.076 87.4244 517.005" stroke="black" stroke-width="24"/>
<path d="M101.742 531.596C96.9798 526.834 92.3773 521.915 87.9418 516.848" stroke="black" stroke-width="24"/>
<path d="M83.2928 512.184C78.9605 507.021 74.8009 501.716 70.8209 496.277" stroke="black" stroke-width="24"/>
<path d="M83.8122 512.06C79.4834 506.901 75.327 501.6 71.3501 496.165" stroke="black" stroke-width="24"/>
<path d="M67.1252 491.114C63.2594 485.593 59.5781 479.945 56.0872 474.18" stroke="black" stroke-width="24"/>
<path d="M67.6534 491.036C63.7907 485.519 60.1122 479.876 56.624 474.115" stroke="black" stroke-width="24"/>
<path d="M52.8556 468.715C49.4858 462.878 46.3106 456.931 43.3355 450.884" stroke="black" stroke-width="24"/>
<path d="M53.3887 468.683C50.0214 462.851 46.8488 456.908 43.876 450.866" stroke="black" stroke-width="24"/>
<path d="M40.5924 445.158C37.744 439.05 35.0993 432.848 32.6626 426.564" stroke="black" stroke-width="24"/>
<path d="M41.1262 445.172C38.2801 439.069 35.6374 432.873 33.2026 426.594" stroke="black" stroke-width="24"/>
<path d="M30.429 420.621C28.1239 414.288 26.0297 407.88 24.1499 401.408" stroke="black" stroke-width="24"/>
<path d="M30.9595 420.682C28.6561 414.354 26.5636 407.951 24.6853 401.484" stroke="black" stroke-width="24"/>
<path d="M22.4428 395.292C20.6984 388.782 19.1707 382.216 17.8622 375.604" stroke="black" stroke-width="24"/>
<path d="M22.966 395.399C21.223 388.894 19.6965 382.333 18.389 375.727" stroke="black" stroke-width="24"/>
<path d="M16.6945 369.364C15.5242 362.726 14.5746 356.052 13.8473 349.351" stroke="black" stroke-width="24"/>
<path d="M17.2063 369.516C16.0369 362.884 15.088 356.215 14.3613 349.519" stroke="black" stroke-width="24"/>
<path d="M317.76 12.0723C324.5 12.1002 331.237 12.3519 337.96 12.827" stroke="black" stroke-width="24"/>
<path d="M317.52 12.5489C324.254 12.5768 330.986 12.8283 337.703 13.3031" stroke="black" stroke-width="24"/>
<path d="M344.288 13.3406C351 13.9558 357.689 14.7937 364.345 15.853" stroke="black" stroke-width="24"/>
<path d="M344.007 13.7944C350.713 14.4091 357.397 15.2464 364.048 16.3048" stroke="black" stroke-width="24"/>
<path d="M370.605 16.9161C377.237 18.1139 383.828 19.5316 390.366 21.167" stroke="black" stroke-width="24"/>
<path d="M370.285 17.3436C376.912 18.5405 383.498 19.9571 390.031 21.5912" stroke="black" stroke-width="24"/>
<path d="M396.509 22.7715C403.012 24.5429 409.454 26.5296 415.825 28.7286" stroke="black" stroke-width="24"/>
<path d="M396.153 23.1696C402.651 24.9396 409.088 26.9248 415.454 29.122" stroke="black" stroke-width="24"/>
<path d="M121.783 82.4848C126.964 78.174 132.287 74.0364 137.742 70.0789" stroke="black" stroke-width="24"/>
<path d="M121.905 83.0047C127.082 78.6973 132.4 74.5629 137.852 70.6085" stroke="black" stroke-width="24"/>
<path d="M142.92 66.4045C148.457 62.5616 154.12 58.9036 159.899 55.4366" stroke="black" stroke-width="24"/>
<path d="M142.996 66.933C148.529 63.0931 154.187 59.438 159.962 55.9738" stroke="black" stroke-width="24"/>
<path d="M165.378 52.2276C171.229 48.8819 177.189 45.7314 183.249 42.7814" stroke="black" stroke-width="24"/>
<path d="M165.408 52.7608C171.254 49.4177 177.209 46.2697 183.264 43.322" stroke="black" stroke-width="24"/>
<path d="M12.0699 316.5C12.0699 309.76 12.2937 303.022 12.741 296.297" stroke="black" stroke-width="24"/>
<path d="M12.5475 316.739C12.5475 310.004 12.7711 303.272 13.218 296.552" stroke="black" stroke-width="24"/>
<path d="M13.2283 289.967C13.8157 283.253 14.6259 276.56 15.6576 269.9" stroke="black" stroke-width="24"/>
<path d="M13.6832 290.247C14.2702 283.538 15.0798 276.85 16.1106 270.195" stroke="black" stroke-width="24"/>
<path d="M16.6947 263.636C17.8651 256.999 19.2555 250.402 20.8637 243.857" stroke="black" stroke-width="24"/>
<path d="M17.1236 263.954C18.293 257.322 19.6824 250.731 21.2894 244.191" stroke="black" stroke-width="24"/>
<path d="M22.4429 237.708C24.1873 231.197 26.1474 224.747 28.3199 218.367" stroke="black" stroke-width="24"/>
<path d="M22.8425 238.062C24.5855 231.557 26.5441 225.111 28.7149 218.736" stroke="black" stroke-width="24"/>
<path d="M592.408 187.842C595.256 193.951 597.901 200.152 600.338 206.436" stroke="black" stroke-width="24"/>
<path d="M591.874 187.828C594.72 193.931 597.363 200.128 599.798 206.407" stroke="black" stroke-width="24"/>
<path d="M531.765 101.236C536.531 106.001 541.137 110.924 545.576 115.996" stroke="black" stroke-width="24"/>
<path d="M531.258 101.404C536.02 106.166 540.623 111.085 545.058 116.153" stroke="black" stroke-width="24"/>
<path d="M549.707 120.816C554.039 125.979 558.199 131.285 562.179 136.724" stroke="black" stroke-width="24"/>
<path d="M549.188 120.94C553.517 126.099 557.673 131.4 561.65 136.835" stroke="black" stroke-width="24"/>
<path d="M565.875 141.886C569.741 147.407 573.422 153.055 576.913 158.82" stroke="black" stroke-width="24"/>
<path d="M565.347 141.965C569.209 147.481 572.888 153.125 576.376 158.885" stroke="black" stroke-width="24"/>
<path d="M580.145 164.285C583.515 170.122 586.69 176.069 589.665 182.117" stroke="black" stroke-width="24"/>
<path d="M579.612 164.317C582.979 170.149 586.151 176.092 589.124 182.135" stroke="black" stroke-width="24"/>
</svg>
