<svg width="432" height="432" viewBox="0 0 432 432" fill="none" xmlns="http://www.w3.org/2000/svg">
<path d="M275.616 80.5381C299.455 91.0294 320.103 107.626 335.474 128.651C350.846 149.676 360.397 174.385 363.163 200.283" stroke="black" stroke-width="6"/>
<path d="M275.616 80.5381C299.455 91.0294 320.103 107.626 335.474 128.651C350.846 149.676 360.397 174.385 363.163 200.283" stroke="black" stroke-width="6"/>
<path d="M275.616 80.5381C299.455 91.0294 320.103 107.626 335.474 128.651C350.846 149.676 360.397 174.385 363.163 200.283" stroke="black" stroke-width="6"/>
<path d="M119.858 328.52C103.543 314.58 90.4551 297.259 81.5006 277.757C72.5461 258.255 67.9396 237.039 68.0005 215.58" stroke="black" stroke-width="6"/>
<path d="M119.858 328.52C103.543 314.58 90.4551 297.259 81.5006 277.757C72.5461 258.255 67.9396 237.039 68.0005 215.58" stroke="black" stroke-width="6"/>
<path d="M119.858 328.52C103.543 314.58 90.4551 297.259 81.5006 277.757C72.5461 258.255 67.9396 237.039 68.0005 215.58" stroke="black" stroke-width="6"/>
<path d="M157.544 80.0336C184.642 68.3835 214.602 65.096 243.582 70.5929" stroke="black" stroke-width="6"/>
<path d="M157.544 80.0336C184.642 68.3835 214.602 65.096 243.582 70.5929" stroke="black" stroke-width="6"/>
<path d="M157.544 80.0336C184.642 68.3835 214.602 65.096 243.582 70.5929" stroke="black" stroke-width="6"/>
<path d="M76.6171 166.237C86.5347 138.458 104.526 114.277 128.284 96.7952" stroke="black" stroke-width="6"/>
<path d="M76.6171 166.237C86.5347 138.458 104.526 114.277 128.284 96.7952" stroke="black" stroke-width="6"/>
<path d="M76.6171 166.237C86.5347 138.458 104.526 114.277 128.284 96.7952" stroke="black" stroke-width="6"/>
<path d="M360.95 245.891C354.993 274.779 340.54 301.228 319.445 321.845" stroke="black" stroke-width="6"/>
<path d="M360.95 245.891C354.993 274.779 340.54 301.228 319.445 321.845" stroke="black" stroke-width="6"/>
<path d="M360.95 245.891C354.993 274.779 340.54 301.228 319.445 321.845" stroke="black" stroke-width="6"/>
<path d="M295.756 340.671C275 353.95 251.258 361.836 226.682 363.614C202.106 365.392 177.476 361.007 155.024 350.855" stroke="black" stroke-width="6"/>
<path d="M295.756 340.671C275 353.95 251.258 361.836 226.682 363.614C202.106 365.392 177.476 361.007 155.024 350.855" stroke="black" stroke-width="6"/>
<path d="M295.756 340.671C275 353.95 251.258 361.836 226.682 363.614C202.106 365.392 177.476 361.007 155.024 350.855" stroke="black" stroke-width="6"/>
</svg>
