<svg width="255" height="255" viewBox="0 0 255 255" fill="none" xmlns="http://www.w3.org/2000/svg">
<path d="M98.4668 47.594C114.086 41.8988 130.975 40.7332 147.115 44.2276" stroke="black" stroke-width="8"/>
<path d="M207.829 100.203C213.128 115.96 213.867 132.874 209.966 148.92" stroke="black" stroke-width="8"/>
<path d="M180.257 193.542C171.424 200.568 161.33 205.833 150.547 209.04" stroke="black" stroke-width="8"/>
<path d="M104.91 208.899C94.0307 205.89 83.8353 200.826 74.8969 193.994" stroke="black" stroke-width="8"/>
<path d="M44.5125 145.858C41.6026 132.642 41.7706 118.944 44.9988 105.865" stroke="black" stroke-width="8"/>
<path d="M211 126.361C211 172.747 173.174 210.361 126.5 210.361C79.8264 210.361 42 172.747 42 126.361C42 79.9741 79.8264 42.3605 126.5 42.3605C173.174 42.3605 211 79.9741 211 126.361Z" stroke="black" stroke-width="2"/>
</svg>
