<svg width="638" height="638" viewBox="0 0 638 638" fill="none" xmlns="http://www.w3.org/2000/svg">
<path d="M510.95 224.572C528.796 260.85 535.997 301.442 531.717 341.645" stroke="black" stroke-opacity="0.5" stroke-width="16"/>
<path d="M373.339 112.098C406.763 120.876 437.563 137.621 463.104 160.901" stroke="black" stroke-opacity="0.5" stroke-width="16"/>
<path d="M280.414 529.41C246.423 523.177 214.449 508.801 187.226 487.514" stroke="black" stroke-opacity="0.5" stroke-width="16"/>
<path d="M136.679 430.895C110.018 387.453 99.7445 335.919 107.709 285.574" stroke="black" stroke-opacity="0.5" stroke-width="16"/>
<path d="M231.11 123.971C235.848 121.835 240.662 119.874 245.543 118.089" stroke="black" stroke-opacity="0.5" stroke-width="16"/>
<path d="M206.865 136.828C211.29 134.104 215.813 131.542 220.426 129.147" stroke="black" stroke-opacity="0.5" stroke-width="16"/>
<path d="M184.593 152.58C188.635 149.315 192.796 146.198 197.066 143.236" stroke="black" stroke-opacity="0.5" stroke-width="16"/>
<path d="M164.005 171.563C167.587 167.797 171.305 164.164 175.151 160.669" stroke="black" stroke-opacity="0.5" stroke-width="16"/>
<path d="M146.213 192.881C149.277 188.684 152.493 184.599 155.854 180.636" stroke="black" stroke-opacity="0.5" stroke-width="16"/>
<path d="M415.25 510.042C410.609 512.38 405.885 514.549 401.086 516.543" stroke="black" stroke-opacity="0.5" stroke-width="16"/>
<path d="M438.917 496.147C434.613 499.061 430.205 501.816 425.701 504.408" stroke="black" stroke-opacity="0.5" stroke-width="16"/>
<path d="M460.486 479.446C456.588 482.883 452.567 486.177 448.429 489.321" stroke="black" stroke-opacity="0.5" stroke-width="16"/>
<path d="M480.232 459.59C476.817 463.506 473.26 467.298 469.568 470.955" stroke="black" stroke-opacity="0.5" stroke-width="16"/>
<path d="M497.085 437.521C494.205 441.847 491.169 446.067 487.983 450.172" stroke="black" stroke-opacity="0.5" stroke-width="16"/>
</svg>
