<svg width="298" height="785" viewBox="0 0 298 785" fill="none" xmlns="http://www.w3.org/2000/svg">
<path d="M153.839 0C154.551 76.6307 154.299 153.282 156.183 229.871C159.762 375.22 164.554 520.548 168.907 665.877C170.058 703.554 171.921 741.126 173.406 778.761C173.338 780.836 173.093 782.902 172.674 784.936H130.295C133.163 717.536 136.741 650.157 138.667 582.736C141.778 477.394 144.282 372.039 146.18 266.669C147.624 180.368 147.498 94.0458 148.126 7.7447C148.315 5.14633 148.651 2.56067 149.13 0L153.839 0Z" fill="black" fill-opacity="0.1"/>
<path d="M0 626.379C15.5702 610.136 26.3479 590.795 36.0793 570.763C57.9068 525.97 70.6726 478.35 78.7716 429.391C90.7422 356.821 92.9815 283.77 88.6913 210.426C88.5658 208.123 88.6913 205.821 88.6913 203.623C97.4809 201.174 98.1088 201.53 98.339 209.902C100.16 277.114 101.018 344.325 95.6184 411.411C90.3655 476.78 80.969 541.459 54.9141 602.286C46.0408 622.988 33.4842 642.245 22.56 662.13C21.005 664.406 19.2544 666.542 17.3281 668.514C11.3219 654.469 5.65046 641.198 0 627.948V626.379Z" fill="black" fill-opacity="0.1"/>
<path d="M16.8467 783.282C11.6985 769.97 6.82236 757.85 2.49034 745.605C2.12779 744.324 2.05805 742.978 2.28628 741.666C2.5145 740.355 3.03485 739.111 3.80878 738.028C48.8241 689.215 72.7235 630.042 88.3355 566.849C107.17 490.763 113.449 413.148 114.579 335.115C115.521 265.832 114.579 196.527 114.579 127.222C114.378 125.134 114.378 123.031 114.579 120.943C115.203 118.934 116.008 116.986 116.985 115.124C118.178 117.008 120.334 118.892 120.397 120.817C121.066 140.158 121.443 159.499 121.799 178.861C122.866 237.469 124.75 295.973 124.708 354.54C124.708 425.979 120.878 497.252 108.133 567.749C96.1206 634.102 77.0764 697.923 39.0718 754.731C33.2958 763.418 26.6618 771.477 20.3625 779.849C19.2749 781.077 18.0999 782.224 16.8467 783.282Z" fill="black" fill-opacity="0.1"/>
<path d="M280.87 783.324C270.301 767.625 258.896 752.408 249.311 736.123C217.647 682.182 201.031 622.904 190.546 561.742C176.127 477.639 173.699 392.74 175.311 307.695C176.692 237.909 179.245 168.123 181.254 98.3786C181.443 92.0991 181.254 85.8196 181.945 79.5401C182.555 76.793 183.512 74.1344 184.791 71.628C185.796 74.2026 187.679 76.7772 187.679 79.3308C187.553 100.765 186.926 122.22 186.779 143.654C186.34 211.116 185.21 278.579 185.9 346.021C186.322 402.271 191.22 458.398 200.55 513.871C210.72 573.463 225.935 631.528 257.054 684.003C267.937 702.318 281.833 718.875 294.829 735.872C297.926 739.912 299.014 742.884 296.921 747.719C292.129 759.169 287.943 770.89 283.507 782.508L280.87 783.324Z" fill="black" fill-opacity="0.1"/>
<path d="M204.379 159.311H212.75C213.032 161.161 213.192 163.028 213.232 164.899C209.676 226.027 210.739 287.335 216.413 348.302C223.989 425.624 237.571 501.689 268.732 573.443C276.182 590.586 286.981 606.263 295.938 622.716C297.172 624.955 298.261 628.304 297.486 630.46C293.112 643.019 288.153 655.306 282.523 669.958C276.098 659.995 270.301 651.852 265.383 643.187C243.179 604.066 230.727 561.553 221.959 517.723C207.016 442.536 202.58 366.303 202.307 289.882C202.14 249.337 203.145 208.814 203.647 168.269C203.689 165.36 204.086 162.639 204.379 159.311Z" fill="black" fill-opacity="0.1"/>
</svg>
