<svg xmlns="http://www.w3.org/2000/svg" width="24" height="24" viewBox="0 0 24 24" fill="none">
<path fill-rule="evenodd" clip-rule="evenodd" d="M7.66982 1.99902H16.3398C19.7298 1.99902 21.9998 4.37902 21.9998 7.91902V16.09C21.9998 19.62 19.7298 21.999 16.3398 21.999H7.66982C4.27982 21.999 1.99982 19.62 1.99982 16.09V7.91902C1.99982 4.37902 4.27982 1.99902 7.66982 1.99902ZM15.0098 14.999C15.3498 14.66 15.3498 14.11 15.0098 13.77L13.2298 11.99L15.0098 10.209C15.3498 9.87002 15.3498 9.31002 15.0098 8.97002C14.6698 8.62902 14.1198 8.62902 13.7698 8.97002L11.9998 10.749L10.2198 8.97002C9.86982 8.62902 9.31982 8.62902 8.97982 8.97002C8.63982 9.31002 8.63982 9.87002 8.97982 10.209L10.7598 11.99L8.97982 13.76C8.63982 14.11 8.63982 14.66 8.97982 14.999C9.14982 15.169 9.37982 15.26 9.59982 15.26C9.82982 15.26 10.0498 15.169 10.2198 14.999L11.9998 13.23L13.7798 14.999C13.9498 15.18 14.1698 15.26 14.3898 15.26C14.6198 15.26 14.8398 15.169 15.0098 14.999Z" fill="#FF0000"/>
</svg>