<svg width="725" height="725" viewBox="0 0 725 725" fill="none" xmlns="http://www.w3.org/2000/svg">
<path d="M519.566 173.038C565.292 210.945 595.766 264.111 605.365 322.726" stroke="black" stroke-width="16"/>
<path d="M519.566 173.038C565.292 210.945 595.766 264.111 605.365 322.726" stroke="black" stroke-width="16"/>
<path d="M519.566 173.038C565.292 210.945 595.766 264.111 605.365 322.726" stroke="black" stroke-width="16"/>
<path d="M334.522 117.995C383.251 112.419 432.534 121.53 476.049 144.16" stroke="black" stroke-width="16"/>
<path d="M334.522 117.995C383.251 112.419 432.534 121.53 476.049 144.16" stroke="black" stroke-width="16"/>
<path d="M334.522 117.995C383.251 112.419 432.534 121.53 476.049 144.16" stroke="black" stroke-width="16"/>
<path d="M159.569 223.271C187.317 182.828 226.516 151.598 272.137 133.589" stroke="black" stroke-width="16"/>
<path d="M159.569 223.271C187.317 182.828 226.516 151.598 272.137 133.589" stroke="black" stroke-width="16"/>
<path d="M159.569 223.271C187.317 182.828 226.516 151.598 272.137 133.589" stroke="black" stroke-width="16"/>
<path d="M151.81 489.682C132.05 456.947 120.189 420.058 117.168 381.942C114.148 343.825 120.05 305.529 134.408 270.09" stroke="black" stroke-width="16"/>
<path d="M151.81 489.682C132.05 456.947 120.189 420.058 117.168 381.942C114.148 343.825 120.05 305.529 134.408 270.09" stroke="black" stroke-width="16"/>
<path d="M151.81 489.682C132.05 456.947 120.189 420.058 117.168 381.942C114.148 343.825 120.05 305.529 134.408 270.09" stroke="black" stroke-width="16"/>
<path d="M603.529 412.204C593.623 460.24 569.59 504.221 534.513 538.503" stroke="black" stroke-width="16"/>
<path d="M603.529 412.204C593.623 460.24 569.59 504.221 534.513 538.503" stroke="black" stroke-width="16"/>
<path d="M603.529 412.204C593.623 460.24 569.59 504.221 534.513 538.503" stroke="black" stroke-width="16"/>
<path d="M496.122 569.166C457.295 594.27 412.182 607.928 365.951 608.576" stroke="black" stroke-width="16"/>
<path d="M496.122 569.166C457.295 594.27 412.182 607.928 365.951 608.576" stroke="black" stroke-width="16"/>
<path d="M496.122 569.166C457.295 594.27 412.182 607.928 365.951 608.576" stroke="black" stroke-width="16"/>
<path d="M297.403 599.835C252.815 587.605 212.574 563.062 181.29 529.018" stroke="black" stroke-width="16"/>
<path d="M297.403 599.835C252.815 587.605 212.574 563.062 181.29 529.018" stroke="black" stroke-width="16"/>
<path d="M297.403 599.835C252.815 587.605 212.574 563.062 181.29 529.018" stroke="black" stroke-width="16"/>
</svg>
