<svg width="799" height="799" viewBox="0 0 799 799" fill="none" xmlns="http://www.w3.org/2000/svg">
<path d="M681.212 399.045C681.212 375.564 678.281 352.176 672.487 329.421L530.571 365.556C533.357 376.501 534.767 387.751 534.767 399.045H681.212Z" fill="black" fill-opacity="0.5"/>
<path d="M671.597 326.014C665.52 303.334 656.636 281.501 645.15 261.021L517.421 332.655C522.946 342.506 527.219 353.008 530.142 363.917L671.597 326.014Z" fill="black" fill-opacity="0.5"/>
<path d="M643.409 257.961C631.668 237.626 617.436 218.837 601.041 202.028L496.205 304.279C504.091 312.365 510.937 321.402 516.584 331.183L643.409 257.961Z" fill="black" fill-opacity="0.5"/>
<path d="M472.075 126.492C449.394 120.415 426.044 117.192 402.566 116.899L400.738 263.333C412.031 263.474 423.263 265.024 434.172 267.947L472.075 126.492Z" fill="black" fill-opacity="0.5"/>
<path d="M598.567 199.522C581.964 182.919 563.353 168.453 543.166 156.46L468.367 282.362C478.077 288.13 487.029 295.088 495.015 303.074L598.567 199.522Z" fill="black" fill-opacity="0.5"/>
<path d="M540.128 154.681C519.793 142.941 498.073 133.784 475.47 127.425L435.805 268.395C446.677 271.454 457.125 275.859 466.906 281.506L540.128 154.681Z" fill="black" fill-opacity="0.5"/>
<path d="M399.045 116.877C375.564 116.877 352.175 119.808 329.421 125.602L365.556 267.519C376.501 264.732 387.751 263.322 399.045 263.322L399.045 116.877Z" fill="black" fill-opacity="0.5"/>
<path d="M326.014 126.492C303.334 132.569 281.501 141.454 261.021 152.939L332.655 280.668C342.506 275.143 353.008 270.87 363.917 267.947L326.014 126.492Z" fill="black" fill-opacity="0.5"/>
<path d="M257.961 154.681C237.626 166.421 218.837 180.653 202.027 197.048L304.279 301.884C312.365 293.998 321.402 287.153 331.183 281.506L257.961 154.681Z" fill="black" fill-opacity="0.5"/>
<path d="M126.492 326.014C120.415 348.695 117.192 372.045 116.899 395.524L263.333 397.351C263.474 386.058 265.024 374.826 267.947 363.917L126.492 326.014Z" fill="black" fill-opacity="0.5"/>
<path d="M199.522 199.522C182.919 216.126 168.453 234.736 156.46 254.923L282.361 329.722C288.13 320.012 295.088 311.061 303.074 303.074L199.522 199.522Z" fill="black" fill-opacity="0.5"/>
<path d="M154.681 257.961C142.94 278.296 133.784 300.016 127.425 322.619L268.395 362.284C271.454 351.412 275.859 340.964 281.506 331.183L154.681 257.961Z" fill="black" fill-opacity="0.5"/>
<path d="M116.877 399.045C116.877 422.525 119.808 445.914 125.602 468.668L267.519 432.534C264.732 421.589 263.322 410.339 263.322 399.045L116.877 399.045Z" fill="black" fill-opacity="0.5"/>
<path d="M126.492 472.075C132.569 494.755 141.454 516.588 152.939 537.068L280.668 465.434C275.143 455.583 270.87 445.081 267.947 434.172L126.492 472.075Z" fill="black" fill-opacity="0.5"/>
<path d="M154.681 540.128C166.421 560.463 180.653 579.253 197.048 596.062L301.884 493.81C293.999 485.725 287.153 476.687 281.506 466.906L154.681 540.128Z" fill="black" fill-opacity="0.5"/>
<path d="M326.014 671.597C348.695 677.674 372.045 680.897 395.524 681.19L397.351 534.756C386.058 534.616 374.826 533.066 363.917 530.142L326.014 671.597Z" fill="black" fill-opacity="0.5"/>
<path d="M199.522 598.567C216.126 615.17 234.736 629.636 254.923 641.629L329.722 515.728C320.012 509.959 311.061 503.001 303.074 495.015L199.522 598.567Z" fill="black" fill-opacity="0.5"/>
<path d="M257.961 643.409C278.296 655.149 300.016 664.305 322.619 670.665L362.284 529.694C351.412 526.635 340.964 522.231 331.183 516.584L257.961 643.409Z" fill="black" fill-opacity="0.5"/>
<path d="M399.045 681.212C422.525 681.212 445.914 678.281 468.668 672.487L432.534 530.571C421.589 533.357 410.339 534.767 399.045 534.767L399.045 681.212Z" fill="black" fill-opacity="0.5"/>
<path d="M472.075 671.597C494.755 665.52 516.588 656.636 537.068 645.15L465.434 517.421C455.583 522.946 445.081 527.219 434.172 530.142L472.075 671.597Z" fill="black" fill-opacity="0.5"/>
<path d="M540.128 643.409C560.463 631.668 579.253 617.436 596.062 601.041L493.81 496.205C485.725 504.091 476.687 510.937 466.906 516.584L540.128 643.409Z" fill="black" fill-opacity="0.5"/>
<path d="M671.597 472.075C677.674 449.395 680.897 426.044 681.19 402.566L534.757 400.738C534.616 412.031 533.066 423.263 530.142 434.172L671.597 472.075Z" fill="black" fill-opacity="0.5"/>
<path d="M598.567 598.567C615.17 581.964 629.636 563.353 641.629 543.166L515.728 468.367C509.959 478.077 503.001 487.029 495.015 495.015L598.567 598.567Z" fill="black" fill-opacity="0.5"/>
<path d="M643.409 540.128C655.149 519.794 664.305 498.073 670.665 475.47L529.694 435.805C526.635 446.677 522.231 457.125 516.584 466.906L643.409 540.128Z" fill="black" fill-opacity="0.5"/>
</svg>
