<svg width="350" height="350" viewBox="0 0 350 350" fill="none" xmlns="http://www.w3.org/2000/svg">
<path d="M294.798 207.007C294.193 209.265 293.524 211.506 292.793 213.726L281.251 209.922C281.911 207.92 282.514 205.899 283.06 203.862L294.798 207.007Z" fill="black" fill-opacity="0.5"/>
<path d="M298.744 175C298.744 177.333 298.678 179.665 298.546 181.994L286.438 181.308C286.557 179.208 286.617 177.104 286.617 175L298.744 175Z" fill="black" fill-opacity="0.5"/>
<path d="M294.527 142.973C295.131 145.226 295.671 147.496 296.146 149.78L284.274 152.251C283.845 150.191 283.358 148.144 282.814 146.111L294.527 142.973Z" fill="black" fill-opacity="0.5"/>
<path d="M236.872 67.8349C238.892 69.0012 240.879 70.2244 242.83 71.5031L236.182 81.6458C234.423 80.4924 232.631 79.3891 230.808 78.3371L236.872 67.8349Z" fill="black" fill-opacity="0.5"/>
<path d="M282.165 113.128C283.331 115.148 284.44 117.201 285.491 119.284L274.663 124.744C273.715 122.865 272.715 121.014 271.663 119.192L282.165 113.128Z" fill="black" fill-opacity="0.5"/>
<path d="M262.5 87.5C264.149 89.1495 265.752 90.8452 267.305 92.5852L258.26 100.662C256.858 99.0924 255.413 97.5628 253.925 96.075L262.5 87.5Z" fill="black" fill-opacity="0.5"/>
<path d="M207.117 55.1391C209.374 55.7441 211.615 56.4128 213.835 57.1444L210.031 68.6858C208.029 68.0259 206.008 67.4227 203.971 66.877L207.117 55.1391Z" fill="black" fill-opacity="0.5"/>
<path d="M175 51.2564C177.333 51.2564 179.665 51.3224 181.994 51.4542L181.308 63.5617C179.208 63.4428 177.104 63.3833 175 63.3833L175 51.2564Z" fill="black" fill-opacity="0.5"/>
<path d="M142.973 55.4728C145.226 54.8691 147.496 54.3292 149.779 53.8538L152.251 65.7261C150.191 66.1549 148.144 66.6419 146.111 67.1865L142.973 55.4728Z" fill="black" fill-opacity="0.5"/>
<path d="M67.8348 113.128C69.0011 111.108 70.2243 109.121 71.503 107.17L81.6457 113.818C80.4923 115.577 79.389 117.37 78.3369 119.192L67.8348 113.128Z" fill="black" fill-opacity="0.5"/>
<path d="M113.128 67.8349C115.148 66.6685 117.201 65.5596 119.284 64.5093L124.744 75.3374C122.865 76.2847 121.014 77.285 119.192 78.3371L113.128 67.8349Z" fill="black" fill-opacity="0.5"/>
<path d="M87.5 87.5001C89.1494 85.8506 90.8452 84.2482 92.5852 82.6946L100.662 91.7405C99.0923 93.1419 97.5628 94.5873 96.075 96.0751L87.5 87.5001Z" fill="black" fill-opacity="0.5"/>
<path d="M55.2483 142.82C55.8533 140.562 56.522 138.322 57.2536 136.102L68.795 139.906C68.1351 141.908 67.5319 143.929 66.9862 145.965L55.2483 142.82Z" fill="black" fill-opacity="0.5"/>
<path d="M51.2563 175C51.2563 172.667 51.3223 170.335 51.4541 168.006L63.5616 168.692C63.4427 170.792 63.3832 172.896 63.3832 175L51.2563 175Z" fill="black" fill-opacity="0.5"/>
<path d="M55.4728 207.027C54.8691 204.774 54.3292 202.504 53.8537 200.221L65.7261 197.749C66.1549 199.809 66.6419 201.856 67.1865 203.889L55.4728 207.027Z" fill="black" fill-opacity="0.5"/>
<path d="M113.128 282.165C111.108 280.999 109.121 279.776 107.17 278.497L113.818 268.354C115.577 269.508 117.369 270.611 119.192 271.663L113.128 282.165Z" fill="black" fill-opacity="0.5"/>
<path d="M67.8349 236.872C66.6685 234.852 65.5596 232.799 64.5093 230.716L75.3374 225.256C76.2847 227.135 77.285 228.986 78.337 230.808L67.8349 236.872Z" fill="black" fill-opacity="0.5"/>
<path d="M87.5 262.5C85.8506 260.851 84.2481 259.155 82.6945 257.415L91.7404 249.338C93.1418 250.908 94.5872 252.437 96.075 253.925L87.5 262.5Z" fill="black" fill-opacity="0.5"/>
<path d="M142.93 294.689C140.672 294.084 138.431 293.415 136.211 292.683L140.015 281.142C142.017 281.802 144.038 282.405 146.075 282.951L142.93 294.689Z" fill="black" fill-opacity="0.5"/>
<path d="M175 298.744C172.667 298.744 170.335 298.678 168.006 298.546L168.692 286.438C170.792 286.557 172.896 286.617 175 286.617L175 298.744Z" fill="black" fill-opacity="0.5"/>
<path d="M207.027 294.527C204.774 295.131 202.504 295.671 200.221 296.146L197.749 284.274C199.809 283.845 201.856 283.358 203.889 282.814L207.027 294.527Z" fill="black" fill-opacity="0.5"/>
<path d="M282.165 236.872C280.999 238.892 279.776 240.879 278.497 242.83L268.354 236.183C269.508 234.423 270.611 232.631 271.663 230.808L282.165 236.872Z" fill="black" fill-opacity="0.5"/>
<path d="M236.872 282.165C234.852 283.332 232.799 284.441 230.716 285.491L225.256 274.663C227.135 273.715 228.986 272.715 230.808 271.663L236.872 282.165Z" fill="black" fill-opacity="0.5"/>
<path d="M262.5 262.5C260.851 264.149 259.155 265.752 257.415 267.305L249.338 258.26C250.908 256.858 252.437 255.413 253.925 253.925L262.5 262.5Z" fill="black" fill-opacity="0.5"/>
<path d="M298.43 186.873C298.205 189.2 297.914 191.52 297.557 193.83L285.547 191.976C285.869 189.892 286.132 187.8 286.335 185.701L298.43 186.873Z" fill="black" fill-opacity="0.5"/>
<path d="M297.059 154.653C297.443 156.954 297.761 159.265 298.014 161.584L285.959 162.899C285.731 160.807 285.443 158.722 285.098 156.647L297.059 154.653Z" fill="black" fill-opacity="0.5"/>
<path d="M287.634 123.755C288.6 125.878 289.506 128.028 290.35 130.203L279.046 134.593C278.284 132.632 277.467 130.692 276.596 128.777L287.634 123.755Z" fill="black" fill-opacity="0.5"/>
<path d="M218.409 59.1199C220.593 59.9382 222.754 60.8181 224.888 61.7586L219.999 72.8562C218.074 72.0079 216.125 71.2143 214.154 70.4762L218.409 59.1199Z" fill="black" fill-opacity="0.5"/>
<path d="M270.533 96.3492C272.016 98.15 273.447 99.9925 274.825 101.874L265.043 109.041C263.799 107.343 262.508 105.681 261.171 104.057L270.533 96.3492Z" fill="black" fill-opacity="0.5"/>
<path d="M246.921 74.3034C248.82 75.6592 250.679 77.0683 252.498 78.5292L244.903 87.9834C243.263 86.6656 241.585 85.3946 239.873 84.1716L246.921 74.3034Z" fill="black" fill-opacity="0.5"/>
<path d="M186.971 51.4896C189.297 51.7151 191.617 52.0064 193.927 52.363L192.073 64.3727C189.989 64.0511 187.897 63.7883 185.798 63.5849L186.971 51.4896Z" fill="black" fill-opacity="0.5"/>
<path d="M154.653 52.9407C156.954 52.5571 159.265 52.2387 161.584 51.9858L162.899 64.0412C160.807 64.2693 158.722 64.5565 156.647 64.9025L154.653 52.9407Z" fill="black" fill-opacity="0.5"/>
<path d="M123.755 62.366C125.878 61.4 128.028 60.4942 130.203 59.6498L134.593 70.9541C132.631 71.7158 130.692 72.5328 128.777 73.4041L123.755 62.366Z" fill="black" fill-opacity="0.5"/>
<path d="M59.1199 131.592C59.9381 129.407 60.818 127.246 61.7585 125.112L72.8561 130.001C72.0079 131.926 71.2142 133.875 70.4761 135.846L59.1199 131.592Z" fill="black" fill-opacity="0.5"/>
<path d="M96.3491 79.4671C98.15 77.9845 99.9925 76.553 101.874 75.1746L109.041 84.9575C107.343 86.2008 105.681 87.492 104.057 88.8293L96.3491 79.4671Z" fill="black" fill-opacity="0.5"/>
<path d="M74.3034 103.079C75.6591 101.18 77.0683 99.3209 78.5292 97.5024L87.9833 105.097C86.6656 106.737 85.3945 108.415 84.1716 110.127L74.3034 103.079Z" fill="black" fill-opacity="0.5"/>
<path d="M51.587 162.949C51.8125 160.622 52.1037 158.303 52.4603 155.993L64.4701 157.847C64.1484 159.93 63.8857 162.023 63.6823 164.121L51.587 162.949Z" fill="black" fill-opacity="0.5"/>
<path d="M52.9406 195.347C52.5571 193.046 52.2387 190.735 51.9858 188.416L64.0412 187.101C64.2693 189.193 64.5565 191.278 64.9025 193.353L52.9406 195.347Z" fill="black" fill-opacity="0.5"/>
<path d="M62.366 226.245C61.3999 224.122 60.4942 221.972 59.6497 219.797L70.954 215.407C71.7157 217.369 72.5327 219.308 73.4041 221.223L62.366 226.245Z" fill="black" fill-opacity="0.5"/>
<path d="M131.591 290.88C129.407 290.062 127.246 289.182 125.111 288.241L130.001 277.144C131.926 277.992 133.875 278.786 135.845 279.524L131.591 290.88Z" fill="black" fill-opacity="0.5"/>
<path d="M79.4671 253.651C77.9844 251.85 76.553 250.008 75.1745 248.126L84.9574 240.959C86.2008 242.657 87.492 244.319 88.8293 245.943L79.4671 253.651Z" fill="black" fill-opacity="0.5"/>
<path d="M103.079 275.697C101.18 274.341 99.3209 272.932 97.5023 271.471L105.097 262.017C106.737 263.334 108.415 264.606 110.127 265.828L103.079 275.697Z" fill="black" fill-opacity="0.5"/>
<path d="M163.046 298.333C160.72 298.107 158.4 297.816 156.09 297.459L157.944 285.45C160.028 285.771 162.12 286.034 164.219 286.238L163.046 298.333Z" fill="black" fill-opacity="0.5"/>
<path d="M195.347 297.059C193.046 297.443 190.735 297.761 188.416 298.014L187.101 285.959C189.193 285.731 191.278 285.444 193.353 285.098L195.347 297.059Z" fill="black" fill-opacity="0.5"/>
<path d="M226.245 287.634C224.122 288.6 221.972 289.506 219.797 290.35L215.407 279.046C217.369 278.284 219.308 277.467 221.223 276.596L226.245 287.634Z" fill="black" fill-opacity="0.5"/>
<path d="M290.88 218.409C290.062 220.593 289.182 222.754 288.241 224.889L277.144 220C277.992 218.074 278.786 216.125 279.524 214.155L290.88 218.409Z" fill="black" fill-opacity="0.5"/>
<path d="M253.651 270.533C251.85 272.016 250.007 273.447 248.126 274.826L240.959 265.043C242.657 263.799 244.319 262.508 245.943 261.171L253.651 270.533Z" fill="black" fill-opacity="0.5"/>
<path d="M275.697 246.921C274.341 248.82 272.932 250.679 271.471 252.498L262.017 244.903C263.334 243.263 264.605 241.585 265.828 239.873L275.697 246.921Z" fill="black" fill-opacity="0.5"/>
<path d="M296.906 197.694C296.476 199.992 295.982 202.277 295.423 204.547L283.623 201.643C284.127 199.595 284.573 197.534 284.96 195.462L296.906 197.694Z" fill="black" fill-opacity="0.5"/>
<path d="M298.377 165.478C298.556 167.804 298.67 170.134 298.718 172.466L286.593 172.715C286.55 170.611 286.448 168.509 286.286 166.411L298.377 165.478Z" fill="black" fill-opacity="0.5"/>
<path d="M291.708 133.87C292.484 136.07 293.197 138.292 293.846 140.532L282.199 143.91C281.613 141.889 280.97 139.885 280.271 137.901L291.708 133.87Z" fill="black" fill-opacity="0.5"/>
<path d="M228.442 63.3916C230.546 64.399 232.621 65.4658 234.665 66.5905L228.817 77.2146C226.974 76.2001 225.102 75.2379 223.205 74.3292L228.442 63.3916Z" fill="black" fill-opacity="0.5"/>
<path d="M277.086 105.065C278.405 106.99 279.668 108.951 280.876 110.947L270.5 117.224C269.411 115.424 268.271 113.655 267.082 111.919L277.086 105.065Z" fill="black" fill-opacity="0.5"/>
<path d="M255.508 81.0264C257.279 82.544 259.007 84.1114 260.69 85.7268L252.292 94.4755C250.774 93.0185 249.216 91.6047 247.618 90.2358L255.508 81.0264Z" fill="black" fill-opacity="0.5"/>
<path d="M197.798 53.0231C200.096 53.4526 202.381 53.9469 204.651 54.5056L201.747 66.3054C199.699 65.8015 197.638 65.3556 195.566 64.9683L197.798 53.0231Z" fill="black" fill-opacity="0.5"/>
<path d="M165.478 51.6233C167.804 51.4438 170.134 51.3301 172.466 51.2823L172.715 63.4067C170.611 63.4497 168.509 63.5523 166.411 63.7142L165.478 51.6233Z" fill="black" fill-opacity="0.5"/>
<path d="M133.87 58.2917C136.07 57.5164 138.292 56.8034 140.532 56.1537L143.91 67.8006C141.889 68.3867 139.885 69.0298 137.901 69.7291L133.87 58.2917Z" fill="black" fill-opacity="0.5"/>
<path d="M63.3915 121.558C64.399 119.454 65.4657 117.379 66.5904 115.335L77.2145 121.183C76.2 123.026 75.2378 124.898 74.3291 126.795L63.3915 121.558Z" fill="black" fill-opacity="0.5"/>
<path d="M105.065 72.9136C106.99 71.5953 108.951 70.3316 110.947 69.1242L117.224 79.5C115.424 80.5891 113.655 81.7289 111.919 82.9181L105.065 72.9136Z" fill="black" fill-opacity="0.5"/>
<path d="M81.0264 94.4926C82.544 92.7211 84.1114 90.9929 85.7267 89.31L94.4755 97.7076C93.0185 99.2256 91.6047 100.784 90.2358 102.382L81.0264 94.4926Z" fill="black" fill-opacity="0.5"/>
<path d="M53.1272 152.131C53.5566 149.833 54.051 147.548 54.6096 145.278L66.4095 148.182C65.9056 150.229 65.4597 152.291 65.0723 154.363L53.1272 152.131Z" fill="black" fill-opacity="0.5"/>
<path d="M51.6232 184.522C51.4437 182.196 51.33 179.866 51.2823 177.534L63.4066 177.285C63.4497 179.389 63.5522 181.491 63.7141 183.589L51.6232 184.522Z" fill="black" fill-opacity="0.5"/>
<path d="M58.2917 216.13C57.5163 213.93 56.8034 211.708 56.1536 209.468L67.8006 206.09C68.3866 208.111 69.0297 210.115 69.7291 212.099L58.2917 216.13Z" fill="black" fill-opacity="0.5"/>
<path d="M121.558 286.608C119.454 285.601 117.379 284.534 115.335 283.41L121.182 272.785C123.026 273.8 124.897 274.762 126.795 275.671L121.558 286.608Z" fill="black" fill-opacity="0.5"/>
<path d="M72.9136 244.935C71.5952 243.01 70.3316 241.049 69.1241 239.053L79.5 232.776C80.5891 234.576 81.7289 236.345 82.918 238.081L72.9136 244.935Z" fill="black" fill-opacity="0.5"/>
<path d="M94.4925 268.974C92.721 267.456 90.9928 265.889 89.3099 264.273L97.7076 255.525C99.2255 256.982 100.784 258.395 102.382 259.764L94.4925 268.974Z" fill="black" fill-opacity="0.5"/>
<path d="M152.235 296.802C149.937 296.372 147.652 295.878 145.382 295.319L148.286 283.519C150.333 284.023 152.395 284.469 154.467 284.856L152.235 296.802Z" fill="black" fill-opacity="0.5"/>
<path d="M184.522 298.377C182.196 298.556 179.866 298.67 177.534 298.718L177.285 286.593C179.389 286.55 181.491 286.448 183.589 286.286L184.522 298.377Z" fill="black" fill-opacity="0.5"/>
<path d="M216.13 291.708C213.93 292.484 211.708 293.197 209.468 293.846L206.09 282.199C208.111 281.613 210.115 280.97 212.099 280.271L216.13 291.708Z" fill="black" fill-opacity="0.5"/>
<path d="M286.608 228.442C285.601 230.546 284.534 232.621 283.41 234.665L272.785 228.818C273.8 226.974 274.762 225.103 275.671 223.205L286.608 228.442Z" fill="black" fill-opacity="0.5"/>
<path d="M244.935 277.086C243.01 278.405 241.049 279.668 239.053 280.876L232.776 270.5C234.576 269.411 236.345 268.271 238.081 267.082L244.935 277.086Z" fill="black" fill-opacity="0.5"/>
<path d="M268.974 255.508C267.456 257.279 265.889 259.007 264.273 260.69L255.524 252.292C256.981 250.775 258.395 249.216 259.764 247.618L268.974 255.508Z" fill="black" fill-opacity="0.5"/>
</svg>
