<svg width="523" height="527" viewBox="0 0 523 527" fill="none" xmlns="http://www.w3.org/2000/svg">
<path d="M433.097 320.913C419.3 362.696 390.975 398.037 353.349 420.42" stroke="black" stroke-width="8"/>
<path d="M433.097 320.913C419.3 362.696 390.975 398.037 353.349 420.42" stroke="black" stroke-width="8"/>
<path d="M433.097 320.913C419.3 362.696 390.975 398.037 353.349 420.42" stroke="black" stroke-width="8"/>
<path d="M294.505 442.654C251.547 450.737 207.142 442.892 169.481 420.572" stroke="black" stroke-width="8"/>
<path d="M294.505 442.654C251.547 450.737 207.142 442.892 169.481 420.572" stroke="black" stroke-width="8"/>
<path d="M294.505 442.654C251.547 450.737 207.142 442.892 169.481 420.572" stroke="black" stroke-width="8"/>
<path d="M220.482 85.5204C267.27 74.6114 316.439 82.8788 357.173 108.499" stroke="black" stroke-width="8"/>
<path d="M220.482 85.5204C267.27 74.6114 316.439 82.8788 357.173 108.499" stroke="black" stroke-width="8"/>
<path d="M220.482 85.5204C267.27 74.6114 316.439 82.8788 357.173 108.499" stroke="black" stroke-width="8"/>
<path d="M97.1912 186.138C112.444 153.185 137.119 125.578 168.048 106.859" stroke="black" stroke-width="8"/>
<path d="M97.1912 186.138C112.444 153.185 137.119 125.578 168.048 106.859" stroke="black" stroke-width="8"/>
<path d="M97.1912 186.138C112.444 153.185 137.119 125.578 168.048 106.859" stroke="black" stroke-width="8"/>
<path d="M125.605 384.128C106.98 362.886 93.5206 337.559 86.2976 310.156C79.0745 282.753 78.287 254.028 83.9996 226.26" stroke="black" stroke-width="8"/>
<path d="M125.605 384.128C106.98 362.886 93.5206 337.559 86.2976 310.156C79.0745 282.753 78.287 254.028 83.9996 226.26" stroke="black" stroke-width="8"/>
<path d="M125.605 384.128C106.98 362.886 93.5206 337.559 86.2976 310.156C79.0745 282.753 78.287 254.028 83.9996 226.26" stroke="black" stroke-width="8"/>
<path d="M411.326 161.147C431.523 191.287 442.326 226.826 442.341 263.204" stroke="black" stroke-width="8"/>
<path d="M411.326 161.147C431.523 191.287 442.326 226.826 442.341 263.204" stroke="black" stroke-width="8"/>
<path d="M411.326 161.147C431.523 191.287 442.326 226.826 442.341 263.204" stroke="black" stroke-width="8"/>
</svg>
