<svg width="282" height="281" viewBox="0 0 282 281" fill="none" xmlns="http://www.w3.org/2000/svg">
<path d="M163.537 46.9546C182.948 51.6696 200.478 62.0812 213.784 76.7857C227.089 91.4891 235.534 109.779 238.009 129.202" stroke="black" stroke-width="8"/>
<path d="M233.607 165.089C228.487 184.197 217.824 201.333 203.028 214.25" stroke="black" stroke-width="8"/>
<path d="M163.418 233.558C144.189 238.203 124.041 237.037 105.619 230.224" stroke="black" stroke-width="8"/>
<path d="M89.9874 221.643C77.0063 213.528 66.0711 202.548 58.0549 189.586C50.039 176.624 45.1668 162.045 43.8193 147.017" stroke="black" stroke-width="8"/>
<path d="M48.2457 115.037C52.2652 100.264 59.6182 86.6235 69.7118 75.2047C79.8051 63.7862 92.3555 54.9101 106.353 49.2789" stroke="black" stroke-width="8"/>
<circle cx="139.5" cy="139.5" r="95.5" stroke="black" stroke-width="2"/>
</svg>
