<svg width="367" height="367" viewBox="0 0 367 367" fill="none" xmlns="http://www.w3.org/2000/svg">
<path d="M122.925 68.1015C141.749 58.2203 162.704 53.094 183.964 53.1696C205.224 53.2453 226.142 58.5206 244.896 68.5355C263.649 78.5505 279.668 93.001 291.555 110.627C303.442 128.253 310.837 148.52 313.095 169.659" stroke="black" stroke-width="5"/>
<path d="M122.925 68.1015C141.749 58.2203 162.704 53.094 183.964 53.1696C205.224 53.2453 226.142 58.5206 244.896 68.5355C263.649 78.5505 279.668 93.001 291.555 110.627C303.442 128.253 310.837 148.52 313.095 169.659" stroke="black" stroke-width="5"/>
<path d="M122.925 68.1015C141.749 58.2203 162.704 53.094 183.964 53.1696C205.224 53.2453 226.142 58.5206 244.896 68.5355C263.649 78.5505 279.668 93.001 291.555 110.627C303.442 128.253 310.837 148.52 313.095 169.659" stroke="black" stroke-width="5"/>
<path d="M313.551 192.053C311.329 225.837 296.047 257.431 270.941 280.146C245.835 302.861 212.874 314.915 179.037 313.755C145.199 312.596 113.141 298.314 89.6487 273.934C66.1561 249.553 53.0731 216.988 53.1692 183.131" stroke="black" stroke-width="5"/>
<path d="M313.551 192.053C311.329 225.837 296.047 257.431 270.941 280.146C245.835 302.861 212.874 314.915 179.037 313.755C145.199 312.596 113.141 298.314 89.6487 273.934C66.1561 249.553 53.0731 216.988 53.1692 183.131" stroke="black" stroke-width="5"/>
<path d="M313.551 192.053C311.329 225.837 296.047 257.431 270.941 280.146C245.835 302.861 212.874 314.915 179.037 313.755C145.199 312.596 113.141 298.314 89.6487 273.934C66.1561 249.553 53.0731 216.988 53.1692 183.131" stroke="black" stroke-width="5"/>
<path d="M55.1933 160.616C61.0137 127.982 79.0508 98.7915 105.634 78.9865" stroke="black" stroke-width="5"/>
<path d="M55.1933 160.616C61.0137 127.982 79.0508 98.7915 105.634 78.9865" stroke="black" stroke-width="5"/>
<path d="M55.1933 160.616C61.0137 127.982 79.0508 98.7915 105.634 78.9865" stroke="black" stroke-width="5"/>
</svg>
