<svg width="193" height="91" viewBox="0 0 193 91" fill="none" xmlns="http://www.w3.org/2000/svg">
<path d="M36.2891 9.875H47.2344C49.5156 9.875 51.4609 10.2656 53.0703 11.0469C54.6797 11.8281 55.9141 12.9844 56.7734 14.5156C57.6328 16.0469 58.0625 17.9375 58.0625 20.1875C58.0625 22.0312 57.8125 23.6094 57.3125 24.9219C56.8125 26.2188 56.1016 27.3047 55.1797 28.1797C54.2578 29.0391 53.1562 29.7266 51.875 30.2422L49.7891 31.4844H40.9062L40.8828 25.7891H47.0469C47.9844 25.7891 48.7578 25.5859 49.3672 25.1797C49.9922 24.7578 50.4531 24.1719 50.75 23.4219C51.0625 22.6562 51.2188 21.7656 51.2188 20.75C51.2188 19.6719 51.0781 18.75 50.7969 17.9844C50.5312 17.2031 50.1016 16.6094 49.5078 16.2031C48.9297 15.7812 48.1719 15.5703 47.2344 15.5703H43.1562V44H36.2891V9.875ZM51.7812 44L45.5234 28.7891L52.7188 28.7656L59.1172 43.6719V44H51.7812ZM75.1953 15.9688L67.8594 44H60.6172L71.2812 9.875H75.8047L75.1953 15.9688ZM80.9844 44L73.6016 15.9688L72.9219 9.875H77.5156L88.2734 44H80.9844ZM81.2422 31.2734V36.9688H65.8438V31.2734H81.2422ZM100.438 44H94.4141L94.4609 38.3281H100.438C102.094 38.3281 103.383 38.0312 104.305 37.4375C105.227 36.8438 105.875 35.9062 106.25 34.625C106.641 33.3438 106.836 31.6641 106.836 29.5859V24.2656C106.836 22.6875 106.734 21.3516 106.531 20.2578C106.328 19.1484 105.984 18.2578 105.5 17.5859C105.016 16.8984 104.367 16.3906 103.555 16.0625C102.742 15.7344 101.734 15.5703 100.531 15.5703H94.2969V9.875H100.531C102.5 9.875 104.289 10.1953 105.898 10.8359C107.508 11.4766 108.891 12.4141 110.047 13.6484C111.203 14.8672 112.094 16.375 112.719 18.1719C113.344 19.9688 113.656 22.0156 113.656 24.3125V29.5859C113.656 31.8984 113.344 33.9453 112.719 35.7266C112.094 37.5078 111.203 39.0156 110.047 40.25C108.906 41.4688 107.523 42.3984 105.898 43.0391C104.273 43.6797 102.453 44 100.438 44ZM98.3984 9.875V44H91.5312V9.875H98.3984ZM125.797 9.875V44H118.977V9.875H125.797ZM147.922 32.6328H154.742C154.648 35.1953 154.133 37.3594 153.195 39.125C152.258 40.875 150.922 42.2031 149.188 43.1094C147.469 44.0156 145.391 44.4688 142.953 44.4688C141.062 44.4688 139.383 44.1562 137.914 43.5312C136.445 42.8906 135.195 41.9531 134.164 40.7188C133.133 39.4844 132.352 37.9609 131.82 36.1484C131.305 34.3203 131.047 32.2188 131.047 29.8438V24.0547C131.047 21.6797 131.32 19.5781 131.867 17.75C132.43 15.9219 133.227 14.3906 134.258 13.1562C135.305 11.9063 136.562 10.9688 138.031 10.3438C139.516 9.70313 141.188 9.38281 143.047 9.38281C145.531 9.38281 147.609 9.85156 149.281 10.7891C150.953 11.7266 152.242 13.0937 153.148 14.8906C154.07 16.6719 154.625 18.8516 154.812 21.4297H147.969C147.922 19.8047 147.734 18.5312 147.406 17.6094C147.094 16.6719 146.594 16.0156 145.906 15.6406C145.219 15.25 144.266 15.0547 143.047 15.0547C142.141 15.0547 141.359 15.2188 140.703 15.5469C140.047 15.8594 139.508 16.3672 139.086 17.0703C138.664 17.7734 138.352 18.6953 138.148 19.8359C137.961 20.9766 137.867 22.3672 137.867 24.0078V29.8438C137.867 31.4531 137.953 32.8281 138.125 33.9688C138.297 35.0938 138.57 36.0156 138.945 36.7344C139.32 37.4531 139.828 37.9766 140.469 38.3047C141.125 38.6328 141.953 38.7969 142.953 38.7969C144.109 38.7969 145.039 38.625 145.742 38.2812C146.461 37.9375 146.992 37.3203 147.336 36.4297C147.68 35.5391 147.875 34.2734 147.922 32.6328ZM178.602 38.3281V44H163.766V38.3281H178.602ZM165.898 9.875V44H159.031V9.875H165.898ZM176.609 23.7031V29.2109H163.766V23.7031H176.609ZM178.555 9.875V15.5703H163.766V9.875H178.555Z" fill="black"/>
<path d="M37.1572 52.3359H40.1382C40.8315 52.3359 41.4126 52.458 41.8813 52.7021C42.355 52.9463 42.7114 53.3076 42.9507 53.7861C43.1948 54.2598 43.3169 54.8433 43.3169 55.5366C43.3169 56.0249 43.2363 56.4717 43.0752 56.877C42.9141 57.2773 42.6797 57.6191 42.3721 57.9023C42.0645 58.1807 41.6909 58.3882 41.2515 58.5249L40.8853 58.6787H38.2266L38.2119 57.5288H40.1235C40.5337 57.5288 40.8755 57.4409 41.1489 57.2651C41.4224 57.0845 41.6274 56.8428 41.7642 56.54C41.9009 56.2373 41.9692 55.9028 41.9692 55.5366C41.9692 55.1265 41.9082 54.7676 41.7861 54.46C41.6641 54.1523 41.4688 53.9155 41.2002 53.7495C40.9365 53.5786 40.5825 53.4932 40.1382 53.4932H38.5049V63H37.1572V52.3359ZM42.2769 63L40.1528 58.166L41.5518 58.1587L43.7197 62.9121V63H42.2769ZM47.7773 63.1465C47.3037 63.1465 46.8765 63.0757 46.4956 62.9341C46.1147 62.7925 45.79 62.5776 45.5215 62.2896C45.2529 61.9966 45.0479 61.6279 44.9062 61.1836C44.7646 60.7393 44.6938 60.2144 44.6938 59.6089V58.7153C44.6938 58.0171 44.7744 57.4263 44.9355 56.9429C45.1016 56.4595 45.3237 56.0713 45.6021 55.7783C45.8804 55.4805 46.1953 55.2656 46.5469 55.1338C46.8984 54.9971 47.2598 54.9287 47.6309 54.9287C48.1289 54.9287 48.5537 55.0093 48.9053 55.1704C49.2568 55.3315 49.5425 55.5708 49.7622 55.8882C49.9819 56.2056 50.1431 56.5962 50.2456 57.0601C50.353 57.5239 50.4067 58.0586 50.4067 58.6641V59.4185H45.4556V58.3125H49.1104V58.1294C49.0908 57.7192 49.0347 57.3579 48.9419 57.0454C48.854 56.7329 48.7075 56.4888 48.5024 56.313C48.2974 56.1323 48.0068 56.042 47.6309 56.042C47.3916 56.042 47.1694 56.0835 46.9644 56.1665C46.7642 56.2446 46.5908 56.3838 46.4443 56.584C46.3027 56.7793 46.1904 57.0503 46.1074 57.397C46.0293 57.7437 45.9902 58.1831 45.9902 58.7153V59.6089C45.9902 60.0337 46.0293 60.3999 46.1074 60.7075C46.1904 61.0103 46.3101 61.2617 46.4663 61.4619C46.6274 61.6572 46.8228 61.8037 47.0522 61.9014C47.2866 61.9941 47.5527 62.0405 47.8506 62.0405C48.2852 62.0405 48.644 61.9575 48.9272 61.7915C49.2104 61.6206 49.457 61.4033 49.667 61.1396L50.3481 61.9526C50.2065 62.1528 50.021 62.3457 49.7915 62.5312C49.5669 62.7119 49.2886 62.8608 48.9565 62.978C48.6294 63.0903 48.2363 63.1465 47.7773 63.1465ZM55.8193 60.9712C55.8193 60.771 55.7705 60.5952 55.6729 60.4438C55.5752 60.2925 55.4141 60.146 55.1895 60.0044C54.9697 59.8628 54.6719 59.7114 54.2959 59.5503C53.9297 59.3989 53.6001 59.25 53.3071 59.1035C53.019 58.9521 52.7749 58.7886 52.5747 58.6128C52.3745 58.437 52.2207 58.2344 52.1133 58.0049C52.0107 57.7705 51.9595 57.4946 51.9595 57.1772C51.9595 56.8599 52.0181 56.5669 52.1353 56.2983C52.2573 56.0249 52.4282 55.7856 52.6479 55.5806C52.8677 55.3755 53.1313 55.2168 53.439 55.1045C53.7466 54.9873 54.0908 54.9287 54.4717 54.9287C55.0137 54.9287 55.4751 55.0337 55.856 55.2437C56.2368 55.4536 56.5273 55.7417 56.7275 56.1079C56.9326 56.4692 57.0352 56.877 57.0352 57.3311H55.7461C55.7461 57.1113 55.6973 56.9038 55.5996 56.7085C55.502 56.5132 55.3579 56.3545 55.1675 56.2324C54.9771 56.1055 54.7451 56.042 54.4717 56.042C54.1836 56.042 53.9492 56.0933 53.7686 56.1958C53.5879 56.2983 53.4561 56.4326 53.373 56.5986C53.2949 56.7598 53.2559 56.938 53.2559 57.1333C53.2559 57.2798 53.2754 57.4067 53.3145 57.5142C53.3584 57.6167 53.4316 57.7144 53.5342 57.8071C53.6367 57.895 53.7759 57.9878 53.9517 58.0854C54.1323 58.1782 54.3618 58.2856 54.6401 58.4077C55.1772 58.6177 55.6289 58.8301 55.9951 59.0449C56.3613 59.2598 56.6396 59.5112 56.8301 59.7993C57.0205 60.0874 57.1157 60.4438 57.1157 60.8687C57.1157 61.2153 57.0522 61.5303 56.9253 61.8135C56.8032 62.0918 56.6274 62.3311 56.3979 62.5312C56.1685 62.7314 55.8926 62.8853 55.5703 62.9927C55.2529 63.0952 54.8965 63.1465 54.501 63.1465C53.9053 63.1465 53.3999 63.0293 52.9849 62.7949C52.5747 62.5557 52.2622 62.2456 52.0474 61.8647C51.8374 61.479 51.7324 61.0664 51.7324 60.627H53.0288C53.0435 60.998 53.1265 61.2861 53.2778 61.4912C53.4341 61.6963 53.6221 61.8379 53.8418 61.916C54.0615 61.9941 54.2812 62.0332 54.501 62.0332C54.7891 62.0332 55.0308 61.9917 55.2261 61.9087C55.4214 61.8208 55.5679 61.6963 55.6655 61.5352C55.7681 61.374 55.8193 61.186 55.8193 60.9712ZM61.6494 63.1465C61.1758 63.1465 60.7485 63.0757 60.3677 62.9341C59.9868 62.7925 59.6621 62.5776 59.3936 62.2896C59.125 61.9966 58.9199 61.6279 58.7783 61.1836C58.6367 60.7393 58.5659 60.2144 58.5659 59.6089V58.7153C58.5659 58.0171 58.6465 57.4263 58.8076 56.9429C58.9736 56.4595 59.1958 56.0713 59.4741 55.7783C59.7524 55.4805 60.0674 55.2656 60.4189 55.1338C60.7705 54.9971 61.1318 54.9287 61.5029 54.9287C62.001 54.9287 62.4258 55.0093 62.7773 55.1704C63.1289 55.3315 63.4146 55.5708 63.6343 55.8882C63.854 56.2056 64.0151 56.5962 64.1177 57.0601C64.2251 57.5239 64.2788 58.0586 64.2788 58.6641V59.4185H59.3276V58.3125H62.9824V58.1294C62.9629 57.7192 62.9067 57.3579 62.814 57.0454C62.7261 56.7329 62.5796 56.4888 62.3745 56.313C62.1694 56.1323 61.8789 56.042 61.5029 56.042C61.2637 56.042 61.0415 56.0835 60.8364 56.1665C60.6362 56.2446 60.4629 56.3838 60.3164 56.584C60.1748 56.7793 60.0625 57.0503 59.9795 57.397C59.9014 57.7437 59.8623 58.1831 59.8623 58.7153V59.6089C59.8623 60.0337 59.9014 60.3999 59.9795 60.7075C60.0625 61.0103 60.1821 61.2617 60.3384 61.4619C60.4995 61.6572 60.6948 61.8037 60.9243 61.9014C61.1587 61.9941 61.4248 62.0405 61.7227 62.0405C62.1572 62.0405 62.5161 61.9575 62.7993 61.7915C63.0825 61.6206 63.3291 61.4033 63.5391 61.1396L64.2202 61.9526C64.0786 62.1528 63.8931 62.3457 63.6636 62.5312C63.439 62.7119 63.1606 62.8608 62.8286 62.978C62.5015 63.0903 62.1084 63.1465 61.6494 63.1465ZM69.728 61.645V57.3457C69.728 57.0332 69.6792 56.7817 69.5815 56.5913C69.4888 56.4009 69.3472 56.2617 69.1567 56.1738C68.9712 56.0859 68.7368 56.042 68.4536 56.042C68.1802 56.042 67.9434 56.0981 67.7432 56.2104C67.5479 56.3228 67.3965 56.4717 67.2891 56.6572C67.1865 56.8428 67.1353 57.0479 67.1353 57.2725H65.8389C65.8389 56.9893 65.8999 56.7085 66.022 56.4302C66.1489 56.1519 66.3296 55.9004 66.564 55.6758C66.7983 55.4463 67.0791 55.2656 67.4062 55.1338C67.7383 54.9971 68.1094 54.9287 68.5195 54.9287C69.0078 54.9287 69.4399 55.0093 69.8159 55.1704C70.1919 55.3267 70.4873 55.583 70.7021 55.9395C70.917 56.2959 71.0244 56.7695 71.0244 57.3604V61.2715C71.0244 61.5352 71.0439 61.8159 71.083 62.1138C71.127 62.4116 71.188 62.668 71.2661 62.8828V63H69.9258C69.8623 62.8438 69.8135 62.6362 69.7793 62.3774C69.7451 62.1138 69.728 61.8696 69.728 61.645ZM69.9331 58.1953L69.9478 59.1475H69.0469C68.7393 59.1475 68.4585 59.1816 68.2046 59.25C67.9556 59.3184 67.7407 59.4185 67.5601 59.5503C67.3794 59.6772 67.2402 59.8359 67.1426 60.0264C67.0498 60.2168 67.0034 60.4341 67.0034 60.6782C67.0034 60.9956 67.0474 61.2495 67.1353 61.4399C67.2231 61.6255 67.355 61.7598 67.5308 61.8428C67.7065 61.9258 67.9287 61.9673 68.1973 61.9673C68.5244 61.9673 68.8125 61.8916 69.0615 61.7402C69.3105 61.5889 69.5034 61.4058 69.6401 61.1909C69.7817 60.9761 69.8477 60.7759 69.8379 60.5903L70.1235 61.1982C70.104 61.3887 70.0405 61.5962 69.9331 61.8208C69.8306 62.0405 69.6865 62.2529 69.501 62.458C69.3154 62.6582 69.0957 62.8242 68.8418 62.9561C68.5928 63.083 68.312 63.1465 67.9995 63.1465C67.5405 63.1465 67.1377 63.0586 66.791 62.8828C66.4492 62.707 66.1831 62.4482 65.9927 62.1064C65.8022 61.7646 65.707 61.3423 65.707 60.8394C65.707 60.4585 65.7729 60.1069 65.9048 59.7847C66.0366 59.4624 66.2319 59.1841 66.4907 58.9497C66.7495 58.7104 67.0742 58.5249 67.4648 58.3931C67.8604 58.2612 68.3169 58.1953 68.8345 58.1953H69.9331ZM74.335 56.3203V63H73.0386V55.0752H74.291L74.335 56.3203ZM76.3052 55.0312L76.3125 56.291C76.2051 56.2666 76.1074 56.252 76.0195 56.2471C75.9365 56.2373 75.8389 56.2324 75.7266 56.2324C75.4824 56.2324 75.2676 56.2812 75.082 56.3789C74.9014 56.4766 74.7451 56.6133 74.6133 56.7891C74.4814 56.9648 74.3765 57.1748 74.2983 57.4189C74.2202 57.6582 74.1665 57.9219 74.1372 58.21L73.8003 58.4297C73.8003 57.9512 73.8369 57.502 73.9102 57.082C73.9883 56.6621 74.1079 56.291 74.269 55.9688C74.4302 55.6416 74.6353 55.3877 74.8843 55.207C75.1382 55.0215 75.4409 54.9287 75.7925 54.9287C75.8706 54.9287 75.9658 54.9409 76.0781 54.9653C76.1953 54.9849 76.271 55.0068 76.3052 55.0312ZM80.209 62.0405C80.4678 62.0405 80.7021 61.9893 80.9121 61.8867C81.127 61.7793 81.3027 61.6133 81.4395 61.3887C81.5762 61.1592 81.6543 60.8613 81.6738 60.4951H82.8896C82.8701 61.0225 82.7358 61.4863 82.4868 61.8867C82.2427 62.2822 81.9204 62.5923 81.52 62.8169C81.1245 63.0366 80.6875 63.1465 80.209 63.1465C79.6963 63.1465 79.2495 63.0635 78.8687 62.8975C78.4927 62.7314 78.1802 62.4922 77.9312 62.1797C77.687 61.8623 77.5039 61.479 77.3818 61.0298C77.2598 60.5757 77.1987 60.0605 77.1987 59.4844V58.5908C77.1987 58.0146 77.2598 57.502 77.3818 57.0527C77.5039 56.5986 77.687 56.2153 77.9312 55.9028C78.1802 55.5854 78.4927 55.3438 78.8687 55.1777C79.2495 55.0117 79.6963 54.9287 80.209 54.9287C80.7461 54.9287 81.21 55.0435 81.6006 55.2729C81.9961 55.4976 82.3037 55.8247 82.5234 56.2544C82.748 56.6792 82.8701 57.1943 82.8896 57.7998H81.6738C81.6543 57.4092 81.5835 57.0845 81.4614 56.8257C81.3394 56.562 81.1733 56.3667 80.9634 56.2397C80.7534 56.1079 80.502 56.042 80.209 56.042C79.8672 56.042 79.584 56.103 79.3594 56.2251C79.1396 56.3423 78.9663 56.5132 78.8394 56.7378C78.7124 56.9624 78.6221 57.231 78.5684 57.5435C78.5195 57.856 78.4951 58.2051 78.4951 58.5908V59.4844C78.4951 59.8701 78.5195 60.2217 78.5684 60.5391C78.6221 60.8516 78.71 61.1201 78.832 61.3447C78.959 61.5693 79.1348 61.7427 79.3594 61.8647C79.584 61.9819 79.8672 62.0405 80.209 62.0405ZM85.6875 51.75V63H84.3911V51.75H85.6875ZM85.3726 58.7373L84.8452 58.7153C84.8403 58.1733 84.9014 57.6729 85.0283 57.2139C85.1602 56.75 85.3457 56.3472 85.585 56.0054C85.8291 55.6636 86.1196 55.3999 86.4565 55.2144C86.7935 55.0239 87.167 54.9287 87.5771 54.9287C87.8994 54.9287 88.1924 54.9824 88.4561 55.0898C88.7197 55.1924 88.9443 55.3584 89.1299 55.5879C89.3154 55.8174 89.457 56.1152 89.5547 56.4814C89.6572 56.8428 89.7085 57.2847 89.7085 57.8071V63H88.4121V57.7925C88.4121 57.3774 88.3657 57.0454 88.2729 56.7964C88.1851 56.5425 88.0483 56.3594 87.8628 56.2471C87.6821 56.1299 87.4526 56.0713 87.1743 56.0713C86.9204 56.0713 86.6836 56.1421 86.4639 56.2837C86.2441 56.4253 86.0513 56.6206 85.8853 56.8696C85.7241 57.1187 85.5972 57.4043 85.5044 57.7266C85.4165 58.0439 85.3726 58.3809 85.3726 58.7373ZM96.8203 57.082L98.1313 55.9468C98.3901 55.7368 98.583 55.5269 98.71 55.3169C98.8369 55.1021 98.9004 54.8091 98.9004 54.438C98.9004 54.1499 98.8101 53.8887 98.6294 53.6543C98.4536 53.415 98.2021 53.2954 97.875 53.2954C97.6553 53.2954 97.4697 53.3613 97.3184 53.4932C97.167 53.625 97.0522 53.8008 96.9741 54.0205C96.9009 54.2354 96.8643 54.4722 96.8643 54.731C96.8643 54.9507 96.9106 55.1777 97.0034 55.4121C97.1011 55.6465 97.2305 55.8906 97.3916 56.1445C97.5527 56.3984 97.7358 56.667 97.9409 56.9502L102.138 63H100.592L97.2012 58.0488C96.8936 57.6191 96.6152 57.2261 96.3662 56.8696C96.1221 56.5083 95.9268 56.1592 95.7803 55.8223C95.6387 55.4854 95.5679 55.1362 95.5679 54.7749C95.5679 54.2183 95.6631 53.7495 95.8535 53.3687C96.0488 52.9829 96.3198 52.6899 96.6665 52.4897C97.0132 52.2896 97.4185 52.1895 97.8823 52.1895C98.3364 52.1895 98.7271 52.2944 99.0542 52.5044C99.3862 52.7095 99.6426 52.9829 99.8232 53.3247C100.004 53.6616 100.094 54.0327 100.094 54.438C100.094 54.7798 100.045 55.0874 99.9478 55.3608C99.8501 55.6294 99.7085 55.876 99.5229 56.1006C99.3423 56.3252 99.125 56.5449 98.8711 56.7598L97.04 58.3345C96.7666 58.5933 96.5664 58.8398 96.4395 59.0742C96.3174 59.3086 96.2393 59.5161 96.2051 59.6968C96.1758 59.8774 96.1611 60.0215 96.1611 60.1289C96.1611 60.4756 96.2197 60.793 96.3369 61.0811C96.459 61.3691 96.6421 61.6011 96.8862 61.7769C97.1304 61.9478 97.438 62.0332 97.8091 62.0332C98.1362 62.0332 98.4536 61.9404 98.7612 61.7549C99.0737 61.5645 99.3545 61.2959 99.6035 60.9492C99.8525 60.5977 100.05 60.1802 100.197 59.6968C100.348 59.2085 100.424 58.6689 100.424 58.0781H101.581C101.581 58.5615 101.542 59.0181 101.464 59.4478C101.386 59.8774 101.261 60.2778 101.09 60.6489C100.924 61.0151 100.709 61.3496 100.446 61.6523C100.412 61.6963 100.382 61.7476 100.358 61.8062C100.333 61.8647 100.304 61.916 100.27 61.96C99.9624 62.3555 99.5815 62.6533 99.1274 62.8535C98.6782 63.0488 98.2388 63.1465 97.8091 63.1465C97.2036 63.1465 96.6812 63.0171 96.2417 62.7583C95.8022 62.4995 95.4629 62.1431 95.2236 61.689C94.9844 61.2349 94.8647 60.7148 94.8647 60.1289C94.8647 59.6797 94.9478 59.2842 95.1138 58.9424C95.2798 58.6006 95.5093 58.2808 95.8022 57.9829C96.1001 57.6851 96.4395 57.3848 96.8203 57.082ZM109.279 63H107.462L107.477 61.8501H109.279C109.918 61.8501 110.438 61.728 110.839 61.4839C111.239 61.2349 111.535 60.8687 111.725 60.3853C111.916 59.897 112.011 59.2939 112.011 58.5762V56.7524C112.011 56.186 111.957 55.6978 111.85 55.2876C111.742 54.8774 111.581 54.5405 111.366 54.2769C111.151 54.0132 110.88 53.8179 110.553 53.6909C110.226 53.5591 109.843 53.4932 109.403 53.4932H107.426V52.3359H109.403C110.004 52.3359 110.546 52.4312 111.029 52.6216C111.513 52.8071 111.928 53.0879 112.274 53.4639C112.621 53.835 112.885 54.2964 113.065 54.8481C113.251 55.3999 113.344 56.0396 113.344 56.7671V58.5762C113.344 59.3037 113.251 59.9434 113.065 60.4951C112.885 61.0469 112.619 61.5083 112.267 61.8794C111.916 62.2505 111.488 62.5312 110.985 62.7217C110.487 62.9072 109.918 63 109.279 63ZM108.209 52.3359V63H106.862V52.3359H108.209ZM118.09 63.1465C117.616 63.1465 117.189 63.0757 116.808 62.9341C116.427 62.7925 116.103 62.5776 115.834 62.2896C115.565 61.9966 115.36 61.6279 115.219 61.1836C115.077 60.7393 115.006 60.2144 115.006 59.6089V58.7153C115.006 58.0171 115.087 57.4263 115.248 56.9429C115.414 56.4595 115.636 56.0713 115.915 55.7783C116.193 55.4805 116.508 55.2656 116.859 55.1338C117.211 54.9971 117.572 54.9287 117.943 54.9287C118.441 54.9287 118.866 55.0093 119.218 55.1704C119.569 55.3315 119.855 55.5708 120.075 55.8882C120.294 56.2056 120.456 56.5962 120.558 57.0601C120.666 57.5239 120.719 58.0586 120.719 58.6641V59.4185H115.768V58.3125H119.423V58.1294C119.403 57.7192 119.347 57.3579 119.254 57.0454C119.167 56.7329 119.02 56.4888 118.815 56.313C118.61 56.1323 118.319 56.042 117.943 56.042C117.704 56.042 117.482 56.0835 117.277 56.1665C117.077 56.2446 116.903 56.3838 116.757 56.584C116.615 56.7793 116.503 57.0503 116.42 57.397C116.342 57.7437 116.303 58.1831 116.303 58.7153V59.6089C116.303 60.0337 116.342 60.3999 116.42 60.7075C116.503 61.0103 116.623 61.2617 116.779 61.4619C116.94 61.6572 117.135 61.8037 117.365 61.9014C117.599 61.9941 117.865 62.0405 118.163 62.0405C118.598 62.0405 118.957 61.9575 119.24 61.7915C119.523 61.6206 119.77 61.4033 119.979 61.1396L120.661 61.9526C120.519 62.1528 120.333 62.3457 120.104 62.5312C119.879 62.7119 119.601 62.8608 119.269 62.978C118.942 63.0903 118.549 63.1465 118.09 63.1465ZM124.235 61.7769L125.934 55.0752H127.252L124.901 63H124.044L124.235 61.7769ZM122.865 55.0752L124.638 61.8135L124.777 63H123.927L121.547 55.0752H122.865ZM131.332 63.1465C130.858 63.1465 130.431 63.0757 130.05 62.9341C129.669 62.7925 129.345 62.5776 129.076 62.2896C128.808 61.9966 128.603 61.6279 128.461 61.1836C128.319 60.7393 128.249 60.2144 128.249 59.6089V58.7153C128.249 58.0171 128.329 57.4263 128.49 56.9429C128.656 56.4595 128.878 56.0713 129.157 55.7783C129.435 55.4805 129.75 55.2656 130.102 55.1338C130.453 54.9971 130.814 54.9287 131.186 54.9287C131.684 54.9287 132.108 55.0093 132.46 55.1704C132.812 55.3315 133.097 55.5708 133.317 55.8882C133.537 56.2056 133.698 56.5962 133.8 57.0601C133.908 57.5239 133.961 58.0586 133.961 58.6641V59.4185H129.01V58.3125H132.665V58.1294C132.646 57.7192 132.589 57.3579 132.497 57.0454C132.409 56.7329 132.262 56.4888 132.057 56.313C131.852 56.1323 131.562 56.042 131.186 56.042C130.946 56.042 130.724 56.0835 130.519 56.1665C130.319 56.2446 130.146 56.3838 129.999 56.584C129.857 56.7793 129.745 57.0503 129.662 57.397C129.584 57.7437 129.545 58.1831 129.545 58.7153V59.6089C129.545 60.0337 129.584 60.3999 129.662 60.7075C129.745 61.0103 129.865 61.2617 130.021 61.4619C130.182 61.6572 130.377 61.8037 130.607 61.9014C130.841 61.9941 131.107 62.0405 131.405 62.0405C131.84 62.0405 132.199 61.9575 132.482 61.7915C132.765 61.6206 133.012 61.4033 133.222 61.1396L133.903 61.9526C133.761 62.1528 133.576 62.3457 133.346 62.5312C133.122 62.7119 132.843 62.8608 132.511 62.978C132.184 63.0903 131.791 63.1465 131.332 63.1465ZM136.92 51.75V63H135.631V51.75H136.92ZM138.7 59.4185V58.6641C138.7 58.0488 138.778 57.5093 138.935 57.0454C139.091 56.5767 139.308 56.186 139.586 55.8735C139.865 55.561 140.189 55.3267 140.561 55.1704C140.932 55.0093 141.33 54.9287 141.754 54.9287C142.189 54.9287 142.592 55.0093 142.963 55.1704C143.334 55.3267 143.659 55.561 143.937 55.8735C144.22 56.186 144.44 56.5767 144.596 57.0454C144.752 57.5093 144.831 58.0488 144.831 58.6641V59.4185C144.831 60.0337 144.752 60.5757 144.596 61.0444C144.44 61.5083 144.223 61.8965 143.944 62.209C143.666 62.5215 143.341 62.7559 142.97 62.9121C142.599 63.0684 142.199 63.1465 141.769 63.1465C141.339 63.1465 140.939 63.0684 140.568 62.9121C140.197 62.7559 139.87 62.5215 139.586 62.209C139.308 61.8965 139.091 61.5083 138.935 61.0444C138.778 60.5757 138.7 60.0337 138.7 59.4185ZM139.997 58.6641V59.4185C139.997 59.853 140.041 60.2339 140.128 60.561C140.216 60.8882 140.341 61.1616 140.502 61.3813C140.663 61.6011 140.851 61.7671 141.066 61.8794C141.281 61.9868 141.515 62.0405 141.769 62.0405C142.062 62.0405 142.318 61.9868 142.538 61.8794C142.763 61.7671 142.948 61.6011 143.095 61.3813C143.241 61.1616 143.351 60.8882 143.424 60.561C143.498 60.2339 143.534 59.853 143.534 59.4185V58.6641C143.534 58.2295 143.49 57.8511 143.402 57.5288C143.314 57.2017 143.19 56.9282 143.029 56.7085C142.868 56.4839 142.677 56.3179 142.458 56.2104C142.243 56.0981 142.008 56.042 141.754 56.042C141.505 56.042 141.273 56.0981 141.059 56.2104C140.844 56.3179 140.656 56.4839 140.495 56.7085C140.338 56.9282 140.216 57.2017 140.128 57.5288C140.041 57.8511 139.997 58.2295 139.997 58.6641ZM147.797 56.5986V66.0469H146.5V55.0752H147.68L147.797 56.5986ZM152.228 58.6787V59.4185C152.228 60.0435 152.169 60.5903 152.052 61.0591C151.94 61.5229 151.771 61.9111 151.547 62.2236C151.327 62.5312 151.056 62.7632 150.734 62.9194C150.412 63.0708 150.043 63.1465 149.628 63.1465C149.213 63.1465 148.852 63.0684 148.544 62.9121C148.241 62.751 147.985 62.519 147.775 62.2163C147.57 61.9136 147.406 61.5498 147.284 61.125C147.167 60.6953 147.086 60.2144 147.042 59.6821V58.5542C147.086 57.9927 147.167 57.4897 147.284 57.0454C147.401 56.5962 147.562 56.2153 147.768 55.9028C147.978 55.5854 148.234 55.3438 148.537 55.1777C148.844 55.0117 149.203 54.9287 149.613 54.9287C150.038 54.9287 150.412 55.002 150.734 55.1484C151.061 55.2949 151.334 55.522 151.554 55.8296C151.779 56.1323 151.947 56.5205 152.06 56.9941C152.172 57.4629 152.228 58.0244 152.228 58.6787ZM150.932 59.4185V58.6787C150.932 58.2393 150.897 57.856 150.829 57.5288C150.766 57.2017 150.663 56.9307 150.521 56.7158C150.38 56.501 150.202 56.3398 149.987 56.2324C149.772 56.125 149.513 56.0713 149.21 56.0713C148.952 56.0713 148.722 56.125 148.522 56.2324C148.327 56.3398 148.158 56.4863 148.017 56.6719C147.875 56.8525 147.758 57.0601 147.665 57.2944C147.572 57.5239 147.504 57.7632 147.46 58.0122V60.2314C147.543 60.5439 147.653 60.8394 147.79 61.1177C147.926 61.3911 148.109 61.6133 148.339 61.7842C148.573 61.9551 148.869 62.0405 149.225 62.0405C149.523 62.0405 149.779 61.9868 149.994 61.8794C150.209 61.772 150.385 61.6108 150.521 61.396C150.663 61.1763 150.766 60.9028 150.829 60.5757C150.897 60.2437 150.932 59.8579 150.932 59.4185ZM155.194 56.6499V63H153.905V55.0752H155.121L155.194 56.6499ZM154.931 58.7373L154.33 58.7153C154.325 58.1733 154.379 57.6729 154.491 57.2139C154.604 56.75 154.772 56.3472 154.997 56.0054C155.226 55.6636 155.512 55.3999 155.854 55.2144C156.2 55.0239 156.603 54.9287 157.062 54.9287C157.365 54.9287 157.646 54.9824 157.904 55.0898C158.168 55.1924 158.397 55.356 158.593 55.5806C158.788 55.8052 158.939 56.0933 159.047 56.4448C159.159 56.7964 159.215 57.2212 159.215 57.7192V63H157.919V57.7852C157.919 57.3701 157.863 57.0381 157.75 56.7891C157.643 56.54 157.489 56.3594 157.289 56.2471C157.089 56.1299 156.85 56.0713 156.571 56.0713C156.254 56.0713 155.988 56.1421 155.773 56.2837C155.563 56.4253 155.395 56.6206 155.268 56.8696C155.146 57.1187 155.058 57.4043 155.004 57.7266C154.955 58.0439 154.931 58.3809 154.931 58.7373ZM159.201 57.9902L158.336 58.2686C158.332 57.834 158.385 57.4165 158.498 57.0161C158.61 56.6157 158.776 56.2593 158.996 55.9468C159.22 55.6343 159.499 55.3877 159.831 55.207C160.163 55.0215 160.548 54.9287 160.988 54.9287C161.349 54.9287 161.669 54.9849 161.947 55.0972C162.226 55.2095 162.46 55.3828 162.65 55.6172C162.846 55.8467 162.992 56.1421 163.09 56.5034C163.188 56.8647 163.236 57.2944 163.236 57.7925V63H161.94V57.7778C161.94 57.3335 161.884 56.9893 161.771 56.7451C161.664 56.4961 161.51 56.3228 161.31 56.2251C161.11 56.1226 160.871 56.0713 160.592 56.0713C160.368 56.0713 160.167 56.1226 159.992 56.2251C159.821 56.3276 159.677 56.4692 159.56 56.6499C159.442 56.8257 159.352 57.0283 159.289 57.2578C159.23 57.4873 159.201 57.7314 159.201 57.9902ZM168.026 63.1465C167.553 63.1465 167.125 63.0757 166.745 62.9341C166.364 62.7925 166.039 62.5776 165.771 62.2896C165.502 61.9966 165.297 61.6279 165.155 61.1836C165.014 60.7393 164.943 60.2144 164.943 59.6089V58.7153C164.943 58.0171 165.023 57.4263 165.185 56.9429C165.351 56.4595 165.573 56.0713 165.851 55.7783C166.129 55.4805 166.444 55.2656 166.796 55.1338C167.147 54.9971 167.509 54.9287 167.88 54.9287C168.378 54.9287 168.803 55.0093 169.154 55.1704C169.506 55.3315 169.792 55.5708 170.011 55.8882C170.231 56.2056 170.392 56.5962 170.495 57.0601C170.602 57.5239 170.656 58.0586 170.656 58.6641V59.4185H165.705V58.3125H169.359V58.1294C169.34 57.7192 169.284 57.3579 169.191 57.0454C169.103 56.7329 168.957 56.4888 168.751 56.313C168.546 56.1323 168.256 56.042 167.88 56.042C167.641 56.042 167.418 56.0835 167.213 56.1665C167.013 56.2446 166.84 56.3838 166.693 56.584C166.552 56.7793 166.439 57.0503 166.356 57.397C166.278 57.7437 166.239 58.1831 166.239 58.7153V59.6089C166.239 60.0337 166.278 60.3999 166.356 60.7075C166.439 61.0103 166.559 61.2617 166.715 61.4619C166.876 61.6572 167.072 61.8037 167.301 61.9014C167.536 61.9941 167.802 62.0405 168.1 62.0405C168.534 62.0405 168.893 61.9575 169.176 61.7915C169.459 61.6206 169.706 61.4033 169.916 61.1396L170.597 61.9526C170.456 62.1528 170.27 62.3457 170.041 62.5312C169.816 62.7119 169.538 62.8608 169.206 62.978C168.878 63.0903 168.485 63.1465 168.026 63.1465ZM173.52 56.7671V63H172.223V55.0752H173.446L173.52 56.7671ZM173.205 58.7373L172.677 58.7153C172.672 58.1733 172.733 57.6729 172.86 57.2139C172.992 56.75 173.178 56.3472 173.417 56.0054C173.661 55.6636 173.952 55.3999 174.289 55.2144C174.625 55.0239 174.999 54.9287 175.409 54.9287C175.731 54.9287 176.024 54.9824 176.288 55.0898C176.552 55.1924 176.776 55.3584 176.962 55.5879C177.147 55.8174 177.289 56.1152 177.387 56.4814C177.489 56.8428 177.541 57.2847 177.541 57.8071V63H176.244V57.7925C176.244 57.3774 176.198 57.0454 176.105 56.7964C176.017 56.5425 175.88 56.3594 175.695 56.2471C175.514 56.1299 175.285 56.0713 175.006 56.0713C174.752 56.0713 174.516 56.1421 174.296 56.2837C174.076 56.4253 173.883 56.6206 173.717 56.8696C173.556 57.1187 173.429 57.4043 173.336 57.7266C173.249 58.0439 173.205 58.3809 173.205 58.7373ZM182.382 55.0752V56.1152H178.683V55.0752H182.382ZM179.892 53.1489H181.188V61.0371C181.188 61.3057 181.22 61.5083 181.283 61.645C181.352 61.7817 181.437 61.8721 181.54 61.916C181.642 61.96 181.752 61.9819 181.869 61.9819C181.957 61.9819 182.055 61.9722 182.162 61.9526C182.27 61.9282 182.343 61.9087 182.382 61.894L182.375 63C182.287 63.0342 182.169 63.0659 182.023 63.0952C181.876 63.1294 181.691 63.1465 181.466 63.1465C181.188 63.1465 180.929 63.0806 180.69 62.9487C180.451 62.8169 180.258 62.5972 180.111 62.2896C179.965 61.9771 179.892 61.5571 179.892 61.0298V53.1489Z" fill="black"/>
<rect x="37" y="67" width="146" height="18" fill="black"/>
<path d="M60.7266 69.625V81H59.2891V69.625H60.7266ZM64.4219 74.3516V81H63.0391V72.5469H64.3438L64.4219 74.3516ZM64.0859 76.4531L63.5234 76.4297C63.5182 75.8516 63.5833 75.3177 63.7188 74.8281C63.8594 74.3333 64.0573 73.9036 64.3125 73.5391C64.5729 73.1745 64.8828 72.8932 65.2422 72.6953C65.6016 72.4922 66 72.3906 66.4375 72.3906C66.7812 72.3906 67.0938 72.4479 67.375 72.5625C67.6562 72.6719 67.8958 72.849 68.0938 73.0938C68.2917 73.3385 68.4427 73.6562 68.5469 74.0469C68.6562 74.4323 68.7109 74.9036 68.7109 75.4609V81H67.3281V75.4453C67.3281 75.0026 67.2786 74.6484 67.1797 74.3828C67.0859 74.112 66.9401 73.9167 66.7422 73.7969C66.5495 73.6719 66.3047 73.6094 66.0078 73.6094C65.737 73.6094 65.4844 73.6849 65.25 73.8359C65.0156 73.987 64.8099 74.1953 64.6328 74.4609C64.4609 74.7266 64.3255 75.0312 64.2266 75.375C64.1328 75.7135 64.0859 76.0729 64.0859 76.4531ZM72.1719 74.3516V81H70.7891V72.5469H72.0938L72.1719 74.3516ZM71.8359 76.4531L71.2734 76.4297C71.2682 75.8516 71.3333 75.3177 71.4688 74.8281C71.6094 74.3333 71.8073 73.9036 72.0625 73.5391C72.3229 73.1745 72.6328 72.8932 72.9922 72.6953C73.3516 72.4922 73.75 72.3906 74.1875 72.3906C74.5312 72.3906 74.8438 72.4479 75.125 72.5625C75.4062 72.6719 75.6458 72.849 75.8438 73.0938C76.0417 73.3385 76.1927 73.6562 76.2969 74.0469C76.4062 74.4323 76.4609 74.9036 76.4609 75.4609V81H75.0781V75.4453C75.0781 75.0026 75.0286 74.6484 74.9297 74.3828C74.8359 74.112 74.6901 73.9167 74.4922 73.7969C74.2995 73.6719 74.0547 73.6094 73.7578 73.6094C73.487 73.6094 73.2344 73.6849 73 73.8359C72.7656 73.987 72.5599 74.1953 72.3828 74.4609C72.2109 74.7266 72.0755 75.0312 71.9766 75.375C71.8828 75.7135 71.8359 76.0729 71.8359 76.4531ZM78.25 77.1797V76.375C78.25 75.7188 78.3333 75.1432 78.5 74.6484C78.6667 74.1484 78.8984 73.7318 79.1953 73.3984C79.4922 73.0651 79.8385 72.8151 80.2344 72.6484C80.6302 72.4766 81.0547 72.3906 81.5078 72.3906C81.9714 72.3906 82.401 72.4766 82.7969 72.6484C83.1927 72.8151 83.5391 73.0651 83.8359 73.3984C84.138 73.7318 84.3724 74.1484 84.5391 74.6484C84.7057 75.1432 84.7891 75.7188 84.7891 76.375V77.1797C84.7891 77.8359 84.7057 78.4141 84.5391 78.9141C84.3724 79.4089 84.1406 79.8229 83.8438 80.1562C83.5469 80.4896 83.2005 80.7396 82.8047 80.9062C82.4089 81.0729 81.9818 81.1562 81.5234 81.1562C81.0651 81.1562 80.638 81.0729 80.2422 80.9062C79.8464 80.7396 79.4974 80.4896 79.1953 80.1562C78.8984 79.8229 78.6667 79.4089 78.5 78.9141C78.3333 78.4141 78.25 77.8359 78.25 77.1797ZM79.6328 76.375V77.1797C79.6328 77.6432 79.6797 78.0495 79.7734 78.3984C79.8672 78.7474 80 79.0391 80.1719 79.2734C80.3438 79.5078 80.5443 79.6849 80.7734 79.8047C81.0026 79.9193 81.2526 79.9766 81.5234 79.9766C81.8359 79.9766 82.1094 79.9193 82.3438 79.8047C82.5833 79.6849 82.7812 79.5078 82.9375 79.2734C83.0938 79.0391 83.2109 78.7474 83.2891 78.3984C83.3672 78.0495 83.4062 77.6432 83.4062 77.1797V76.375C83.4062 75.9115 83.3594 75.5078 83.2656 75.1641C83.1719 74.8151 83.0391 74.5234 82.8672 74.2891C82.6953 74.0495 82.4922 73.8724 82.2578 73.7578C82.0286 73.638 81.7786 73.5781 81.5078 73.5781C81.2422 73.5781 80.9948 73.638 80.7656 73.7578C80.5365 73.8724 80.3359 74.0495 80.1641 74.2891C79.9974 74.5234 79.8672 74.8151 79.7734 75.1641C79.6797 75.5078 79.6328 75.9115 79.6328 76.375ZM88.6328 79.6953L90.4453 72.5469H91.8516L89.3438 81H88.4297L88.6328 79.6953ZM87.1719 72.5469L89.0625 79.7344L89.2109 81H88.3047L85.7656 72.5469H87.1719ZM97.3047 79.5547V74.9688C97.3047 74.6354 97.2526 74.3672 97.1484 74.1641C97.0495 73.9609 96.8984 73.8125 96.6953 73.7188C96.4974 73.625 96.2474 73.5781 95.9453 73.5781C95.6536 73.5781 95.401 73.638 95.1875 73.7578C94.9792 73.8776 94.8177 74.0365 94.7031 74.2344C94.5938 74.4323 94.5391 74.651 94.5391 74.8906H93.1562C93.1562 74.5885 93.2214 74.2891 93.3516 73.9922C93.487 73.6953 93.6797 73.4271 93.9297 73.1875C94.1797 72.9427 94.4792 72.75 94.8281 72.6094C95.1823 72.4635 95.5781 72.3906 96.0156 72.3906C96.5365 72.3906 96.9974 72.4766 97.3984 72.6484C97.7995 72.8151 98.1146 73.0885 98.3438 73.4688C98.5729 73.849 98.6875 74.3542 98.6875 74.9844V79.1562C98.6875 79.4375 98.7083 79.737 98.75 80.0547C98.7969 80.3724 98.862 80.6458 98.9453 80.875V81H97.5156C97.4479 80.8333 97.3958 80.612 97.3594 80.3359C97.3229 80.0547 97.3047 79.7943 97.3047 79.5547ZM97.5234 75.875L97.5391 76.8906H96.5781C96.25 76.8906 95.9505 76.9271 95.6797 77C95.4141 77.0729 95.1849 77.1797 94.9922 77.3203C94.7995 77.4557 94.651 77.625 94.5469 77.8281C94.4479 78.0312 94.3984 78.263 94.3984 78.5234C94.3984 78.862 94.4453 79.1328 94.5391 79.3359C94.6328 79.5339 94.7734 79.6771 94.9609 79.7656C95.1484 79.8542 95.3854 79.8984 95.6719 79.8984C96.0208 79.8984 96.3281 79.8177 96.5938 79.6562C96.8594 79.4948 97.0651 79.2995 97.2109 79.0703C97.362 78.8411 97.4323 78.6276 97.4219 78.4297L97.7266 79.0781C97.7057 79.2812 97.638 79.5026 97.5234 79.7422C97.4141 79.9766 97.2604 80.2031 97.0625 80.4219C96.8646 80.6354 96.6302 80.8125 96.3594 80.9531C96.0938 81.0885 95.7943 81.1562 95.4609 81.1562C94.9714 81.1562 94.5417 81.0625 94.1719 80.875C93.8073 80.6875 93.5234 80.4115 93.3203 80.0469C93.1172 79.6823 93.0156 79.2318 93.0156 78.6953C93.0156 78.2891 93.0859 77.9141 93.2266 77.5703C93.3672 77.2266 93.5755 76.9297 93.8516 76.6797C94.1276 76.4245 94.474 76.2266 94.8906 76.0859C95.3125 75.9453 95.7995 75.875 96.3516 75.875H97.5234ZM103.922 72.5469V73.6562H99.9766V72.5469H103.922ZM101.266 70.4922H102.648V78.9062C102.648 79.1927 102.682 79.4089 102.75 79.5547C102.823 79.7005 102.914 79.7969 103.023 79.8438C103.133 79.8906 103.25 79.9141 103.375 79.9141C103.469 79.9141 103.573 79.9036 103.688 79.8828C103.802 79.8568 103.88 79.8359 103.922 79.8203L103.914 81C103.82 81.0365 103.695 81.0703 103.539 81.1016C103.383 81.138 103.185 81.1562 102.945 81.1562C102.648 81.1562 102.372 81.0859 102.117 80.9453C101.862 80.8047 101.656 80.5703 101.5 80.2422C101.344 79.9089 101.266 79.4609 101.266 78.8984V70.4922ZM107.055 72.5469V81H105.68V72.5469H107.055ZM105.602 70.3047C105.602 70.0703 105.667 69.8724 105.797 69.7109C105.927 69.5495 106.122 69.4688 106.383 69.4688C106.643 69.4688 106.839 69.5495 106.969 69.7109C107.104 69.8724 107.172 70.0703 107.172 70.3047C107.172 70.5286 107.104 70.7214 106.969 70.8828C106.839 71.0391 106.643 71.1172 106.383 71.1172C106.122 71.1172 105.927 71.0391 105.797 70.8828C105.667 70.7214 105.602 70.5286 105.602 70.3047ZM111.43 79.6953L113.242 72.5469H114.648L112.141 81H111.227L111.43 79.6953ZM109.969 72.5469L111.859 79.7344L112.008 81H111.102L108.562 72.5469H109.969ZM119 81.1562C118.495 81.1562 118.039 81.0807 117.633 80.9297C117.227 80.7786 116.88 80.5495 116.594 80.2422C116.307 79.9297 116.089 79.5365 115.938 79.0625C115.786 78.5885 115.711 78.0286 115.711 77.3828V76.4297C115.711 75.6849 115.797 75.0547 115.969 74.5391C116.146 74.0234 116.383 73.6094 116.68 73.2969C116.977 72.9792 117.312 72.75 117.688 72.6094C118.062 72.4635 118.448 72.3906 118.844 72.3906C119.375 72.3906 119.828 72.4766 120.203 72.6484C120.578 72.8203 120.883 73.0755 121.117 73.4141C121.352 73.7526 121.523 74.1693 121.633 74.6641C121.747 75.1589 121.805 75.7292 121.805 76.375V77.1797H116.523V76H120.422V75.8047C120.401 75.3672 120.341 74.9818 120.242 74.6484C120.148 74.3151 119.992 74.0547 119.773 73.8672C119.555 73.6745 119.245 73.5781 118.844 73.5781C118.589 73.5781 118.352 73.6224 118.133 73.7109C117.919 73.7943 117.734 73.9427 117.578 74.1562C117.427 74.3646 117.307 74.6536 117.219 75.0234C117.135 75.3932 117.094 75.862 117.094 76.4297V77.3828C117.094 77.8359 117.135 78.2266 117.219 78.5547C117.307 78.8776 117.435 79.1458 117.602 79.3594C117.773 79.5677 117.982 79.724 118.227 79.8281C118.477 79.9271 118.76 79.9766 119.078 79.9766C119.542 79.9766 119.924 79.888 120.227 79.7109C120.529 79.5286 120.792 79.2969 121.016 79.0156L121.742 79.8828C121.591 80.0964 121.393 80.3021 121.148 80.5C120.909 80.6927 120.612 80.8516 120.258 80.9766C119.909 81.0964 119.49 81.1562 119 81.1562ZM133.031 77.3828H134.469C134.432 78.1641 134.273 78.8385 133.992 79.4062C133.716 79.9688 133.312 80.401 132.781 80.7031C132.255 81.0052 131.596 81.1562 130.805 81.1562C130.237 81.1562 129.724 81.0443 129.266 80.8203C128.807 80.5964 128.414 80.276 128.086 79.8594C127.763 79.4375 127.516 78.9323 127.344 78.3438C127.172 77.7552 127.086 77.0938 127.086 76.3594V74.2578C127.086 73.5286 127.172 72.8698 127.344 72.2812C127.521 71.6927 127.773 71.1901 128.102 70.7734C128.435 70.3516 128.839 70.0286 129.312 69.8047C129.792 69.5807 130.333 69.4688 130.938 69.4688C131.677 69.4688 132.302 69.6172 132.812 69.9141C133.328 70.2057 133.724 70.6354 134 71.2031C134.281 71.7656 134.438 72.4557 134.469 73.2734H133.031C132.995 72.6745 132.901 72.1875 132.75 71.8125C132.599 71.4323 132.375 71.1536 132.078 70.9766C131.786 70.7943 131.406 70.7031 130.938 70.7031C130.521 70.7031 130.159 70.7865 129.852 70.9531C129.549 71.1198 129.299 71.3594 129.102 71.6719C128.909 71.9792 128.763 72.3516 128.664 72.7891C128.57 73.2214 128.523 73.7057 128.523 74.2422V76.3594C128.523 76.8594 128.562 77.3255 128.641 77.7578C128.724 78.1901 128.854 78.5703 129.031 78.8984C129.214 79.2214 129.451 79.474 129.742 79.6562C130.034 79.8385 130.388 79.9297 130.805 79.9297C131.331 79.9297 131.747 79.8438 132.055 79.6719C132.362 79.5 132.589 79.2266 132.734 78.8516C132.885 78.4766 132.984 77.987 133.031 77.3828ZM139.25 81.1562C138.745 81.1562 138.289 81.0807 137.883 80.9297C137.477 80.7786 137.13 80.5495 136.844 80.2422C136.557 79.9297 136.339 79.5365 136.188 79.0625C136.036 78.5885 135.961 78.0286 135.961 77.3828V76.4297C135.961 75.6849 136.047 75.0547 136.219 74.5391C136.396 74.0234 136.633 73.6094 136.93 73.2969C137.227 72.9792 137.562 72.75 137.938 72.6094C138.312 72.4635 138.698 72.3906 139.094 72.3906C139.625 72.3906 140.078 72.4766 140.453 72.6484C140.828 72.8203 141.133 73.0755 141.367 73.4141C141.602 73.7526 141.773 74.1693 141.883 74.6641C141.997 75.1589 142.055 75.7292 142.055 76.375V77.1797H136.773V76H140.672V75.8047C140.651 75.3672 140.591 74.9818 140.492 74.6484C140.398 74.3151 140.242 74.0547 140.023 73.8672C139.805 73.6745 139.495 73.5781 139.094 73.5781C138.839 73.5781 138.602 73.6224 138.383 73.7109C138.169 73.7943 137.984 73.9427 137.828 74.1562C137.677 74.3646 137.557 74.6536 137.469 75.0234C137.385 75.3932 137.344 75.862 137.344 76.4297V77.3828C137.344 77.8359 137.385 78.2266 137.469 78.5547C137.557 78.8776 137.685 79.1458 137.852 79.3594C138.023 79.5677 138.232 79.724 138.477 79.8281C138.727 79.9271 139.01 79.9766 139.328 79.9766C139.792 79.9766 140.174 79.888 140.477 79.7109C140.779 79.5286 141.042 79.2969 141.266 79.0156L141.992 79.8828C141.841 80.0964 141.643 80.3021 141.398 80.5C141.159 80.6927 140.862 80.8516 140.508 80.9766C140.159 81.0964 139.74 81.1562 139.25 81.1562ZM145.109 74.3516V81H143.727V72.5469H145.031L145.109 74.3516ZM144.773 76.4531L144.211 76.4297C144.206 75.8516 144.271 75.3177 144.406 74.8281C144.547 74.3333 144.745 73.9036 145 73.5391C145.26 73.1745 145.57 72.8932 145.93 72.6953C146.289 72.4922 146.688 72.3906 147.125 72.3906C147.469 72.3906 147.781 72.4479 148.062 72.5625C148.344 72.6719 148.583 72.849 148.781 73.0938C148.979 73.3385 149.13 73.6562 149.234 74.0469C149.344 74.4323 149.398 74.9036 149.398 75.4609V81H148.016V75.4453C148.016 75.0026 147.966 74.6484 147.867 74.3828C147.773 74.112 147.628 73.9167 147.43 73.7969C147.237 73.6719 146.992 73.6094 146.695 73.6094C146.424 73.6094 146.172 73.6849 145.938 73.8359C145.703 73.987 145.497 74.1953 145.32 74.4609C145.148 74.7266 145.013 75.0312 144.914 75.375C144.82 75.7135 144.773 76.0729 144.773 76.4531ZM154.562 72.5469V73.6562H150.617V72.5469H154.562ZM151.906 70.4922H153.289V78.9062C153.289 79.1927 153.323 79.4089 153.391 79.5547C153.464 79.7005 153.555 79.7969 153.664 79.8438C153.773 79.8906 153.891 79.9141 154.016 79.9141C154.109 79.9141 154.214 79.9036 154.328 79.8828C154.443 79.8568 154.521 79.8359 154.562 79.8203L154.555 81C154.461 81.0365 154.336 81.0703 154.18 81.1016C154.023 81.138 153.826 81.1562 153.586 81.1562C153.289 81.1562 153.013 81.0859 152.758 80.9453C152.503 80.8047 152.297 80.5703 152.141 80.2422C151.984 79.9089 151.906 79.4609 151.906 78.8984V70.4922ZM159.234 81.1562C158.729 81.1562 158.273 81.0807 157.867 80.9297C157.461 80.7786 157.115 80.5495 156.828 80.2422C156.542 79.9297 156.323 79.5365 156.172 79.0625C156.021 78.5885 155.945 78.0286 155.945 77.3828V76.4297C155.945 75.6849 156.031 75.0547 156.203 74.5391C156.38 74.0234 156.617 73.6094 156.914 73.2969C157.211 72.9792 157.547 72.75 157.922 72.6094C158.297 72.4635 158.682 72.3906 159.078 72.3906C159.609 72.3906 160.062 72.4766 160.438 72.6484C160.812 72.8203 161.117 73.0755 161.352 73.4141C161.586 73.7526 161.758 74.1693 161.867 74.6641C161.982 75.1589 162.039 75.7292 162.039 76.375V77.1797H156.758V76H160.656V75.8047C160.635 75.3672 160.576 74.9818 160.477 74.6484C160.383 74.3151 160.227 74.0547 160.008 73.8672C159.789 73.6745 159.479 73.5781 159.078 73.5781C158.823 73.5781 158.586 73.6224 158.367 73.7109C158.154 73.7943 157.969 73.9427 157.812 74.1562C157.661 74.3646 157.542 74.6536 157.453 75.0234C157.37 75.3932 157.328 75.862 157.328 76.4297V77.3828C157.328 77.8359 157.37 78.2266 157.453 78.5547C157.542 78.8776 157.669 79.1458 157.836 79.3594C158.008 79.5677 158.216 79.724 158.461 79.8281C158.711 79.9271 158.995 79.9766 159.312 79.9766C159.776 79.9766 160.159 79.888 160.461 79.7109C160.763 79.5286 161.026 79.2969 161.25 79.0156L161.977 79.8828C161.826 80.0964 161.628 80.3021 161.383 80.5C161.143 80.6927 160.846 80.8516 160.492 80.9766C160.143 81.0964 159.724 81.1562 159.234 81.1562ZM165.094 73.875V81H163.711V72.5469H165.047L165.094 73.875ZM167.195 72.5L167.203 73.8438C167.089 73.8177 166.984 73.8021 166.891 73.7969C166.802 73.7865 166.698 73.7812 166.578 73.7812C166.318 73.7812 166.089 73.8333 165.891 73.9375C165.698 74.0417 165.531 74.1875 165.391 74.375C165.25 74.5625 165.138 74.7865 165.055 75.0469C164.971 75.3021 164.914 75.5833 164.883 75.8906L164.523 76.125C164.523 75.6146 164.562 75.1354 164.641 74.6875C164.724 74.2396 164.852 73.8438 165.023 73.5C165.195 73.151 165.414 72.8802 165.68 72.6875C165.951 72.4896 166.273 72.3906 166.648 72.3906C166.732 72.3906 166.833 72.4036 166.953 72.4297C167.078 72.4505 167.159 72.474 167.195 72.5Z" fill="white"/>
<path d="M17.3765 47.4458L17.3765 88.8816" stroke="black" stroke-width="0.6"/>
<path d="M17.3765 28.0645L17.3765 47.4457" stroke="black" stroke-width="0.6"/>
<path d="M16.7081 4.00488L17.3765 28.0644" stroke="black" stroke-width="0.6"/>
<path d="M13.3666 45.1065C13.3666 45.1065 12.5741 60.3466 10.5278 68.4482C9.1265 73.9958 5.70796 82.2375 5.70796 82.2375" stroke="black" stroke-width="0.6"/>
<path d="M7.88919 60.3801C7.88919 60.3801 7.70663 63.1749 6.61715 66.2146C5.42094 69.5521 2.08385 73.9909 2.08385 73.9909" stroke="black" stroke-width="0.6"/>
<path d="M12.3572 55.6196L7.88941 60.8443" stroke="black" stroke-width="0.6"/>
<path d="M21.1773 59.224C21.1773 59.224 20.8138 61.3039 22.8601 69.4055C24.9065 77.5071 30.3798 85.3591 30.3798 85.3591" stroke="black" stroke-width="0.6"/>
<line y1="-0.3" x2="5.26199" y2="-0.3" transform="matrix(0.68595 0.727649 0.68595 -0.727649 17.6709 55.5776)" stroke="black" stroke-width="0.6"/>
<path d="M21.5979 63.4314L26.6467 65.1143" stroke="black" stroke-width="0.6"/>
<path d="M26.6465 65.1144C27.9087 68.1998 29.1253 69.0463 30.7136 71.5657" stroke="black" stroke-width="0.6"/>
<path d="M10.6737 22.3261C10.6736 33.4936 11.2276 45.0152 8.81755 55.2753" stroke="black" stroke-width="0.6"/>
<path d="M13.2304 15.8011C13.5354 26.6495 14.3063 30.8862 13.7005 41.0966" stroke="black" stroke-width="0.6"/>
<path d="M23.0929 20.1958C23.0036 31.0487 23.0929 53.0134 26.9572 60.9834" stroke="black" stroke-width="0.6"/>
<path d="M20.0854 10.0578C19.9962 20.9106 20.5386 42.7604 21.3473 52.9549" stroke="black" stroke-width="0.6"/>
<path d="M6.31725 82.8066C6.31725 83.3627 5.89646 83.7829 5.41409 83.7829C4.93173 83.7829 4.51094 83.3627 4.51094 82.8066C4.51094 82.2505 4.93173 81.8303 5.41409 81.8303C5.89646 81.8303 6.31725 82.2505 6.31725 82.8066Z" stroke="black" stroke-width="0.6"/>
<path d="M32.1854 72.5962C32.1854 73.1524 31.7646 73.5725 31.2823 73.5725C30.7999 73.5725 30.3791 73.1524 30.3791 72.5962C30.3791 72.0401 30.7999 71.6199 31.2823 71.6199C31.7646 71.6199 32.1854 72.0401 32.1854 72.5962Z" stroke="black" stroke-width="0.6"/>
<path d="M9.39414 55.7685C9.39414 56.1484 9.10802 56.4257 8.79177 56.4257C8.47553 56.4257 8.1894 56.1484 8.1894 55.7685C8.1894 55.3886 8.47553 55.1113 8.79177 55.1113C9.10802 55.1113 9.39414 55.3886 9.39414 55.7685Z" stroke="black" stroke-width="0.6"/>
<path d="M21.9242 53.4481C21.9242 53.828 21.638 54.1053 21.3218 54.1053C21.0056 54.1053 20.7194 53.828 20.7194 53.4481C20.7194 53.0682 21.0056 52.7908 21.3218 52.7908C21.638 52.7908 21.9242 53.0682 21.9242 53.4481Z" stroke="black" stroke-width="0.6"/>
<path d="M14.203 41.7198C14.203 42.0997 13.9169 42.377 13.6006 42.377C13.2844 42.377 12.9982 42.0997 12.9982 41.7198C12.9982 41.3399 13.2844 41.0626 13.6006 41.0626C13.9169 41.0626 14.203 41.3399 14.203 41.7198Z" fill="black" stroke="black" stroke-width="0.6"/>
<path d="M27.7591 61.4716C27.7591 61.8515 27.473 62.1288 27.1568 62.1288C26.8405 62.1288 26.5544 61.8515 26.5544 61.4716C26.5544 61.0917 26.8405 60.8144 27.1568 60.8144C27.473 60.8144 27.7591 61.0917 27.7591 61.4716Z" fill="black" stroke="black" stroke-width="0.6"/>
<path d="M31.5838 85.6782C31.5838 86.0581 31.2977 86.3354 30.9815 86.3354C30.6652 86.3354 30.3791 86.0581 30.3791 85.6782C30.3791 85.2983 30.6652 85.0209 30.9815 85.0209C31.2977 85.0209 31.5838 85.2983 31.5838 85.6782Z" fill="black" stroke="black" stroke-width="0.6"/>
<path d="M18.0474 89.1881C18.0474 89.8929 17.5088 90.4643 16.8443 90.4643C16.1798 90.4643 15.6411 89.8929 15.6411 89.1881C15.6411 88.4832 16.1798 87.9118 16.8443 87.9118C17.5088 87.9118 18.0474 88.4832 18.0474 89.1881Z" fill="black"/>
<ellipse cx="1.20316" cy="74.5107" rx="1.20316" ry="1.27629" fill="black"/>
<path d="M7.18046 19.5816C8.72022 20.6709 8.8359 20.0621 9.84034 20.6709C10.8448 21.2798 10.4143 22.8019 10.4143 22.8019" stroke="black" stroke-width="0.6"/>
<path d="M7.18046 19.5816C8.72022 20.6709 8.8359 20.0621 9.84034 20.6709C10.8448 21.2798 10.4143 22.8019 10.4143 22.8019" stroke="black" stroke-width="0.6"/>
<path d="M7.18046 19.5816C8.72022 20.6709 8.8359 20.0621 9.84034 20.6709C10.8448 21.2798 10.4143 22.8019 10.4143 22.8019" stroke="black" stroke-width="0.6"/>
<path d="M7.25776 19.6056C7.25782 21.5844 8.62621 22.8021 10.4145 22.8021" stroke="black" stroke-width="0.6"/>
<path d="M7.25776 19.6056C7.25782 21.5844 8.62621 22.8021 10.4145 22.8021" stroke="black" stroke-width="0.6"/>
<path d="M7.25776 19.6056C7.25782 21.5844 8.62621 22.8021 10.4145 22.8021" stroke="black" stroke-width="0.6"/>
<path d="M10.0406 12.5287C11.5803 13.618 11.696 13.0091 12.7004 13.618C13.7049 14.2268 13.2744 15.749 13.2744 15.749" stroke="black" stroke-width="0.6"/>
<path d="M10.0406 12.5287C11.5803 13.618 11.696 13.0091 12.7004 13.618C13.7049 14.2268 13.2744 15.749 13.2744 15.749" stroke="black" stroke-width="0.6"/>
<path d="M10.0406 12.5287C11.5803 13.618 11.696 13.0091 12.7004 13.618C13.7049 14.2268 13.2744 15.749 13.2744 15.749" stroke="black" stroke-width="0.6"/>
<path d="M10.1171 12.5525C10.1172 14.5313 11.4856 15.749 13.2739 15.749" stroke="black" stroke-width="0.6"/>
<path d="M10.1171 12.5525C10.1172 14.5313 11.4856 15.749 13.2739 15.749" stroke="black" stroke-width="0.6"/>
<path d="M10.1171 12.5525C10.1172 14.5313 11.4856 15.749 13.2739 15.749" stroke="black" stroke-width="0.6"/>
<path d="M26.2375 17.5816C24.6977 18.6709 24.5821 18.0621 23.5776 18.6709C22.5732 19.2798 23.0037 20.8019 23.0037 20.8019" stroke="black" stroke-width="0.6"/>
<path d="M26.2375 17.5816C24.6977 18.6709 24.5821 18.0621 23.5776 18.6709C22.5732 19.2798 23.0037 20.8019 23.0037 20.8019" stroke="black" stroke-width="0.6"/>
<path d="M26.2375 17.5816C24.6977 18.6709 24.5821 18.0621 23.5776 18.6709C22.5732 19.2798 23.0037 20.8019 23.0037 20.8019" stroke="black" stroke-width="0.6"/>
<path d="M26.1605 17.6053C26.1604 19.5841 24.792 20.8018 23.0037 20.8018" stroke="black" stroke-width="0.6"/>
<path d="M26.1605 17.6053C26.1604 19.5841 24.792 20.8018 23.0037 20.8018" stroke="black" stroke-width="0.6"/>
<path d="M26.1605 17.6053C26.1604 19.5841 24.792 20.8018 23.0037 20.8018" stroke="black" stroke-width="0.6"/>
<path d="M23.2295 7.37106C21.6897 8.46037 21.574 7.85151 20.5696 8.46037C19.5651 9.06922 19.9956 10.5914 19.9956 10.5914" stroke="black" stroke-width="0.6"/>
<path d="M23.2295 7.37106C21.6897 8.46037 21.574 7.85151 20.5696 8.46037C19.5651 9.06922 19.9956 10.5914 19.9956 10.5914" stroke="black" stroke-width="0.6"/>
<path d="M23.2295 7.37106C21.6897 8.46037 21.574 7.85151 20.5696 8.46037C19.5651 9.06922 19.9956 10.5914 19.9956 10.5914" stroke="black" stroke-width="0.6"/>
<path d="M23.1526 7.39501C23.1526 9.3738 21.7842 10.5915 19.9959 10.5915" stroke="black" stroke-width="0.6"/>
<path d="M23.1526 7.39501C23.1526 9.3738 21.7842 10.5915 19.9959 10.5915" stroke="black" stroke-width="0.6"/>
<path d="M23.1526 7.39501C23.1526 9.3738 21.7842 10.5915 19.9959 10.5915" stroke="black" stroke-width="0.6"/>
<path d="M20.0192 2.504C18.4795 3.5933 18.3638 2.98444 17.3594 3.5933C16.3549 4.20216 16.7854 5.7243 16.7854 5.7243" stroke="black" stroke-width="0.6"/>
<path d="M20.0192 2.504C18.4795 3.5933 18.3638 2.98444 17.3594 3.5933C16.3549 4.20216 16.7854 5.7243 16.7854 5.7243" stroke="black" stroke-width="0.6"/>
<path d="M20.0192 2.504C18.4795 3.5933 18.3638 2.98444 17.3594 3.5933C16.3549 4.20216 16.7854 5.7243 16.7854 5.7243" stroke="black" stroke-width="0.6"/>
<path d="M19.9422 2.52794C19.9421 4.50673 18.5737 5.72443 16.7854 5.72445" stroke="black" stroke-width="0.6"/>
<path d="M19.9422 2.52794C19.9421 4.50673 18.5737 5.72443 16.7854 5.72445" stroke="black" stroke-width="0.6"/>
<path d="M19.9422 2.52794C19.9421 4.50673 18.5737 5.72443 16.7854 5.72445" stroke="black" stroke-width="0.6"/>
<path d="M13.9074 7.07721C15.1259 7.93927 15.2175 7.45743 16.0124 7.93927C16.8073 8.4211 16.4666 9.6257 16.4666 9.6257" stroke="black" stroke-width="0.6"/>
<path d="M13.9074 7.07721C15.1259 7.93927 15.2175 7.45743 16.0124 7.93927C16.8073 8.4211 16.4666 9.6257 16.4666 9.6257" stroke="black" stroke-width="0.6"/>
<path d="M13.9074 7.07721C15.1259 7.93927 15.2175 7.45743 16.0124 7.93927C16.8073 8.4211 16.4666 9.6257 16.4666 9.6257" stroke="black" stroke-width="0.6"/>
<path d="M13.9684 7.09628C13.9684 8.66225 15.0514 9.62591 16.4666 9.62593" stroke="black" stroke-width="0.6"/>
<path d="M13.9684 7.09628C13.9684 8.66225 15.0514 9.62591 16.4666 9.62593" stroke="black" stroke-width="0.6"/>
<path d="M13.9684 7.09628C13.9684 8.66225 15.0514 9.62591 16.4666 9.62593" stroke="black" stroke-width="0.6"/>
<rect x="37" y="47" width="146" height="1" fill="black"/>
</svg>
