<svg width="133" height="133" viewBox="0 0 133 133" fill="none" xmlns="http://www.w3.org/2000/svg">
<path d="M0.789062 37.875H11.7344C14.0156 37.875 15.9609 38.2656 17.5703 39.0469C19.1797 39.8281 20.4141 40.9844 21.2734 42.5156C22.1328 44.0469 22.5625 45.9375 22.5625 48.1875C22.5625 50.0312 22.3125 51.6094 21.8125 52.9219C21.3125 54.2188 20.6016 55.3047 19.6797 56.1797C18.7578 57.0391 17.6562 57.7266 16.375 58.2422L14.2891 59.4844H5.40625L5.38281 53.7891H11.5469C12.4844 53.7891 13.2578 53.5859 13.8672 53.1797C14.4922 52.7578 14.9531 52.1719 15.25 51.4219C15.5625 50.6562 15.7188 49.7656 15.7188 48.75C15.7188 47.6719 15.5781 46.75 15.2969 45.9844C15.0312 45.2031 14.6016 44.6094 14.0078 44.2031C13.4297 43.7812 12.6719 43.5703 11.7344 43.5703H7.65625V72H0.789062V37.875ZM16.2812 72L10.0234 56.7891L17.2188 56.7656L23.6172 71.6719V72H16.2812ZM39.6953 43.9688L32.3594 72H25.1172L35.7812 37.875H40.3047L39.6953 43.9688ZM45.4844 72L38.1016 43.9688L37.4219 37.875H42.0156L52.7734 72H45.4844ZM45.7422 59.2734V64.9688H30.3438V59.2734H45.7422ZM64.9375 72H58.9141L58.9609 66.3281H64.9375C66.5938 66.3281 67.8828 66.0312 68.8047 65.4375C69.7266 64.8438 70.375 63.9062 70.75 62.625C71.1406 61.3438 71.3359 59.6641 71.3359 57.5859V52.2656C71.3359 50.6875 71.2344 49.3516 71.0312 48.2578C70.8281 47.1484 70.4844 46.2578 70 45.5859C69.5156 44.8984 68.8672 44.3906 68.0547 44.0625C67.2422 43.7344 66.2344 43.5703 65.0312 43.5703H58.7969V37.875H65.0312C67 37.875 68.7891 38.1953 70.3984 38.8359C72.0078 39.4766 73.3906 40.4141 74.5469 41.6484C75.7031 42.8672 76.5938 44.375 77.2188 46.1719C77.8438 47.9688 78.1562 50.0156 78.1562 52.3125V57.5859C78.1562 59.8984 77.8438 61.9453 77.2188 63.7266C76.5938 65.5078 75.7031 67.0156 74.5469 68.25C73.4062 69.4688 72.0234 70.3984 70.3984 71.0391C68.7734 71.6797 66.9531 72 64.9375 72ZM62.8984 37.875V72H56.0312V37.875H62.8984Z" fill="black"/>
<path d="M82 68L82 130" stroke="black"/>
<path d="M82 39L82 68" stroke="black"/>
<path d="M81 3L82 35" stroke="black"/>
<path d="M76 64.5001C76 64.5001 74.8142 87.3036 71.7523 99.426C69.6556 107.727 64.5405 120.059 64.5405 120.059" stroke="black"/>
<path d="M67.8047 87.3537C67.8047 87.3537 67.5315 91.5356 65.9013 96.0839C64.1114 101.078 59.1182 107.719 59.1182 107.719" stroke="black"/>
<path d="M74.4897 80.2305L67.8047 88.0481" stroke="black"/>
<path d="M87.6872 85.6238C87.6872 85.6238 87.1432 88.7359 90.2052 100.858C93.2671 112.981 101.457 124.73 101.457 124.73" stroke="black"/>
<line y1="-0.5" x2="7.87347" y2="-0.5" transform="matrix(0.68595 0.727649 0.68595 -0.727649 82.4407 80.1678)" stroke="black"/>
<path d="M88.3167 91.9192L95.8712 94.4374" stroke="black"/>
<path d="M95.8711 94.4374C97.7597 99.054 99.5801 100.321 101.957 104.09" stroke="black"/>
<path d="M71.9708 30.4138C71.9706 47.1237 72.7996 64.3634 69.1934 79.7155" stroke="black"/>
<path d="M75.7966 20.6506C76.2529 36.8831 76.7029 45.9542 75.7965 61.2318" stroke="black"/>
<path d="M90.5537 27.2261C90.4201 43.4653 90.5537 76.3308 96.3358 88.2562" stroke="black"/>
<path d="M86.0538 12.0569C85.9203 28.296 86.732 60.9896 87.942 76.2435" stroke="black"/>
<path d="M65.4016 120.91C65.4016 121.717 64.792 122.32 64.1013 122.32C63.4106 122.32 62.801 121.717 62.801 120.91C62.801 120.103 63.4106 119.5 64.1013 119.5C64.792 119.5 65.4016 120.103 65.4016 120.91Z" stroke="black"/>
<path d="M104.107 105.632C104.107 106.439 103.498 107.042 102.807 107.042C102.116 107.042 101.507 106.439 101.507 105.632C101.507 104.826 102.116 104.223 102.807 104.223C103.498 104.223 104.107 104.826 104.107 105.632Z" stroke="black"/>
<circle cx="81.6924" cy="36.6634" r="2.27756" fill="white" stroke="black"/>
<path d="M70.0051 80.4534C70.0051 80.9965 69.5971 81.3857 69.1549 81.3857C68.7127 81.3857 68.3047 80.9965 68.3047 80.4534C68.3047 79.9103 68.7127 79.5211 69.1549 79.5211C69.5971 79.5211 70.0051 79.9103 70.0051 80.4534Z" stroke="black"/>
<path d="M88.7536 76.9815C88.7536 77.5246 88.3456 77.9138 87.9034 77.9138C87.4613 77.9138 87.0532 77.5246 87.0532 76.9815C87.0532 76.4384 87.4613 76.0492 87.9034 76.0492C88.3456 76.0492 88.7536 76.4384 88.7536 76.9815Z" stroke="black"/>
<path d="M76.2031 62.1869C76.2031 62.73 75.7951 63.1191 75.3529 63.1191C74.9107 63.1191 74.5027 62.73 74.5027 62.1869C74.5027 61.6438 74.9107 61.2546 75.3529 61.2546C75.7951 61.2546 76.2031 61.6438 76.2031 62.1869Z" fill="black" stroke="black"/>
<path d="M97.4843 88.987C97.4843 89.5301 97.0763 89.9192 96.6341 89.9192C96.192 89.9192 95.7839 89.5301 95.7839 88.987C95.7839 88.4439 96.192 88.0547 96.6341 88.0547C97.0763 88.0547 97.4843 88.4439 97.4843 88.987Z" fill="black" stroke="black"/>
<path d="M103.207 125.207C103.207 125.75 102.799 126.139 102.357 126.139C101.915 126.139 101.507 125.75 101.507 125.207C101.507 124.664 101.915 124.275 102.357 124.275C102.799 124.275 103.207 124.664 103.207 125.207Z" fill="black" stroke="black"/>
<path d="M83.0039 130.459C83.0039 131.513 82.1979 132.368 81.2036 132.368C80.2093 132.368 79.4033 131.513 79.4033 130.459C79.4033 129.404 80.2093 128.549 81.2036 128.549C82.1979 128.549 83.0039 129.404 83.0039 130.459Z" fill="black"/>
<ellipse cx="57.8003" cy="108.497" rx="1.80027" ry="1.90971" fill="black"/>
<path d="M66.7445 26.3074C69.0484 27.9374 69.2215 27.0263 70.7245 27.9374C72.2274 28.8484 71.5833 31.1259 71.5833 31.1259" stroke="black"/>
<path d="M66.7445 26.3074C69.0484 27.9374 69.2215 27.0263 70.7245 27.9374C72.2274 28.8484 71.5833 31.1259 71.5833 31.1259" stroke="black"/>
<path d="M66.7445 26.3074C69.0484 27.9374 69.2215 27.0263 70.7245 27.9374C72.2274 28.8484 71.5833 31.1259 71.5833 31.1259" stroke="black"/>
<path d="M66.8598 26.3431C66.8599 29.3039 68.9074 31.1259 71.5832 31.126" stroke="black"/>
<path d="M66.8598 26.3431C66.8599 29.3039 68.9074 31.1259 71.5832 31.126" stroke="black"/>
<path d="M66.8598 26.3431C66.8599 29.3039 68.9074 31.1259 71.5832 31.126" stroke="black"/>
<path d="M71.0233 15.7542C73.3273 17.3841 73.5003 16.4731 75.0033 17.3841C76.5062 18.2952 75.8621 20.5727 75.8621 20.5727" stroke="black"/>
<path d="M71.0233 15.7542C73.3273 17.3841 73.5003 16.4731 75.0033 17.3841C76.5062 18.2952 75.8621 20.5727 75.8621 20.5727" stroke="black"/>
<path d="M71.0233 15.7542C73.3273 17.3841 73.5003 16.4731 75.0033 17.3841C76.5062 18.2952 75.8621 20.5727 75.8621 20.5727" stroke="black"/>
<path d="M71.1383 15.7898C71.1384 18.7506 73.1859 20.5727 75.8618 20.5727" stroke="black"/>
<path d="M71.1383 15.7898C71.1384 18.7506 73.1859 20.5727 75.8618 20.5727" stroke="black"/>
<path d="M71.1383 15.7898C71.1384 18.7506 73.1859 20.5727 75.8618 20.5727" stroke="black"/>
<path d="M95.2592 23.3144C92.9552 24.9443 92.7821 24.0333 91.2792 24.9443C89.7763 25.8553 90.4204 28.1329 90.4204 28.1329" stroke="black"/>
<path d="M95.2592 23.3144C92.9552 24.9443 92.7821 24.0333 91.2792 24.9443C89.7763 25.8553 90.4204 28.1329 90.4204 28.1329" stroke="black"/>
<path d="M95.2592 23.3144C92.9552 24.9443 92.7821 24.0333 91.2792 24.9443C89.7763 25.8553 90.4204 28.1329 90.4204 28.1329" stroke="black"/>
<path d="M95.1439 23.35C95.1438 26.3109 93.0963 28.1329 90.4204 28.1329" stroke="black"/>
<path d="M95.1439 23.35C95.1438 26.3109 93.0963 28.1329 90.4204 28.1329" stroke="black"/>
<path d="M95.1439 23.35C95.1438 26.3109 93.0963 28.1329 90.4204 28.1329" stroke="black"/>
<path d="M90.7582 8.03669C88.4542 9.6666 88.2812 8.75558 86.7782 9.6666C85.2753 10.5776 85.9194 12.8552 85.9194 12.8552" stroke="black"/>
<path d="M90.7582 8.03669C88.4542 9.6666 88.2812 8.75558 86.7782 9.6666C85.2753 10.5776 85.9194 12.8552 85.9194 12.8552" stroke="black"/>
<path d="M90.7582 8.03669C88.4542 9.6666 88.2812 8.75558 86.7782 9.6666C85.2753 10.5776 85.9194 12.8552 85.9194 12.8552" stroke="black"/>
<path d="M90.6432 8.07244C90.6431 11.0333 88.5956 12.8553 85.9197 12.8553" stroke="black"/>
<path d="M90.6432 8.07244C90.6431 11.0333 88.5956 12.8553 85.9197 12.8553" stroke="black"/>
<path d="M90.6432 8.07244C90.6431 11.0333 88.5956 12.8553 85.9197 12.8553" stroke="black"/>
<path d="M85.954 0.754155C83.65 2.38407 83.477 1.47305 81.974 2.38407C80.4711 3.2951 81.1152 5.57266 81.1152 5.57266" stroke="black"/>
<path d="M85.954 0.754155C83.65 2.38407 83.477 1.47305 81.974 2.38407C80.4711 3.2951 81.1152 5.57266 81.1152 5.57266" stroke="black"/>
<path d="M85.954 0.754155C83.65 2.38407 83.477 1.47305 81.974 2.38407C80.4711 3.2951 81.1152 5.57266 81.1152 5.57266" stroke="black"/>
<path d="M85.839 0.789909C85.8389 3.75075 83.7914 5.57278 81.1155 5.5728" stroke="black"/>
<path d="M85.839 0.789909C85.8389 3.75075 83.7914 5.57278 81.1155 5.5728" stroke="black"/>
<path d="M85.839 0.789909C85.8389 3.75075 83.7914 5.57278 81.1155 5.5728" stroke="black"/>
<path d="M76.8099 7.59693C78.6332 8.88681 78.7701 8.16584 79.9595 8.88681C81.1489 9.60778 80.6392 11.4102 80.6392 11.4102" stroke="black"/>
<path d="M76.8099 7.59693C78.6332 8.88681 78.7701 8.16584 79.9595 8.88681C81.1489 9.60778 80.6392 11.4102 80.6392 11.4102" stroke="black"/>
<path d="M76.8099 7.59693C78.6332 8.88681 78.7701 8.16584 79.9595 8.88681C81.1489 9.60778 80.6392 11.4102 80.6392 11.4102" stroke="black"/>
<path d="M76.901 7.62525C76.9011 9.9684 78.5215 11.4103 80.6391 11.4103" stroke="black"/>
<path d="M76.901 7.62525C76.9011 9.9684 78.5215 11.4103 80.6391 11.4103" stroke="black"/>
<path d="M76.901 7.62525C76.9011 9.9684 78.5215 11.4103 80.6391 11.4103" stroke="black"/>
<path d="M102.031 60.6328H108.852C108.758 63.1953 108.242 65.3594 107.305 67.125C106.367 68.875 105.031 70.2031 103.297 71.1094C101.578 72.0156 99.5 72.4688 97.0625 72.4688C95.1719 72.4688 93.4922 72.1562 92.0234 71.5312C90.5547 70.8906 89.3047 69.9531 88.2734 68.7188C87.2422 67.4844 86.4609 65.9609 85.9297 64.1484C85.4141 62.3203 85.1562 60.2188 85.1562 57.8438V52.0547C85.1562 49.6797 85.4297 47.5781 85.9766 45.75C86.5391 43.9219 87.3359 42.3906 88.3672 41.1562C89.4141 39.9062 90.6719 38.9688 92.1406 38.3438C93.625 37.7031 95.2969 37.3828 97.1562 37.3828C99.6406 37.3828 101.719 37.8516 103.391 38.7891C105.062 39.7266 106.352 41.0938 107.258 42.8906C108.18 44.6719 108.734 46.8516 108.922 49.4297H102.078C102.031 47.8047 101.844 46.5312 101.516 45.6094C101.203 44.6719 100.703 44.0156 100.016 43.6406C99.3281 43.25 98.375 43.0547 97.1562 43.0547C96.25 43.0547 95.4688 43.2188 94.8125 43.5469C94.1562 43.8594 93.6172 44.3672 93.1953 45.0703C92.7734 45.7734 92.4609 46.6953 92.2578 47.8359C92.0703 48.9766 91.9766 50.3672 91.9766 52.0078V57.8438C91.9766 59.4531 92.0625 60.8281 92.2344 61.9688C92.4062 63.0938 92.6797 64.0156 93.0547 64.7344C93.4297 65.4531 93.9375 65.9766 94.5781 66.3047C95.2344 66.6328 96.0625 66.7969 97.0625 66.7969C98.2188 66.7969 99.1484 66.625 99.8516 66.2812C100.57 65.9375 101.102 65.3203 101.445 64.4297C101.789 63.5391 101.984 62.2734 102.031 60.6328ZM132.711 66.3281V72H117.875V66.3281H132.711ZM120.008 37.875V72H113.141V37.875H120.008ZM130.719 51.7031V57.2109H117.875V51.7031H130.719ZM132.664 37.875V43.5703H117.875V37.875H132.664Z" fill="black"/>
</svg>
