<svg width="182" height="89" viewBox="0 0 182 89" fill="none" xmlns="http://www.w3.org/2000/svg">
<path d="M38.7891 24.875H49.7344C52.0156 24.875 53.9609 25.2656 55.5703 26.0469C57.1797 26.8281 58.4141 27.9844 59.2734 29.5156C60.1328 31.0469 60.5625 32.9375 60.5625 35.1875C60.5625 37.0312 60.3125 38.6094 59.8125 39.9219C59.3125 41.2188 58.6016 42.3047 57.6797 43.1797C56.7578 44.0391 55.6562 44.7266 54.375 45.2422L52.2891 46.4844H43.4062L43.3828 40.7891H49.5469C50.4844 40.7891 51.2578 40.5859 51.8672 40.1797C52.4922 39.7578 52.9531 39.1719 53.25 38.4219C53.5625 37.6562 53.7188 36.7656 53.7188 35.75C53.7188 34.6719 53.5781 33.75 53.2969 32.9844C53.0312 32.2031 52.6016 31.6094 52.0078 31.2031C51.4297 30.7812 50.6719 30.5703 49.7344 30.5703H45.6562V59H38.7891V24.875ZM54.2812 59L48.0234 43.7891L55.2188 43.7656L61.6172 58.6719V59H54.2812ZM77.6953 30.9688L70.3594 59H63.1172L73.7812 24.875H78.3047L77.6953 30.9688ZM83.4844 59L76.1016 30.9688L75.4219 24.875H80.0156L90.7734 59H83.4844ZM83.7422 46.2734V51.9688H68.3438V46.2734H83.7422ZM102.938 59H96.9141L96.9609 53.3281H102.938C104.594 53.3281 105.883 53.0312 106.805 52.4375C107.727 51.8438 108.375 50.9062 108.75 49.625C109.141 48.3438 109.336 46.6641 109.336 44.5859V39.2656C109.336 37.6875 109.234 36.3516 109.031 35.2578C108.828 34.1484 108.484 33.2578 108 32.5859C107.516 31.8984 106.867 31.3906 106.055 31.0625C105.242 30.7344 104.234 30.5703 103.031 30.5703H96.7969V24.875H103.031C105 24.875 106.789 25.1953 108.398 25.8359C110.008 26.4766 111.391 27.4141 112.547 28.6484C113.703 29.8672 114.594 31.375 115.219 33.1719C115.844 34.9688 116.156 37.0156 116.156 39.3125V44.5859C116.156 46.8984 115.844 48.9453 115.219 50.7266C114.594 52.5078 113.703 54.0156 112.547 55.25C111.406 56.4688 110.023 57.3984 108.398 58.0391C106.773 58.6797 104.953 59 102.938 59ZM100.898 24.875V59H94.0312V24.875H100.898ZM128.297 24.875V59H121.477V24.875H128.297ZM150.422 47.6328H157.242C157.148 50.1953 156.633 52.3594 155.695 54.125C154.758 55.875 153.422 57.2031 151.688 58.1094C149.969 59.0156 147.891 59.4688 145.453 59.4688C143.562 59.4688 141.883 59.1562 140.414 58.5312C138.945 57.8906 137.695 56.9531 136.664 55.7188C135.633 54.4844 134.852 52.9609 134.32 51.1484C133.805 49.3203 133.547 47.2188 133.547 44.8438V39.0547C133.547 36.6797 133.82 34.5781 134.367 32.75C134.93 30.9219 135.727 29.3906 136.758 28.1562C137.805 26.9062 139.062 25.9688 140.531 25.3438C142.016 24.7031 143.688 24.3828 145.547 24.3828C148.031 24.3828 150.109 24.8516 151.781 25.7891C153.453 26.7266 154.742 28.0938 155.648 29.8906C156.57 31.6719 157.125 33.8516 157.312 36.4297H150.469C150.422 34.8047 150.234 33.5312 149.906 32.6094C149.594 31.6719 149.094 31.0156 148.406 30.6406C147.719 30.25 146.766 30.0547 145.547 30.0547C144.641 30.0547 143.859 30.2188 143.203 30.5469C142.547 30.8594 142.008 31.3672 141.586 32.0703C141.164 32.7734 140.852 33.6953 140.648 34.8359C140.461 35.9766 140.367 37.3672 140.367 39.0078V44.8438C140.367 46.4531 140.453 47.8281 140.625 48.9688C140.797 50.0938 141.07 51.0156 141.445 51.7344C141.82 52.4531 142.328 52.9766 142.969 53.3047C143.625 53.6328 144.453 53.7969 145.453 53.7969C146.609 53.7969 147.539 53.625 148.242 53.2812C148.961 52.9375 149.492 52.3203 149.836 51.4297C150.18 50.5391 150.375 49.2734 150.422 47.6328ZM181.102 53.3281V59H166.266V53.3281H181.102ZM168.398 24.875V59H161.531V24.875H168.398ZM179.109 38.7031V44.2109H166.266V38.7031H179.109ZM181.055 24.875V30.5703H166.266V24.875H181.055Z" fill="black"/>
<path d="M17.3765 45.4458L17.3765 86.8816" stroke="black" stroke-width="0.8"/>
<path d="M17.3765 26.0645L17.3765 45.4457" stroke="black" stroke-width="0.8"/>
<path d="M16.7081 2.00488L17.3765 26.0644" stroke="black" stroke-width="0.8"/>
<path d="M13.3666 43.1065C13.3666 43.1065 12.5741 58.3466 10.5278 66.4482C9.1265 71.9958 5.70796 80.2375 5.70796 80.2375" stroke="black" stroke-width="0.8"/>
<path d="M7.88919 58.3801C7.88919 58.3801 7.70663 61.1749 6.61715 64.2146C5.42094 67.5521 2.08385 71.9909 2.08385 71.9909" stroke="black" stroke-width="0.8"/>
<path d="M12.3572 53.6196L7.88941 58.8443" stroke="black" stroke-width="0.8"/>
<path d="M21.1773 57.224C21.1773 57.224 20.8138 59.3039 22.8601 67.4055C24.9065 75.5071 30.3798 83.3591 30.3798 83.3591" stroke="black" stroke-width="0.8"/>
<line y1="-0.4" x2="5.26199" y2="-0.4" transform="matrix(0.68595 0.727649 0.68595 -0.727649 17.6709 53.5776)" stroke="black" stroke-width="0.8"/>
<path d="M21.5979 61.4314L26.6467 63.1143" stroke="black" stroke-width="0.8"/>
<path d="M26.6465 63.1144C27.9087 66.1998 29.1253 67.0463 30.7136 69.5657" stroke="black" stroke-width="0.8"/>
<path d="M10.6737 20.3261C10.6736 31.4936 11.2276 43.0152 8.81755 53.2753" stroke="black" stroke-width="0.8"/>
<path d="M13.2304 13.8011C13.5354 24.6495 14.3063 28.8862 13.7005 39.0966" stroke="black" stroke-width="0.8"/>
<path d="M23.0929 18.1958C23.0036 29.0487 23.0929 51.0134 26.9572 58.9834" stroke="black" stroke-width="0.8"/>
<path d="M20.0854 8.05776C19.9962 18.9106 20.5386 40.7604 21.3473 50.9549" stroke="black" stroke-width="0.8"/>
<path d="M6.21725 80.8066C6.21725 81.3131 5.83575 81.6829 5.41409 81.6829C4.99243 81.6829 4.61094 81.3131 4.61094 80.8066C4.61094 80.3 4.99243 79.9303 5.41409 79.9303C5.83575 79.9303 6.21725 80.3 6.21725 80.8066Z" stroke="black" stroke-width="0.8"/>
<path d="M32.0854 70.5962C32.0854 71.1028 31.7039 71.4725 31.2823 71.4725C30.8606 71.4725 30.4791 71.1028 30.4791 70.5962C30.4791 70.0897 30.8606 69.7199 31.2823 69.7199C31.7039 69.7199 32.0854 70.0897 32.0854 70.5962Z" stroke="black" stroke-width="0.8"/>
<path d="M9.29414 53.7685C9.29414 54.0988 9.04731 54.3257 8.79177 54.3257C8.53623 54.3257 8.2894 54.0988 8.2894 53.7685C8.2894 53.4382 8.53623 53.2113 8.79177 53.2113C9.04731 53.2113 9.29414 53.4382 9.29414 53.7685Z" stroke="black" stroke-width="0.8"/>
<path d="M21.8242 51.4481C21.8242 51.7784 21.5773 52.0053 21.3218 52.0053C21.0663 52.0053 20.8194 51.7784 20.8194 51.4481C20.8194 51.1178 21.0663 50.8908 21.3218 50.8908C21.5773 50.8908 21.8242 51.1178 21.8242 51.4481Z" stroke="black" stroke-width="0.8"/>
<path d="M14.103 39.7198C14.103 40.0501 13.8561 40.277 13.6006 40.277C13.3451 40.277 13.0982 40.0501 13.0982 39.7198C13.0982 39.3895 13.3451 39.1626 13.6006 39.1626C13.8561 39.1626 14.103 39.3895 14.103 39.7198Z" fill="black" stroke="black" stroke-width="0.8"/>
<path d="M27.6591 59.4716C27.6591 59.8019 27.4123 60.0288 27.1568 60.0288C26.9012 60.0288 26.6544 59.8019 26.6544 59.4716C26.6544 59.1413 26.9012 58.9144 27.1568 58.9144C27.4123 58.9144 27.6591 59.1413 27.6591 59.4716Z" fill="black" stroke="black" stroke-width="0.8"/>
<path d="M31.4838 83.6782C31.4838 84.0085 31.237 84.2354 30.9815 84.2354C30.7259 84.2354 30.4791 84.0085 30.4791 83.6782C30.4791 83.3479 30.7259 83.1209 30.9815 83.1209C31.237 83.1209 31.4838 83.3479 31.4838 83.6782Z" fill="black" stroke="black" stroke-width="0.8"/>
<path d="M18.0474 87.1881C18.0474 87.8929 17.5088 88.4643 16.8443 88.4643C16.1798 88.4643 15.6411 87.8929 15.6411 87.1881C15.6411 86.4832 16.1798 85.9118 16.8443 85.9118C17.5088 85.9118 18.0474 86.4832 18.0474 87.1881Z" fill="black"/>
<ellipse cx="1.20316" cy="72.5107" rx="1.20316" ry="1.27629" fill="black"/>
<path d="M7.18046 17.5816C8.72022 18.6709 8.8359 18.0621 9.84034 18.6709C10.8448 19.2798 10.4143 20.8019 10.4143 20.8019" stroke="black" stroke-width="0.8"/>
<path d="M7.18046 17.5816C8.72022 18.6709 8.8359 18.0621 9.84034 18.6709C10.8448 19.2798 10.4143 20.8019 10.4143 20.8019" stroke="black" stroke-width="0.8"/>
<path d="M7.18046 17.5816C8.72022 18.6709 8.8359 18.0621 9.84034 18.6709C10.8448 19.2798 10.4143 20.8019 10.4143 20.8019" stroke="black" stroke-width="0.8"/>
<path d="M7.25776 17.6056C7.25782 19.5844 8.62621 20.8021 10.4145 20.8021" stroke="black" stroke-width="0.8"/>
<path d="M7.25776 17.6056C7.25782 19.5844 8.62621 20.8021 10.4145 20.8021" stroke="black" stroke-width="0.8"/>
<path d="M7.25776 17.6056C7.25782 19.5844 8.62621 20.8021 10.4145 20.8021" stroke="black" stroke-width="0.8"/>
<path d="M10.0406 10.5287C11.5803 11.618 11.696 11.0091 12.7004 11.618C13.7049 12.2268 13.2744 13.749 13.2744 13.749" stroke="black" stroke-width="0.8"/>
<path d="M10.0406 10.5287C11.5803 11.618 11.696 11.0091 12.7004 11.618C13.7049 12.2268 13.2744 13.749 13.2744 13.749" stroke="black" stroke-width="0.8"/>
<path d="M10.0406 10.5287C11.5803 11.618 11.696 11.0091 12.7004 11.618C13.7049 12.2268 13.2744 13.749 13.2744 13.749" stroke="black" stroke-width="0.8"/>
<path d="M10.1171 10.5525C10.1172 12.5313 11.4856 13.749 13.2739 13.749" stroke="black" stroke-width="0.8"/>
<path d="M10.1171 10.5525C10.1172 12.5313 11.4856 13.749 13.2739 13.749" stroke="black" stroke-width="0.8"/>
<path d="M10.1171 10.5525C10.1172 12.5313 11.4856 13.749 13.2739 13.749" stroke="black" stroke-width="0.8"/>
<path d="M26.2375 15.5816C24.6977 16.6709 24.5821 16.0621 23.5776 16.6709C22.5732 17.2798 23.0037 18.8019 23.0037 18.8019" stroke="black" stroke-width="0.8"/>
<path d="M26.2375 15.5816C24.6977 16.6709 24.5821 16.0621 23.5776 16.6709C22.5732 17.2798 23.0037 18.8019 23.0037 18.8019" stroke="black" stroke-width="0.8"/>
<path d="M26.2375 15.5816C24.6977 16.6709 24.5821 16.0621 23.5776 16.6709C22.5732 17.2798 23.0037 18.8019 23.0037 18.8019" stroke="black" stroke-width="0.8"/>
<path d="M26.1605 15.6053C26.1604 17.5841 24.792 18.8018 23.0037 18.8018" stroke="black" stroke-width="0.8"/>
<path d="M26.1605 15.6053C26.1604 17.5841 24.792 18.8018 23.0037 18.8018" stroke="black" stroke-width="0.8"/>
<path d="M26.1605 15.6053C26.1604 17.5841 24.792 18.8018 23.0037 18.8018" stroke="black" stroke-width="0.8"/>
<path d="M23.2295 5.37106C21.6897 6.46037 21.574 5.85151 20.5696 6.46037C19.5651 7.06922 19.9956 8.59136 19.9956 8.59136" stroke="black" stroke-width="0.8"/>
<path d="M23.2295 5.37106C21.6897 6.46037 21.574 5.85151 20.5696 6.46037C19.5651 7.06922 19.9956 8.59136 19.9956 8.59136" stroke="black" stroke-width="0.8"/>
<path d="M23.2295 5.37106C21.6897 6.46037 21.574 5.85151 20.5696 6.46037C19.5651 7.06922 19.9956 8.59136 19.9956 8.59136" stroke="black" stroke-width="0.8"/>
<path d="M23.1526 5.39501C23.1526 7.3738 21.7842 8.59149 19.9959 8.59151" stroke="black" stroke-width="0.8"/>
<path d="M23.1526 5.39501C23.1526 7.3738 21.7842 8.59149 19.9959 8.59151" stroke="black" stroke-width="0.8"/>
<path d="M23.1526 5.39501C23.1526 7.3738 21.7842 8.59149 19.9959 8.59151" stroke="black" stroke-width="0.8"/>
<path d="M20.0192 0.503996C18.4795 1.5933 18.3638 0.984445 17.3594 1.5933C16.3549 2.20216 16.7854 3.7243 16.7854 3.7243" stroke="black" stroke-width="0.8"/>
<path d="M20.0192 0.503996C18.4795 1.5933 18.3638 0.984445 17.3594 1.5933C16.3549 2.20216 16.7854 3.7243 16.7854 3.7243" stroke="black" stroke-width="0.8"/>
<path d="M20.0192 0.503996C18.4795 1.5933 18.3638 0.984445 17.3594 1.5933C16.3549 2.20216 16.7854 3.7243 16.7854 3.7243" stroke="black" stroke-width="0.8"/>
<path d="M19.9422 0.527944C19.9421 2.50673 18.5737 3.72443 16.7854 3.72445" stroke="black" stroke-width="0.8"/>
<path d="M19.9422 0.527944C19.9421 2.50673 18.5737 3.72443 16.7854 3.72445" stroke="black" stroke-width="0.8"/>
<path d="M19.9422 0.527944C19.9421 2.50673 18.5737 3.72443 16.7854 3.72445" stroke="black" stroke-width="0.8"/>
<path d="M13.9074 5.07721C15.1259 5.93927 15.2175 5.45743 16.0124 5.93927C16.8073 6.4211 16.4666 7.6257 16.4666 7.6257" stroke="black" stroke-width="0.8"/>
<path d="M13.9074 5.07721C15.1259 5.93927 15.2175 5.45743 16.0124 5.93927C16.8073 6.4211 16.4666 7.6257 16.4666 7.6257" stroke="black" stroke-width="0.8"/>
<path d="M13.9074 5.07721C15.1259 5.93927 15.2175 5.45743 16.0124 5.93927C16.8073 6.4211 16.4666 7.6257 16.4666 7.6257" stroke="black" stroke-width="0.8"/>
<path d="M13.9684 5.09628C13.9684 6.66225 15.0514 7.62591 16.4666 7.62593" stroke="black" stroke-width="0.8"/>
<path d="M13.9684 5.09628C13.9684 6.66225 15.0514 7.62591 16.4666 7.62593" stroke="black" stroke-width="0.8"/>
<path d="M13.9684 5.09628C13.9684 6.66225 15.0514 7.62591 16.4666 7.62593" stroke="black" stroke-width="0.8"/>
</svg>
