<svg width="531" height="252" viewBox="0 0 531 252" fill="none" xmlns="http://www.w3.org/2000/svg">
<path d="M114.717 44.4688H146.641C153.294 44.4688 158.968 45.6081 163.662 47.8867C168.356 50.1654 171.956 53.5378 174.463 58.0039C176.969 62.4701 178.223 67.9844 178.223 74.5469C178.223 79.9245 177.493 84.5273 176.035 88.3555C174.577 92.138 172.503 95.3053 169.814 97.8574C167.126 100.364 163.913 102.369 160.176 103.873L154.092 107.496H128.184L128.115 90.8848H146.094C148.828 90.8848 151.084 90.2923 152.861 89.1074C154.684 87.877 156.029 86.168 156.895 83.9805C157.806 81.7474 158.262 79.1497 158.262 76.1875C158.262 73.043 157.852 70.3542 157.031 68.1211C156.257 65.8424 155.003 64.1107 153.271 62.9258C151.585 61.6953 149.375 61.0801 146.641 61.0801H134.746V144H114.717V44.4688ZM159.902 144L141.65 99.6348L162.637 99.5664L181.299 143.043V144H159.902ZM228.193 62.2422L206.797 144H185.674L216.777 44.4688H229.971L228.193 62.2422ZM245.078 144L223.545 62.2422L221.562 44.4688H234.961L266.338 144H245.078ZM245.83 106.881V123.492H200.918V106.881H245.83ZM301.816 144H284.248L284.385 127.457H301.816C306.647 127.457 310.407 126.591 313.096 124.859C315.785 123.128 317.676 120.393 318.77 116.656C319.909 112.919 320.479 108.02 320.479 101.959V86.4414C320.479 81.8385 320.182 77.9421 319.59 74.752C318.997 71.5163 317.995 68.9186 316.582 66.959C315.169 64.9538 313.278 63.4727 310.908 62.5156C308.538 61.5586 305.599 61.0801 302.09 61.0801H283.906V44.4688H302.09C307.832 44.4688 313.05 45.403 317.744 47.2715C322.438 49.14 326.471 51.8743 329.844 55.4746C333.216 59.0293 335.814 63.4271 337.637 68.668C339.46 73.9089 340.371 79.8789 340.371 86.5781V101.959C340.371 108.704 339.46 114.674 337.637 119.869C335.814 125.064 333.216 129.462 329.844 133.062C326.517 136.617 322.484 139.329 317.744 141.197C313.005 143.066 307.695 144 301.816 144ZM295.869 44.4688V144H275.84V44.4688H295.869ZM375.781 44.4688V144H355.889V44.4688H375.781ZM440.312 110.846H460.205C459.932 118.32 458.428 124.632 455.693 129.781C452.959 134.885 449.062 138.759 444.004 141.402C438.991 144.046 432.93 145.367 425.82 145.367C420.306 145.367 415.407 144.456 411.123 142.633C406.839 140.764 403.193 138.03 400.186 134.43C397.178 130.829 394.899 126.386 393.35 121.1C391.846 115.768 391.094 109.638 391.094 102.711V85.8262C391.094 78.8991 391.891 72.7695 393.486 67.4375C395.127 62.1055 397.451 57.6393 400.459 54.0391C403.512 50.3932 407.181 47.6589 411.465 45.8359C415.794 43.9674 420.671 43.0332 426.094 43.0332C433.34 43.0332 439.401 44.4004 444.277 47.1348C449.154 49.8691 452.913 53.8568 455.557 59.0977C458.245 64.293 459.863 70.6504 460.41 78.1699H440.449C440.312 73.4303 439.766 69.7161 438.809 67.0273C437.897 64.293 436.439 62.3789 434.434 61.2852C432.428 60.1458 429.648 59.5762 426.094 59.5762C423.451 59.5762 421.172 60.0547 419.258 61.0117C417.344 61.9232 415.771 63.4043 414.541 65.4551C413.311 67.5059 412.399 70.1947 411.807 73.5215C411.26 76.8483 410.986 80.9043 410.986 85.6895V102.711C410.986 107.405 411.237 111.415 411.738 114.742C412.24 118.023 413.037 120.712 414.131 122.809C415.225 124.905 416.706 126.432 418.574 127.389C420.488 128.346 422.904 128.824 425.82 128.824C429.193 128.824 431.904 128.323 433.955 127.32C436.051 126.318 437.601 124.518 438.604 121.92C439.606 119.322 440.176 115.631 440.312 110.846ZM529.795 127.457V144H486.523V127.457H529.795ZM492.744 44.4688V144H472.715V44.4688H492.744ZM523.984 84.8008V100.865H486.523V84.8008H523.984ZM529.658 44.4688V61.0801H486.523V44.4688H529.658Z" fill="black"/>
<path d="M128.761 176.087H131.905C131.825 177.796 131.478 179.272 130.863 180.514C130.259 181.744 129.376 182.69 128.214 183.351C127.063 184.011 125.622 184.342 123.89 184.342C122.648 184.342 121.526 184.097 120.523 183.607C119.521 183.117 118.661 182.416 117.943 181.505C117.236 180.582 116.695 179.477 116.319 178.189C115.943 176.902 115.755 175.455 115.755 173.849V169.251C115.755 167.656 115.943 166.215 116.319 164.928C116.707 163.64 117.259 162.541 117.977 161.629C118.706 160.707 119.589 160 120.626 159.51C121.674 159.02 122.859 158.775 124.181 158.775C125.798 158.775 127.166 159.1 128.282 159.75C129.41 160.388 130.276 161.327 130.88 162.569C131.495 163.8 131.837 165.309 131.905 167.098H128.761C128.681 165.788 128.476 164.723 128.145 163.902C127.815 163.071 127.325 162.461 126.676 162.074C126.038 161.675 125.206 161.476 124.181 161.476C123.269 161.476 122.477 161.658 121.805 162.022C121.144 162.387 120.597 162.911 120.164 163.595C119.743 164.267 119.424 165.082 119.207 166.039C119.002 166.984 118.9 168.044 118.9 169.217V173.849C118.9 174.942 118.985 175.962 119.156 176.908C119.338 177.853 119.623 178.685 120.011 179.403C120.409 180.109 120.928 180.662 121.566 181.061C122.204 181.459 122.979 181.659 123.89 181.659C125.041 181.659 125.952 181.471 126.624 181.095C127.297 180.719 127.792 180.121 128.111 179.3C128.442 178.48 128.658 177.409 128.761 176.087ZM142.364 184.342C141.259 184.342 140.262 184.177 139.373 183.846C138.485 183.516 137.727 183.014 137.1 182.342C136.474 181.659 135.995 180.799 135.665 179.762C135.335 178.725 135.169 177.5 135.169 176.087V174.002C135.169 172.373 135.357 170.995 135.733 169.867C136.121 168.739 136.639 167.833 137.288 167.149C137.938 166.454 138.673 165.953 139.493 165.646C140.313 165.326 141.156 165.167 142.022 165.167C143.184 165.167 144.176 165.355 144.996 165.731C145.816 166.107 146.483 166.665 146.995 167.406C147.508 168.146 147.884 169.058 148.123 170.14C148.374 171.222 148.499 172.47 148.499 173.883V175.643H136.947V173.062H145.474V172.635C145.429 171.678 145.298 170.835 145.081 170.106C144.876 169.377 144.535 168.807 144.056 168.397C143.578 167.975 142.9 167.765 142.022 167.765C141.464 167.765 140.946 167.861 140.467 168.055C140 168.237 139.596 168.562 139.254 169.029C138.923 169.485 138.661 170.117 138.468 170.926C138.285 171.735 138.194 172.761 138.194 174.002V176.087C138.194 177.079 138.285 177.933 138.468 178.651C138.661 179.357 138.94 179.944 139.305 180.411C139.681 180.867 140.137 181.209 140.672 181.437C141.219 181.653 141.84 181.761 142.535 181.761C143.549 181.761 144.386 181.568 145.047 181.18C145.708 180.781 146.283 180.274 146.773 179.659L148.363 181.556C148.032 182.023 147.599 182.473 147.064 182.906C146.54 183.328 145.89 183.675 145.116 183.949C144.352 184.211 143.435 184.342 142.364 184.342ZM155.182 169.457V184H152.157V165.509H155.011L155.182 169.457ZM154.447 174.054L153.216 174.002C153.205 172.738 153.347 171.57 153.643 170.499C153.951 169.417 154.384 168.477 154.942 167.679C155.512 166.882 156.19 166.266 156.976 165.833C157.762 165.389 158.634 165.167 159.591 165.167C160.343 165.167 161.026 165.292 161.641 165.543C162.257 165.782 162.781 166.17 163.214 166.705C163.647 167.241 163.977 167.936 164.205 168.79C164.444 169.633 164.564 170.664 164.564 171.883V184H161.539V171.849C161.539 170.881 161.431 170.106 161.214 169.525C161.009 168.932 160.69 168.505 160.257 168.243C159.836 167.97 159.3 167.833 158.651 167.833C158.058 167.833 157.506 167.998 156.993 168.329C156.48 168.659 156.03 169.115 155.643 169.696C155.267 170.277 154.971 170.943 154.754 171.695C154.549 172.436 154.447 173.222 154.447 174.054ZM175.86 165.509V167.936H167.23V165.509H175.86ZM170.05 161.014H173.075V179.42C173.075 180.047 173.149 180.519 173.297 180.838C173.456 181.157 173.656 181.368 173.895 181.471C174.134 181.573 174.391 181.625 174.664 181.625C174.869 181.625 175.097 181.602 175.348 181.556C175.598 181.499 175.769 181.454 175.86 181.419L175.843 184C175.638 184.08 175.365 184.154 175.023 184.222C174.681 184.302 174.248 184.342 173.724 184.342C173.075 184.342 172.471 184.188 171.912 183.88C171.354 183.573 170.904 183.06 170.562 182.342C170.221 181.613 170.05 180.633 170.05 179.403V161.014ZM186.08 184.342C184.975 184.342 183.978 184.177 183.089 183.846C182.201 183.516 181.443 183.014 180.816 182.342C180.19 181.659 179.711 180.799 179.381 179.762C179.05 178.725 178.885 177.5 178.885 176.087V174.002C178.885 172.373 179.073 170.995 179.449 169.867C179.836 168.739 180.355 167.833 181.004 167.149C181.654 166.454 182.389 165.953 183.209 165.646C184.029 165.326 184.872 165.167 185.738 165.167C186.9 165.167 187.891 165.355 188.712 165.731C189.532 166.107 190.199 166.665 190.711 167.406C191.224 168.146 191.6 169.058 191.839 170.14C192.09 171.222 192.215 172.47 192.215 173.883V175.643H180.662V173.062H189.19V172.635C189.145 171.678 189.014 170.835 188.797 170.106C188.592 169.377 188.25 168.807 187.772 168.397C187.293 167.975 186.615 167.765 185.738 167.765C185.18 167.765 184.661 167.861 184.183 168.055C183.716 168.237 183.311 168.562 182.97 169.029C182.639 169.485 182.377 170.117 182.183 170.926C182.001 171.735 181.91 172.761 181.91 174.002V176.087C181.91 177.079 182.001 177.933 182.183 178.651C182.377 179.357 182.656 179.944 183.021 180.411C183.397 180.867 183.853 181.209 184.388 181.437C184.935 181.653 185.556 181.761 186.251 181.761C187.265 181.761 188.102 181.568 188.763 181.18C189.424 180.781 189.999 180.274 190.489 179.659L192.078 181.556C191.748 182.023 191.315 182.473 190.78 182.906C190.256 183.328 189.606 183.675 188.831 183.949C188.068 184.211 187.151 184.342 186.08 184.342ZM198.897 168.414V184H195.872V165.509H198.795L198.897 168.414ZM203.495 165.406L203.512 168.346C203.261 168.289 203.033 168.255 202.828 168.243C202.634 168.22 202.406 168.209 202.144 168.209C201.575 168.209 201.073 168.323 200.641 168.551C200.219 168.779 199.854 169.098 199.547 169.508C199.239 169.918 198.994 170.408 198.812 170.978C198.63 171.536 198.504 172.151 198.436 172.823L197.65 173.336C197.65 172.219 197.735 171.171 197.906 170.191C198.088 169.212 198.368 168.346 198.744 167.594C199.12 166.83 199.598 166.238 200.179 165.816C200.772 165.383 201.478 165.167 202.298 165.167C202.481 165.167 202.703 165.195 202.965 165.252C203.238 165.298 203.415 165.349 203.495 165.406ZM218.927 184H215.902V163.561C215.902 162.228 216.113 161.105 216.534 160.194C216.967 159.271 217.577 158.576 218.363 158.109C219.16 157.63 220.106 157.391 221.2 157.391C221.507 157.391 221.815 157.414 222.122 157.459C222.441 157.505 222.743 157.573 223.028 157.665L222.891 160.245C222.709 160.188 222.487 160.148 222.225 160.125C221.974 160.103 221.735 160.091 221.507 160.091C220.96 160.091 220.493 160.228 220.106 160.501C219.718 160.764 219.422 161.151 219.217 161.664C219.023 162.176 218.927 162.809 218.927 163.561V184ZM222.071 165.509V167.936H213.492V165.509H222.071ZM225.011 175.643V173.883C225.011 172.447 225.193 171.188 225.557 170.106C225.922 169.012 226.429 168.101 227.078 167.372C227.728 166.642 228.486 166.096 229.351 165.731C230.217 165.355 231.146 165.167 232.137 165.167C233.151 165.167 234.091 165.355 234.957 165.731C235.823 166.096 236.58 166.642 237.23 167.372C237.891 168.101 238.403 169.012 238.768 170.106C239.133 171.188 239.315 172.447 239.315 173.883V175.643C239.315 177.079 239.133 178.343 238.768 179.437C238.403 180.519 237.896 181.425 237.247 182.154C236.598 182.883 235.84 183.43 234.974 183.795C234.108 184.16 233.174 184.342 232.171 184.342C231.169 184.342 230.234 184.16 229.369 183.795C228.503 183.43 227.739 182.883 227.078 182.154C226.429 181.425 225.922 180.519 225.557 179.437C225.193 178.343 225.011 177.079 225.011 175.643ZM228.036 173.883V175.643C228.036 176.657 228.138 177.546 228.343 178.309C228.548 179.072 228.839 179.71 229.215 180.223C229.591 180.736 230.029 181.123 230.531 181.385C231.032 181.636 231.579 181.761 232.171 181.761C232.855 181.761 233.453 181.636 233.966 181.385C234.49 181.123 234.923 180.736 235.265 180.223C235.606 179.71 235.863 179.072 236.034 178.309C236.204 177.546 236.29 176.657 236.29 175.643V173.883C236.29 172.869 236.187 171.986 235.982 171.234C235.777 170.471 235.487 169.833 235.111 169.32C234.735 168.796 234.29 168.408 233.778 168.158C233.276 167.896 232.73 167.765 232.137 167.765C231.556 167.765 231.015 167.896 230.514 168.158C230.012 168.408 229.574 168.796 229.198 169.32C228.833 169.833 228.548 170.471 228.343 171.234C228.138 171.986 228.036 172.869 228.036 173.883ZM246.236 168.414V184H243.211V165.509H246.134L246.236 168.414ZM250.833 165.406L250.85 168.346C250.6 168.289 250.372 168.255 250.167 168.243C249.973 168.22 249.745 168.209 249.483 168.209C248.914 168.209 248.412 168.323 247.979 168.551C247.558 168.779 247.193 169.098 246.886 169.508C246.578 169.918 246.333 170.408 246.151 170.978C245.968 171.536 245.843 172.151 245.775 172.823L244.989 173.336C244.989 172.219 245.074 171.171 245.245 170.191C245.427 169.212 245.706 168.346 246.082 167.594C246.458 166.83 246.937 166.238 247.518 165.816C248.11 165.383 248.817 165.167 249.637 165.167C249.819 165.167 250.042 165.195 250.304 165.252C250.577 165.298 250.754 165.349 250.833 165.406ZM270.384 161.322L263.582 184H260.37L268.385 159.117H270.401L270.384 161.322ZM275.887 184L269.085 161.322L269.051 159.117H271.085L279.1 184H275.887ZM275.887 174.789V177.489H263.89V174.789H275.887ZM285.133 169.063V191.109H282.108V165.509H284.859L285.133 169.063ZM295.472 173.917V175.643C295.472 177.101 295.335 178.377 295.062 179.471C294.8 180.554 294.407 181.459 293.883 182.188C293.37 182.906 292.738 183.447 291.986 183.812C291.234 184.165 290.374 184.342 289.405 184.342C288.437 184.342 287.594 184.16 286.876 183.795C286.169 183.419 285.571 182.878 285.081 182.171C284.603 181.465 284.221 180.616 283.936 179.625C283.663 178.622 283.475 177.5 283.372 176.258V173.626C283.475 172.316 283.663 171.143 283.936 170.106C284.21 169.058 284.586 168.169 285.064 167.44C285.554 166.699 286.152 166.135 286.859 165.748C287.577 165.361 288.414 165.167 289.371 165.167C290.362 165.167 291.234 165.338 291.986 165.68C292.749 166.021 293.387 166.551 293.9 167.269C294.424 167.975 294.817 168.881 295.079 169.986C295.341 171.08 295.472 172.39 295.472 173.917ZM292.447 175.643V173.917C292.447 172.892 292.367 171.997 292.208 171.234C292.06 170.471 291.821 169.838 291.49 169.337C291.16 168.836 290.744 168.46 290.243 168.209C289.741 167.958 289.137 167.833 288.431 167.833C287.827 167.833 287.292 167.958 286.825 168.209C286.369 168.46 285.976 168.801 285.645 169.234C285.315 169.656 285.042 170.14 284.825 170.687C284.609 171.222 284.449 171.781 284.347 172.362V177.54C284.54 178.269 284.797 178.958 285.116 179.608C285.435 180.246 285.862 180.764 286.397 181.163C286.944 181.562 287.634 181.761 288.465 181.761C289.16 181.761 289.758 181.636 290.26 181.385C290.761 181.135 291.171 180.759 291.49 180.257C291.821 179.745 292.06 179.107 292.208 178.343C292.367 177.569 292.447 176.668 292.447 175.643ZM302.393 169.063V191.109H299.369V165.509H302.12L302.393 169.063ZM312.733 173.917V175.643C312.733 177.101 312.596 178.377 312.323 179.471C312.061 180.554 311.668 181.459 311.143 182.188C310.631 182.906 309.998 183.447 309.246 183.812C308.495 184.165 307.634 184.342 306.666 184.342C305.697 184.342 304.854 184.16 304.137 183.795C303.43 183.419 302.832 182.878 302.342 182.171C301.864 181.465 301.482 180.616 301.197 179.625C300.924 178.622 300.736 177.5 300.633 176.258V173.626C300.736 172.316 300.924 171.143 301.197 170.106C301.471 169.058 301.847 168.169 302.325 167.44C302.815 166.699 303.413 166.135 304.12 165.748C304.837 165.361 305.675 165.167 306.632 165.167C307.623 165.167 308.495 165.338 309.246 165.68C310.01 166.021 310.648 166.551 311.161 167.269C311.685 167.975 312.078 168.881 312.34 169.986C312.602 171.08 312.733 172.39 312.733 173.917ZM309.708 175.643V173.917C309.708 172.892 309.628 171.997 309.469 171.234C309.321 170.471 309.081 169.838 308.751 169.337C308.42 168.836 308.005 168.46 307.503 168.209C307.002 167.958 306.398 167.833 305.692 167.833C305.088 167.833 304.552 167.958 304.085 168.209C303.63 168.46 303.237 168.801 302.906 169.234C302.576 169.656 302.302 170.14 302.086 170.687C301.869 171.222 301.71 171.781 301.607 172.362V177.54C301.801 178.269 302.057 178.958 302.376 179.608C302.695 180.246 303.123 180.764 303.658 181.163C304.205 181.562 304.894 181.761 305.726 181.761C306.421 181.761 307.019 181.636 307.52 181.385C308.022 181.135 308.432 180.759 308.751 180.257C309.081 179.745 309.321 179.107 309.469 178.343C309.628 177.569 309.708 176.668 309.708 175.643ZM319.876 157.75V184H316.869V157.75H319.876ZM327.909 165.509V184H324.901V165.509H327.909ZM324.73 160.604C324.73 160.091 324.872 159.658 325.157 159.305C325.442 158.952 325.869 158.775 326.439 158.775C327.009 158.775 327.436 158.952 327.721 159.305C328.017 159.658 328.165 160.091 328.165 160.604C328.165 161.094 328.017 161.515 327.721 161.869C327.436 162.21 327.009 162.381 326.439 162.381C325.869 162.381 325.442 162.21 325.157 161.869C324.872 161.515 324.73 161.094 324.73 160.604ZM339.307 184.342C338.202 184.342 337.205 184.177 336.317 183.846C335.428 183.516 334.67 183.014 334.044 182.342C333.417 181.659 332.939 180.799 332.608 179.762C332.278 178.725 332.113 177.5 332.113 176.087V174.002C332.113 172.373 332.301 170.995 332.677 169.867C333.064 168.739 333.582 167.833 334.232 167.149C334.881 166.454 335.616 165.953 336.436 165.646C337.257 165.326 338.1 165.167 338.966 165.167C340.128 165.167 341.119 165.355 341.939 165.731C342.76 166.107 343.426 166.665 343.939 167.406C344.452 168.146 344.828 169.058 345.067 170.14C345.317 171.222 345.443 172.47 345.443 173.883V175.643H333.89V173.062H342.418V172.635C342.372 171.678 342.241 170.835 342.025 170.106C341.82 169.377 341.478 168.807 340.999 168.397C340.521 167.975 339.843 167.765 338.966 167.765C338.407 167.765 337.889 167.861 337.411 168.055C336.943 168.237 336.539 168.562 336.197 169.029C335.867 169.485 335.605 170.117 335.411 170.926C335.229 171.735 335.138 172.761 335.138 174.002V176.087C335.138 177.079 335.229 177.933 335.411 178.651C335.605 179.357 335.884 179.944 336.248 180.411C336.624 180.867 337.08 181.209 337.616 181.437C338.162 181.653 338.783 181.761 339.478 181.761C340.492 181.761 341.33 181.568 341.991 181.18C342.651 180.781 343.227 180.274 343.717 179.659L345.306 181.556C344.976 182.023 344.543 182.473 344.007 182.906C343.483 183.328 342.834 183.675 342.059 183.949C341.296 184.211 340.378 184.342 339.307 184.342ZM358.79 180.411V157.75H361.798V184H359.046L358.79 180.411ZM348.451 175.643V173.917C348.451 172.39 348.599 171.08 348.895 169.986C349.191 168.881 349.613 167.975 350.16 167.269C350.706 166.551 351.362 166.021 352.125 165.68C352.888 165.338 353.731 165.167 354.654 165.167C355.611 165.167 356.432 165.361 357.115 165.748C357.81 166.135 358.391 166.699 358.858 167.44C359.325 168.169 359.69 169.058 359.952 170.106C360.225 171.143 360.408 172.316 360.499 173.626V175.934C360.396 177.232 360.208 178.4 359.935 179.437C359.673 180.474 359.308 181.357 358.841 182.086C358.374 182.815 357.793 183.373 357.098 183.761C356.403 184.148 355.577 184.342 354.62 184.342C353.709 184.342 352.877 184.165 352.125 183.812C351.373 183.447 350.718 182.906 350.16 182.188C349.613 181.459 349.191 180.554 348.895 179.471C348.599 178.377 348.451 177.101 348.451 175.643ZM351.475 173.917V175.643C351.475 176.668 351.55 177.563 351.698 178.326C351.846 179.078 352.079 179.705 352.398 180.206C352.717 180.696 353.122 181.061 353.612 181.3C354.113 181.539 354.711 181.659 355.406 181.659C356.249 181.659 356.939 181.454 357.474 181.043C358.009 180.633 358.437 180.092 358.756 179.42C359.086 178.736 359.348 178.001 359.542 177.215V172.362C359.428 171.781 359.263 171.222 359.046 170.687C358.83 170.14 358.556 169.656 358.226 169.234C357.907 168.801 357.514 168.46 357.047 168.209C356.591 167.958 356.056 167.833 355.44 167.833C354.745 167.833 354.141 167.958 353.629 168.209C353.127 168.46 352.717 168.836 352.398 169.337C352.091 169.838 351.857 170.471 351.698 171.234C351.55 171.997 351.475 172.892 351.475 173.917ZM374.923 159.117H381.878C383.496 159.117 384.852 159.402 385.946 159.972C387.051 160.541 387.883 161.384 388.441 162.501C389.01 163.606 389.295 164.968 389.295 166.585C389.295 167.725 389.107 168.767 388.731 169.713C388.355 170.647 387.808 171.445 387.091 172.105C386.373 172.755 385.501 173.239 384.476 173.558L383.621 173.917H377.418L377.384 171.234H381.844C382.801 171.234 383.599 171.029 384.237 170.619C384.875 170.197 385.353 169.633 385.672 168.927C385.991 168.22 386.151 167.44 386.151 166.585C386.151 165.628 386.008 164.791 385.724 164.073C385.439 163.355 384.983 162.803 384.356 162.416C383.741 162.017 382.915 161.817 381.878 161.817H378.067V184H374.923V159.117ZM386.869 184L381.912 172.721L385.177 172.704L390.235 183.795V184H386.869ZM399.703 184.342C398.598 184.342 397.601 184.177 396.712 183.846C395.824 183.516 395.066 183.014 394.439 182.342C393.813 181.659 393.334 180.799 393.004 179.762C392.673 178.725 392.508 177.5 392.508 176.087V174.002C392.508 172.373 392.696 170.995 393.072 169.867C393.46 168.739 393.978 167.833 394.627 167.149C395.277 166.454 396.012 165.953 396.832 165.646C397.652 165.326 398.495 165.167 399.361 165.167C400.523 165.167 401.515 165.355 402.335 165.731C403.155 166.107 403.822 166.665 404.334 167.406C404.847 168.146 405.223 169.058 405.462 170.14C405.713 171.222 405.838 172.47 405.838 173.883V175.643H394.286V173.062H402.813V172.635C402.768 171.678 402.637 170.835 402.42 170.106C402.215 169.377 401.873 168.807 401.395 168.397C400.916 167.975 400.238 167.765 399.361 167.765C398.803 167.765 398.285 167.861 397.806 168.055C397.339 168.237 396.934 168.562 396.593 169.029C396.262 169.485 396 170.117 395.807 170.926C395.624 171.735 395.533 172.761 395.533 174.002V176.087C395.533 177.079 395.624 177.933 395.807 178.651C396 179.357 396.279 179.944 396.644 180.411C397.02 180.867 397.476 181.209 398.011 181.437C398.558 181.653 399.179 181.761 399.874 181.761C400.888 181.761 401.725 181.568 402.386 181.18C403.047 180.781 403.622 180.274 404.112 179.659L405.702 181.556C405.371 182.023 404.938 182.473 404.403 182.906C403.879 183.328 403.229 183.675 402.454 183.949C401.691 184.211 400.774 184.342 399.703 184.342ZM418.468 179.266C418.468 178.799 418.354 178.389 418.126 178.036C417.898 177.682 417.522 177.341 416.998 177.01C416.485 176.68 415.79 176.327 414.913 175.951C414.058 175.597 413.289 175.25 412.606 174.908C411.934 174.555 411.364 174.173 410.897 173.763C410.43 173.353 410.071 172.88 409.82 172.345C409.581 171.798 409.461 171.154 409.461 170.414C409.461 169.673 409.598 168.989 409.871 168.363C410.156 167.725 410.555 167.167 411.068 166.688C411.58 166.209 412.196 165.839 412.913 165.577C413.631 165.304 414.434 165.167 415.323 165.167C416.588 165.167 417.664 165.412 418.553 165.902C419.442 166.392 420.12 167.064 420.587 167.918C421.065 168.762 421.305 169.713 421.305 170.772H418.297C418.297 170.26 418.183 169.776 417.955 169.32C417.727 168.864 417.391 168.494 416.947 168.209C416.502 167.913 415.961 167.765 415.323 167.765C414.651 167.765 414.104 167.884 413.682 168.124C413.261 168.363 412.953 168.676 412.76 169.063C412.577 169.439 412.486 169.855 412.486 170.311C412.486 170.653 412.532 170.949 412.623 171.2C412.725 171.439 412.896 171.667 413.136 171.883C413.375 172.088 413.7 172.305 414.11 172.533C414.531 172.749 415.067 173 415.716 173.285C416.969 173.775 418.023 174.27 418.878 174.771C419.732 175.273 420.382 175.86 420.826 176.532C421.27 177.204 421.493 178.036 421.493 179.027C421.493 179.836 421.344 180.571 421.048 181.231C420.763 181.881 420.353 182.439 419.818 182.906C419.282 183.373 418.639 183.732 417.887 183.983C417.146 184.222 416.314 184.342 415.391 184.342C414.002 184.342 412.822 184.068 411.854 183.521C410.897 182.963 410.168 182.24 409.666 181.351C409.176 180.451 408.932 179.488 408.932 178.463H411.956C411.991 179.329 412.184 180.001 412.537 180.479C412.902 180.958 413.341 181.288 413.853 181.471C414.366 181.653 414.879 181.744 415.391 181.744C416.064 181.744 416.628 181.647 417.083 181.454C417.539 181.249 417.881 180.958 418.109 180.582C418.348 180.206 418.468 179.767 418.468 179.266ZM432.071 184.342C430.966 184.342 429.969 184.177 429.08 183.846C428.192 183.516 427.434 183.014 426.807 182.342C426.181 181.659 425.702 180.799 425.372 179.762C425.042 178.725 424.876 177.5 424.876 176.087V174.002C424.876 172.373 425.064 170.995 425.44 169.867C425.828 168.739 426.346 167.833 426.995 167.149C427.645 166.454 428.38 165.953 429.2 165.646C430.02 165.326 430.863 165.167 431.729 165.167C432.891 165.167 433.883 165.355 434.703 165.731C435.523 166.107 436.19 166.665 436.703 167.406C437.215 168.146 437.591 169.058 437.83 170.14C438.081 171.222 438.206 172.47 438.206 173.883V175.643H426.654V173.062H435.182V172.635C435.136 171.678 435.005 170.835 434.788 170.106C434.583 169.377 434.242 168.807 433.763 168.397C433.285 167.975 432.607 167.765 431.729 167.765C431.171 167.765 430.653 167.861 430.174 168.055C429.707 168.237 429.303 168.562 428.961 169.029C428.63 169.485 428.368 170.117 428.175 170.926C427.992 171.735 427.901 172.761 427.901 174.002V176.087C427.901 177.079 427.992 177.933 428.175 178.651C428.368 179.357 428.648 179.944 429.012 180.411C429.388 180.867 429.844 181.209 430.379 181.437C430.926 181.653 431.547 181.761 432.242 181.761C433.256 181.761 434.093 181.568 434.754 181.18C435.415 180.781 435.99 180.274 436.48 179.659L438.07 181.556C437.739 182.023 437.306 182.473 436.771 182.906C436.247 183.328 435.597 183.675 434.823 183.949C434.059 184.211 433.142 184.342 432.071 184.342ZM450.921 180.838V170.807C450.921 170.077 450.807 169.491 450.579 169.046C450.363 168.602 450.033 168.277 449.588 168.072C449.155 167.867 448.608 167.765 447.948 167.765C447.31 167.765 446.757 167.896 446.29 168.158C445.834 168.42 445.481 168.767 445.23 169.2C444.991 169.633 444.871 170.112 444.871 170.636H441.847C441.847 169.975 441.989 169.32 442.274 168.67C442.57 168.021 442.992 167.434 443.538 166.91C444.085 166.375 444.74 165.953 445.504 165.646C446.279 165.326 447.144 165.167 448.101 165.167C449.241 165.167 450.249 165.355 451.126 165.731C452.004 166.096 452.693 166.694 453.194 167.525C453.696 168.357 453.946 169.462 453.946 170.841V179.967C453.946 180.582 453.992 181.237 454.083 181.932C454.185 182.627 454.328 183.225 454.51 183.727V184H451.383C451.235 183.635 451.121 183.151 451.041 182.547C450.961 181.932 450.921 181.362 450.921 180.838ZM451.4 172.789L451.434 175.011H449.332C448.614 175.011 447.959 175.09 447.367 175.25C446.786 175.41 446.284 175.643 445.863 175.951C445.441 176.247 445.116 176.617 444.889 177.062C444.672 177.506 444.564 178.013 444.564 178.583C444.564 179.323 444.666 179.916 444.871 180.36C445.077 180.793 445.384 181.106 445.794 181.3C446.204 181.493 446.723 181.59 447.349 181.59C448.113 181.59 448.785 181.414 449.366 181.061C449.947 180.707 450.397 180.28 450.716 179.779C451.047 179.278 451.2 178.81 451.178 178.377L451.844 179.796C451.799 180.24 451.65 180.724 451.4 181.249C451.161 181.761 450.824 182.257 450.391 182.735C449.959 183.202 449.446 183.59 448.853 183.897C448.272 184.194 447.617 184.342 446.888 184.342C445.817 184.342 444.877 184.137 444.068 183.727C443.271 183.316 442.65 182.713 442.205 181.915C441.761 181.118 441.539 180.132 441.539 178.958C441.539 178.07 441.693 177.25 442 176.498C442.308 175.746 442.764 175.096 443.368 174.549C443.971 173.991 444.729 173.558 445.641 173.25C446.563 172.943 447.629 172.789 448.836 172.789H451.4ZM461.671 168.414V184H458.646V165.509H461.568L461.671 168.414ZM466.268 165.406L466.285 168.346C466.034 168.289 465.807 168.255 465.601 168.243C465.408 168.22 465.18 168.209 464.918 168.209C464.348 168.209 463.847 168.323 463.414 168.551C462.992 168.779 462.628 169.098 462.32 169.508C462.013 169.918 461.768 170.408 461.585 170.978C461.403 171.536 461.278 172.151 461.209 172.823L460.423 173.336C460.423 172.219 460.509 171.171 460.68 170.191C460.862 169.212 461.141 168.346 461.517 167.594C461.893 166.83 462.371 166.238 462.953 165.816C463.545 165.383 464.251 165.167 465.072 165.167C465.254 165.167 465.476 165.195 465.738 165.252C466.012 165.298 466.188 165.349 466.268 165.406ZM475.377 181.761C475.981 181.761 476.528 181.642 477.017 181.402C477.519 181.152 477.929 180.764 478.248 180.24C478.567 179.705 478.749 179.01 478.795 178.155H481.632C481.586 179.386 481.273 180.468 480.692 181.402C480.122 182.325 479.37 183.049 478.436 183.573C477.513 184.085 476.493 184.342 475.377 184.342C474.181 184.342 473.138 184.148 472.249 183.761C471.372 183.373 470.643 182.815 470.062 182.086C469.492 181.345 469.065 180.451 468.78 179.403C468.495 178.343 468.353 177.141 468.353 175.797V173.712C468.353 172.368 468.495 171.171 468.78 170.123C469.065 169.063 469.492 168.169 470.062 167.44C470.643 166.699 471.372 166.135 472.249 165.748C473.138 165.361 474.181 165.167 475.377 165.167C476.63 165.167 477.712 165.435 478.624 165.97C479.547 166.494 480.265 167.258 480.777 168.26C481.301 169.251 481.586 170.453 481.632 171.866H478.795C478.749 170.955 478.584 170.197 478.299 169.593C478.014 168.978 477.627 168.522 477.137 168.226C476.647 167.918 476.06 167.765 475.377 167.765C474.579 167.765 473.918 167.907 473.394 168.192C472.882 168.465 472.477 168.864 472.181 169.388C471.885 169.912 471.674 170.539 471.549 171.268C471.435 171.997 471.378 172.812 471.378 173.712V175.797C471.378 176.697 471.435 177.517 471.549 178.258C471.674 178.987 471.879 179.614 472.164 180.138C472.46 180.662 472.87 181.066 473.394 181.351C473.918 181.625 474.579 181.761 475.377 181.761ZM488.16 157.75V184H485.135V157.75H488.16ZM487.425 174.054L486.195 174.002C486.183 172.738 486.326 171.57 486.622 170.499C486.93 169.417 487.363 168.477 487.921 167.679C488.49 166.882 489.168 166.266 489.954 165.833C490.741 165.389 491.612 165.167 492.569 165.167C493.321 165.167 494.005 165.292 494.62 165.543C495.235 165.782 495.759 166.17 496.192 166.705C496.625 167.241 496.956 167.936 497.183 168.79C497.423 169.633 497.542 170.664 497.542 171.883V184H494.517V171.849C494.517 170.881 494.409 170.106 494.193 169.525C493.988 168.932 493.669 168.505 493.236 168.243C492.814 167.97 492.279 167.833 491.629 167.833C491.037 167.833 490.484 167.998 489.972 168.329C489.459 168.659 489.009 169.115 488.621 169.696C488.245 170.277 487.949 170.943 487.733 171.695C487.528 172.436 487.425 173.222 487.425 174.054ZM514.137 170.191L517.196 167.542C517.8 167.053 518.25 166.563 518.546 166.073C518.842 165.571 518.99 164.888 518.99 164.022C518.99 163.35 518.779 162.74 518.358 162.193C517.948 161.635 517.361 161.356 516.598 161.356C516.085 161.356 515.652 161.51 515.299 161.817C514.946 162.125 514.678 162.535 514.495 163.048C514.325 163.549 514.239 164.102 514.239 164.706C514.239 165.218 514.347 165.748 514.564 166.295C514.792 166.842 515.094 167.411 515.47 168.004C515.846 168.596 516.273 169.223 516.751 169.884L526.544 184H522.938L515.025 172.447C514.307 171.445 513.658 170.528 513.077 169.696C512.507 168.853 512.052 168.038 511.71 167.252C511.379 166.466 511.214 165.651 511.214 164.808C511.214 163.509 511.436 162.416 511.881 161.527C512.336 160.627 512.969 159.943 513.778 159.476C514.587 159.009 515.532 158.775 516.615 158.775C517.674 158.775 518.586 159.02 519.349 159.51C520.124 159.989 520.722 160.627 521.143 161.424C521.565 162.21 521.776 163.076 521.776 164.022C521.776 164.819 521.662 165.537 521.434 166.175C521.206 166.802 520.876 167.377 520.443 167.901C520.021 168.425 519.514 168.938 518.922 169.439L514.649 173.114C514.011 173.718 513.544 174.293 513.248 174.84C512.963 175.387 512.781 175.871 512.701 176.292C512.633 176.714 512.599 177.05 512.599 177.301C512.599 178.11 512.735 178.85 513.009 179.522C513.293 180.195 513.721 180.736 514.29 181.146C514.86 181.545 515.578 181.744 516.444 181.744C517.207 181.744 517.948 181.528 518.665 181.095C519.395 180.65 520.05 180.024 520.631 179.215C521.212 178.395 521.673 177.42 522.015 176.292C522.368 175.153 522.545 173.894 522.545 172.516H525.245C525.245 173.644 525.154 174.709 524.972 175.711C524.789 176.714 524.499 177.648 524.1 178.514C523.713 179.369 523.211 180.149 522.596 180.855C522.516 180.958 522.448 181.078 522.391 181.214C522.334 181.351 522.266 181.471 522.186 181.573C521.468 182.496 520.579 183.191 519.52 183.658C518.472 184.114 517.446 184.342 516.444 184.342C515.031 184.342 513.812 184.04 512.786 183.436C511.761 182.832 510.969 182 510.411 180.941C509.853 179.881 509.574 178.668 509.574 177.301C509.574 176.253 509.767 175.33 510.155 174.532C510.542 173.735 511.078 172.988 511.761 172.293C512.456 171.598 513.248 170.898 514.137 170.191Z" fill="black"/>
<rect x="114.4" y="200.023" width="416.47" height="49.9764" fill="black"/>
<path d="M148.137 239H143.293L143.332 235.934H148.137C149.842 235.934 151.229 235.608 152.297 234.957C153.365 234.293 154.152 233.316 154.66 232.027C155.168 230.725 155.422 229.117 155.422 227.203V222.34C155.422 220.829 155.279 219.527 154.992 218.434C154.706 217.34 154.276 216.441 153.703 215.738C153.13 215.035 152.408 214.514 151.535 214.176C150.663 213.824 149.641 213.648 148.469 213.648H143.195V210.562H148.469C150.07 210.562 151.516 210.816 152.805 211.324C154.094 211.819 155.201 212.568 156.125 213.57C157.049 214.56 157.753 215.79 158.234 217.262C158.729 218.733 158.977 220.439 158.977 222.379V227.203C158.977 229.143 158.729 230.849 158.234 232.32C157.753 233.792 157.043 235.022 156.105 236.012C155.168 237.001 154.029 237.75 152.688 238.258C151.359 238.753 149.842 239 148.137 239ZM145.285 210.562V239H141.691V210.562H145.285ZM171.633 239.391C170.37 239.391 169.23 239.202 168.215 238.824C167.199 238.447 166.333 237.874 165.617 237.105C164.901 236.324 164.354 235.341 163.977 234.156C163.599 232.971 163.41 231.572 163.41 229.957V227.574C163.41 225.712 163.625 224.137 164.055 222.848C164.497 221.559 165.09 220.523 165.832 219.742C166.574 218.948 167.414 218.375 168.352 218.023C169.289 217.659 170.253 217.477 171.242 217.477C172.57 217.477 173.703 217.691 174.641 218.121C175.578 218.551 176.34 219.189 176.926 220.035C177.512 220.882 177.941 221.923 178.215 223.16C178.501 224.397 178.645 225.823 178.645 227.438V229.449H165.441V226.5H175.188V226.012C175.135 224.918 174.986 223.954 174.738 223.121C174.504 222.288 174.113 221.637 173.566 221.168C173.02 220.686 172.245 220.445 171.242 220.445C170.604 220.445 170.012 220.556 169.465 220.777C168.931 220.986 168.469 221.357 168.078 221.891C167.701 222.411 167.401 223.134 167.18 224.059C166.971 224.983 166.867 226.155 166.867 227.574V229.957C166.867 231.09 166.971 232.066 167.18 232.887C167.401 233.694 167.72 234.365 168.137 234.898C168.566 235.419 169.087 235.81 169.699 236.07C170.324 236.318 171.034 236.441 171.828 236.441C172.987 236.441 173.944 236.22 174.699 235.777C175.454 235.322 176.112 234.742 176.672 234.039L178.488 236.207C178.111 236.741 177.616 237.255 177.004 237.75C176.405 238.232 175.663 238.629 174.777 238.941C173.905 239.241 172.857 239.391 171.633 239.391ZM188.02 235.738L192.551 217.867H196.066L189.797 239H187.512L188.02 235.738ZM184.367 217.867L189.094 235.836L189.465 239H187.199L180.852 217.867H184.367ZM206.945 239.391C205.682 239.391 204.543 239.202 203.527 238.824C202.512 238.447 201.646 237.874 200.93 237.105C200.214 236.324 199.667 235.341 199.289 234.156C198.911 232.971 198.723 231.572 198.723 229.957V227.574C198.723 225.712 198.938 224.137 199.367 222.848C199.81 221.559 200.402 220.523 201.145 219.742C201.887 218.948 202.727 218.375 203.664 218.023C204.602 217.659 205.565 217.477 206.555 217.477C207.883 217.477 209.016 217.691 209.953 218.121C210.891 218.551 211.652 219.189 212.238 220.035C212.824 220.882 213.254 221.923 213.527 223.16C213.814 224.397 213.957 225.823 213.957 227.438V229.449H200.754V226.5H210.5V226.012C210.448 224.918 210.298 223.954 210.051 223.121C209.816 222.288 209.426 221.637 208.879 221.168C208.332 220.686 207.557 220.445 206.555 220.445C205.917 220.445 205.324 220.556 204.777 220.777C204.243 220.986 203.781 221.357 203.391 221.891C203.013 222.411 202.714 223.134 202.492 224.059C202.284 224.983 202.18 226.155 202.18 227.574V229.957C202.18 231.09 202.284 232.066 202.492 232.887C202.714 233.694 203.033 234.365 203.449 234.898C203.879 235.419 204.4 235.81 205.012 236.07C205.637 236.318 206.346 236.441 207.141 236.441C208.299 236.441 209.257 236.22 210.012 235.777C210.767 235.322 211.424 234.742 211.984 234.039L213.801 236.207C213.423 236.741 212.928 237.255 212.316 237.75C211.717 238.232 210.975 238.629 210.09 238.941C209.217 239.241 208.169 239.391 206.945 239.391ZM221.848 209V239H218.41V209H221.848ZM226.594 229.449V227.438C226.594 225.797 226.802 224.358 227.219 223.121C227.635 221.871 228.215 220.829 228.957 219.996C229.699 219.163 230.565 218.538 231.555 218.121C232.544 217.691 233.605 217.477 234.738 217.477C235.897 217.477 236.971 217.691 237.961 218.121C238.951 218.538 239.816 219.163 240.559 219.996C241.314 220.829 241.9 221.871 242.316 223.121C242.733 224.358 242.941 225.797 242.941 227.438V229.449C242.941 231.09 242.733 232.535 242.316 233.785C241.9 235.022 241.32 236.057 240.578 236.891C239.836 237.724 238.97 238.349 237.98 238.766C236.991 239.182 235.923 239.391 234.777 239.391C233.632 239.391 232.564 239.182 231.574 238.766C230.585 238.349 229.712 237.724 228.957 236.891C228.215 236.057 227.635 235.022 227.219 233.785C226.802 232.535 226.594 231.09 226.594 229.449ZM230.051 227.438V229.449C230.051 230.608 230.168 231.624 230.402 232.496C230.637 233.368 230.969 234.098 231.398 234.684C231.828 235.27 232.329 235.712 232.902 236.012C233.475 236.298 234.1 236.441 234.777 236.441C235.559 236.441 236.242 236.298 236.828 236.012C237.427 235.712 237.922 235.27 238.312 234.684C238.703 234.098 238.996 233.368 239.191 232.496C239.387 231.624 239.484 230.608 239.484 229.449V227.438C239.484 226.279 239.367 225.27 239.133 224.41C238.898 223.538 238.566 222.809 238.137 222.223C237.707 221.624 237.199 221.181 236.613 220.895C236.04 220.595 235.415 220.445 234.738 220.445C234.074 220.445 233.456 220.595 232.883 220.895C232.31 221.181 231.809 221.624 231.379 222.223C230.962 222.809 230.637 223.538 230.402 224.41C230.168 225.27 230.051 226.279 230.051 227.438ZM250.852 221.93V247.125H247.395V217.867H250.539L250.852 221.93ZM262.668 227.477V229.449C262.668 231.116 262.512 232.574 262.199 233.824C261.9 235.061 261.451 236.096 260.852 236.93C260.266 237.75 259.543 238.368 258.684 238.785C257.824 239.189 256.841 239.391 255.734 239.391C254.628 239.391 253.664 239.182 252.844 238.766C252.036 238.336 251.353 237.717 250.793 236.91C250.246 236.103 249.81 235.133 249.484 234C249.172 232.854 248.957 231.572 248.84 230.152V227.145C248.957 225.647 249.172 224.306 249.484 223.121C249.797 221.923 250.227 220.908 250.773 220.074C251.333 219.228 252.017 218.583 252.824 218.141C253.645 217.698 254.602 217.477 255.695 217.477C256.828 217.477 257.824 217.672 258.684 218.062C259.556 218.453 260.285 219.059 260.871 219.879C261.47 220.686 261.919 221.721 262.219 222.984C262.518 224.234 262.668 225.732 262.668 227.477ZM259.211 229.449V227.477C259.211 226.305 259.12 225.283 258.938 224.41C258.768 223.538 258.495 222.815 258.117 222.242C257.74 221.669 257.264 221.24 256.691 220.953C256.118 220.667 255.428 220.523 254.621 220.523C253.931 220.523 253.319 220.667 252.785 220.953C252.264 221.24 251.815 221.63 251.438 222.125C251.06 222.607 250.747 223.16 250.5 223.785C250.253 224.397 250.07 225.035 249.953 225.699V231.617C250.174 232.451 250.467 233.238 250.832 233.98C251.197 234.71 251.685 235.302 252.297 235.758C252.922 236.214 253.71 236.441 254.66 236.441C255.454 236.441 256.138 236.298 256.711 236.012C257.284 235.725 257.753 235.296 258.117 234.723C258.495 234.137 258.768 233.408 258.938 232.535C259.12 231.65 259.211 230.621 259.211 229.449ZM270.578 222.066V239H267.141V217.867H270.383L270.578 222.066ZM269.875 227.633L268.273 227.574C268.26 226.129 268.404 224.794 268.703 223.57C269.003 222.333 269.452 221.259 270.051 220.348C270.663 219.436 271.424 218.733 272.336 218.238C273.26 217.73 274.335 217.477 275.559 217.477C276.366 217.477 277.115 217.62 277.805 217.906C278.508 218.18 279.12 218.616 279.641 219.215C280.161 219.814 280.565 220.582 280.852 221.52C281.151 222.457 281.301 223.59 281.301 224.918V239H277.844V225.094C277.844 223.987 277.694 223.102 277.395 222.438C277.108 221.773 276.698 221.292 276.164 220.992C275.63 220.68 274.992 220.523 274.25 220.523C273.404 220.523 272.694 220.712 272.121 221.09C271.561 221.467 271.112 221.988 270.773 222.652C270.448 223.316 270.214 224.078 270.07 224.938C269.94 225.784 269.875 226.682 269.875 227.633ZM281.262 225.641L278.957 226.383C278.944 225.224 279.087 224.111 279.387 223.043C279.686 221.975 280.129 221.025 280.715 220.191C281.314 219.358 282.056 218.701 282.941 218.219C283.827 217.724 284.855 217.477 286.027 217.477C286.991 217.477 287.844 217.626 288.586 217.926C289.328 218.225 289.953 218.688 290.461 219.312C290.982 219.924 291.372 220.712 291.633 221.676C291.893 222.639 292.023 223.785 292.023 225.113V239H288.566V225.074C288.566 223.889 288.417 222.971 288.117 222.32C287.831 221.656 287.421 221.194 286.887 220.934C286.353 220.66 285.715 220.523 284.973 220.523C284.374 220.523 283.84 220.66 283.371 220.934C282.915 221.207 282.531 221.585 282.219 222.066C281.906 222.535 281.665 223.076 281.496 223.688C281.34 224.299 281.262 224.951 281.262 225.641ZM304.797 239.391C303.534 239.391 302.395 239.202 301.379 238.824C300.363 238.447 299.497 237.874 298.781 237.105C298.065 236.324 297.518 235.341 297.141 234.156C296.763 232.971 296.574 231.572 296.574 229.957V227.574C296.574 225.712 296.789 224.137 297.219 222.848C297.661 221.559 298.254 220.523 298.996 219.742C299.738 218.948 300.578 218.375 301.516 218.023C302.453 217.659 303.417 217.477 304.406 217.477C305.734 217.477 306.867 217.691 307.805 218.121C308.742 218.551 309.504 219.189 310.09 220.035C310.676 220.882 311.105 221.923 311.379 223.16C311.665 224.397 311.809 225.823 311.809 227.438V229.449H298.605V226.5H308.352V226.012C308.299 224.918 308.15 223.954 307.902 223.121C307.668 222.288 307.277 221.637 306.73 221.168C306.184 220.686 305.409 220.445 304.406 220.445C303.768 220.445 303.176 220.556 302.629 220.777C302.095 220.986 301.633 221.357 301.242 221.891C300.865 222.411 300.565 223.134 300.344 224.059C300.135 224.983 300.031 226.155 300.031 227.574V229.957C300.031 231.09 300.135 232.066 300.344 232.887C300.565 233.694 300.884 234.365 301.301 234.898C301.73 235.419 302.251 235.81 302.863 236.07C303.488 236.318 304.198 236.441 304.992 236.441C306.151 236.441 307.108 236.22 307.863 235.777C308.618 235.322 309.276 234.742 309.836 234.039L311.652 236.207C311.275 236.741 310.78 237.255 310.168 237.75C309.569 238.232 308.827 238.629 307.941 238.941C307.069 239.241 306.021 239.391 304.797 239.391ZM319.445 222.379V239H315.988V217.867H319.25L319.445 222.379ZM318.605 227.633L317.199 227.574C317.186 226.129 317.349 224.794 317.688 223.57C318.039 222.333 318.534 221.259 319.172 220.348C319.823 219.436 320.598 218.733 321.496 218.238C322.395 217.73 323.391 217.477 324.484 217.477C325.344 217.477 326.125 217.62 326.828 217.906C327.531 218.18 328.13 218.622 328.625 219.234C329.12 219.846 329.497 220.641 329.758 221.617C330.031 222.581 330.168 223.759 330.168 225.152V239H326.711V225.113C326.711 224.007 326.587 223.121 326.34 222.457C326.105 221.78 325.741 221.292 325.246 220.992C324.764 220.68 324.152 220.523 323.41 220.523C322.733 220.523 322.102 220.712 321.516 221.09C320.93 221.467 320.415 221.988 319.973 222.652C319.543 223.316 319.204 224.078 318.957 224.938C318.723 225.784 318.605 226.682 318.605 227.633ZM343.078 217.867V220.641H333.215V217.867H343.078ZM336.438 212.73H339.895V233.766C339.895 234.482 339.979 235.022 340.148 235.387C340.331 235.751 340.559 235.992 340.832 236.109C341.105 236.227 341.398 236.285 341.711 236.285C341.945 236.285 342.206 236.259 342.492 236.207C342.779 236.142 342.974 236.09 343.078 236.051L343.059 239C342.824 239.091 342.512 239.176 342.121 239.254C341.73 239.345 341.236 239.391 340.637 239.391C339.895 239.391 339.204 239.215 338.566 238.863C337.928 238.512 337.414 237.926 337.023 237.105C336.633 236.272 336.438 235.152 336.438 233.746V212.73ZM360.598 210.562V239H357.004V210.562H360.598ZM369.836 222.379V239H366.379V217.867H369.641L369.836 222.379ZM368.996 227.633L367.59 227.574C367.577 226.129 367.74 224.794 368.078 223.57C368.43 222.333 368.924 221.259 369.562 220.348C370.214 219.436 370.988 218.733 371.887 218.238C372.785 217.73 373.781 217.477 374.875 217.477C375.734 217.477 376.516 217.62 377.219 217.906C377.922 218.18 378.521 218.622 379.016 219.234C379.51 219.846 379.888 220.641 380.148 221.617C380.422 222.581 380.559 223.759 380.559 225.152V239H377.102V225.113C377.102 224.007 376.978 223.121 376.73 222.457C376.496 221.78 376.132 221.292 375.637 220.992C375.155 220.68 374.543 220.523 373.801 220.523C373.124 220.523 372.492 220.712 371.906 221.09C371.32 221.467 370.806 221.988 370.363 222.652C369.934 223.316 369.595 224.078 369.348 224.938C369.113 225.784 368.996 226.682 368.996 227.633ZM389.465 217.867V239H386.027V217.867H389.465ZM385.832 212.262C385.832 211.676 385.995 211.181 386.32 210.777C386.646 210.374 387.134 210.172 387.785 210.172C388.436 210.172 388.924 210.374 389.25 210.777C389.589 211.181 389.758 211.676 389.758 212.262C389.758 212.822 389.589 213.303 389.25 213.707C388.924 214.098 388.436 214.293 387.785 214.293C387.134 214.293 386.646 214.098 386.32 213.707C385.995 213.303 385.832 212.822 385.832 212.262ZM402.648 217.867V220.641H392.785V217.867H402.648ZM396.008 212.73H399.465V233.766C399.465 234.482 399.549 235.022 399.719 235.387C399.901 235.751 400.129 235.992 400.402 236.109C400.676 236.227 400.969 236.285 401.281 236.285C401.516 236.285 401.776 236.259 402.062 236.207C402.349 236.142 402.544 236.09 402.648 236.051L402.629 239C402.395 239.091 402.082 239.176 401.691 239.254C401.301 239.345 400.806 239.391 400.207 239.391C399.465 239.391 398.775 239.215 398.137 238.863C397.499 238.512 396.984 237.926 396.594 237.105C396.203 236.272 396.008 235.152 396.008 233.746V212.73ZM410.48 217.867V239H407.043V217.867H410.48ZM406.848 212.262C406.848 211.676 407.01 211.181 407.336 210.777C407.661 210.374 408.15 210.172 408.801 210.172C409.452 210.172 409.94 210.374 410.266 210.777C410.604 211.181 410.773 211.676 410.773 212.262C410.773 212.822 410.604 213.303 410.266 213.707C409.94 214.098 409.452 214.293 408.801 214.293C408.15 214.293 407.661 214.098 407.336 213.707C407.01 213.303 406.848 212.822 406.848 212.262ZM426.301 235.387V223.922C426.301 223.089 426.171 222.418 425.91 221.91C425.663 221.402 425.285 221.031 424.777 220.797C424.283 220.562 423.658 220.445 422.902 220.445C422.173 220.445 421.542 220.595 421.008 220.895C420.487 221.194 420.083 221.591 419.797 222.086C419.523 222.581 419.387 223.128 419.387 223.727H415.93C415.93 222.971 416.092 222.223 416.418 221.48C416.757 220.738 417.238 220.068 417.863 219.469C418.488 218.857 419.237 218.375 420.109 218.023C420.995 217.659 421.984 217.477 423.078 217.477C424.38 217.477 425.533 217.691 426.535 218.121C427.538 218.538 428.326 219.221 428.898 220.172C429.471 221.122 429.758 222.385 429.758 223.961V234.391C429.758 235.094 429.81 235.842 429.914 236.637C430.031 237.431 430.194 238.115 430.402 238.688V239H426.828C426.659 238.583 426.529 238.03 426.438 237.34C426.346 236.637 426.301 235.986 426.301 235.387ZM426.848 226.188L426.887 228.727H424.484C423.664 228.727 422.915 228.818 422.238 229C421.574 229.182 421.001 229.449 420.52 229.801C420.038 230.139 419.667 230.562 419.406 231.07C419.159 231.578 419.035 232.158 419.035 232.809C419.035 233.655 419.152 234.332 419.387 234.84C419.621 235.335 419.973 235.693 420.441 235.914C420.91 236.135 421.503 236.246 422.219 236.246C423.091 236.246 423.859 236.044 424.523 235.641C425.188 235.237 425.702 234.749 426.066 234.176C426.444 233.603 426.62 233.069 426.594 232.574L427.355 234.195C427.303 234.703 427.134 235.257 426.848 235.855C426.574 236.441 426.19 237.008 425.695 237.555C425.201 238.089 424.615 238.531 423.938 238.883C423.273 239.221 422.525 239.391 421.691 239.391C420.467 239.391 419.393 239.156 418.469 238.688C417.557 238.219 416.848 237.529 416.34 236.617C415.832 235.706 415.578 234.579 415.578 233.238C415.578 232.223 415.754 231.285 416.105 230.426C416.457 229.566 416.978 228.824 417.668 228.199C418.358 227.561 419.224 227.066 420.266 226.715C421.32 226.363 422.538 226.188 423.918 226.188H426.848ZM442.844 217.867V220.641H432.98V217.867H442.844ZM436.203 212.73H439.66V233.766C439.66 234.482 439.745 235.022 439.914 235.387C440.096 235.751 440.324 235.992 440.598 236.109C440.871 236.227 441.164 236.285 441.477 236.285C441.711 236.285 441.971 236.259 442.258 236.207C442.544 236.142 442.74 236.09 442.844 236.051L442.824 239C442.59 239.091 442.277 239.176 441.887 239.254C441.496 239.345 441.001 239.391 440.402 239.391C439.66 239.391 438.97 239.215 438.332 238.863C437.694 238.512 437.18 237.926 436.789 237.105C436.398 236.272 436.203 235.152 436.203 233.746V212.73ZM450.676 217.867V239H447.238V217.867H450.676ZM447.043 212.262C447.043 211.676 447.206 211.181 447.531 210.777C447.857 210.374 448.345 210.172 448.996 210.172C449.647 210.172 450.135 210.374 450.461 210.777C450.799 211.181 450.969 211.676 450.969 212.262C450.969 212.822 450.799 213.303 450.461 213.707C450.135 214.098 449.647 214.293 448.996 214.293C448.345 214.293 447.857 214.098 447.531 213.707C447.206 213.303 447.043 212.822 447.043 212.262ZM461.613 235.738L466.145 217.867H469.66L463.391 239H461.105L461.613 235.738ZM457.961 217.867L462.688 235.836L463.059 239H460.793L454.445 217.867H457.961ZM480.539 239.391C479.276 239.391 478.137 239.202 477.121 238.824C476.105 238.447 475.24 237.874 474.523 237.105C473.807 236.324 473.26 235.341 472.883 234.156C472.505 232.971 472.316 231.572 472.316 229.957V227.574C472.316 225.712 472.531 224.137 472.961 222.848C473.404 221.559 473.996 220.523 474.738 219.742C475.48 218.948 476.32 218.375 477.258 218.023C478.195 217.659 479.159 217.477 480.148 217.477C481.477 217.477 482.609 217.691 483.547 218.121C484.484 218.551 485.246 219.189 485.832 220.035C486.418 220.882 486.848 221.923 487.121 223.16C487.408 224.397 487.551 225.823 487.551 227.438V229.449H474.348V226.5H484.094V226.012C484.042 224.918 483.892 223.954 483.645 223.121C483.41 222.288 483.02 221.637 482.473 221.168C481.926 220.686 481.151 220.445 480.148 220.445C479.51 220.445 478.918 220.556 478.371 220.777C477.837 220.986 477.375 221.357 476.984 221.891C476.607 222.411 476.307 223.134 476.086 224.059C475.878 224.983 475.773 226.155 475.773 227.574V229.957C475.773 231.09 475.878 232.066 476.086 232.887C476.307 233.694 476.626 234.365 477.043 234.898C477.473 235.419 477.993 235.81 478.605 236.07C479.23 236.318 479.94 236.441 480.734 236.441C481.893 236.441 482.85 236.22 483.605 235.777C484.361 235.322 485.018 234.742 485.578 234.039L487.395 236.207C487.017 236.741 486.522 237.255 485.91 237.75C485.311 238.232 484.569 238.629 483.684 238.941C482.811 239.241 481.763 239.391 480.539 239.391ZM501.984 233.59C501.984 233.056 501.854 232.587 501.594 232.184C501.333 231.78 500.904 231.389 500.305 231.012C499.719 230.634 498.924 230.23 497.922 229.801C496.945 229.397 496.066 229 495.285 228.609C494.517 228.206 493.866 227.77 493.332 227.301C492.798 226.832 492.388 226.292 492.102 225.68C491.828 225.055 491.691 224.319 491.691 223.473C491.691 222.626 491.848 221.845 492.16 221.129C492.486 220.4 492.941 219.762 493.527 219.215C494.113 218.668 494.816 218.245 495.637 217.945C496.457 217.633 497.375 217.477 498.391 217.477C499.836 217.477 501.066 217.757 502.082 218.316C503.098 218.876 503.872 219.645 504.406 220.621C504.953 221.585 505.227 222.672 505.227 223.883H501.789C501.789 223.297 501.659 222.743 501.398 222.223C501.138 221.702 500.754 221.279 500.246 220.953C499.738 220.615 499.12 220.445 498.391 220.445C497.622 220.445 496.997 220.582 496.516 220.855C496.034 221.129 495.682 221.487 495.461 221.93C495.253 222.359 495.148 222.835 495.148 223.355C495.148 223.746 495.201 224.085 495.305 224.371C495.422 224.645 495.617 224.905 495.891 225.152C496.164 225.387 496.535 225.634 497.004 225.895C497.486 226.142 498.098 226.428 498.84 226.754C500.272 227.314 501.477 227.88 502.453 228.453C503.43 229.026 504.172 229.697 504.68 230.465C505.188 231.233 505.441 232.184 505.441 233.316C505.441 234.241 505.272 235.081 504.934 235.836C504.608 236.578 504.139 237.216 503.527 237.75C502.915 238.284 502.18 238.694 501.32 238.98C500.474 239.254 499.523 239.391 498.469 239.391C496.88 239.391 495.533 239.078 494.426 238.453C493.332 237.815 492.499 236.988 491.926 235.973C491.366 234.944 491.086 233.844 491.086 232.672H494.543C494.582 233.661 494.803 234.43 495.207 234.977C495.624 235.523 496.125 235.901 496.711 236.109C497.297 236.318 497.883 236.422 498.469 236.422C499.237 236.422 499.882 236.311 500.402 236.09C500.923 235.855 501.314 235.523 501.574 235.094C501.848 234.664 501.984 234.163 501.984 233.59Z" fill="white"/>
<path d="M33.2487 68.5676C33.2487 68.5676 34.5144 63.8882 32.2678 62.1747C30.0212 60.4611 29.0768 61.1298 27.2771 59.6329C25.4774 58.1361 24.4137 56.1024 25.1497 60.622C25.8858 65.1416 28.1834 67.9124 33.2487 68.5676Z" stroke="black" stroke-width="2"/>
<path d="M33.2487 68.5676C33.2487 68.5676 34.5144 63.8882 32.2678 62.1747C30.0212 60.4611 29.0768 61.1298 27.2771 59.6329C25.4774 58.1361 24.4137 56.1024 25.1497 60.622C25.8858 65.1416 28.1834 67.9124 33.2487 68.5676Z" stroke="black" stroke-width="2"/>
<path d="M33.2487 68.5676C33.2487 68.5676 34.5144 63.8882 32.2678 62.1747C30.0212 60.4611 29.0768 61.1298 27.2771 59.6329C25.4774 58.1361 24.4137 56.1024 25.1497 60.622C25.8858 65.1416 28.1834 67.9124 33.2487 68.5676Z" stroke="black" stroke-width="2"/>
<path d="M40.1428 44.1001C40.1428 44.1001 41.4086 39.4207 39.1621 37.7071C36.9156 35.9935 35.9712 36.6621 34.1715 35.1652C32.3719 33.6683 31.3083 31.6345 32.0441 36.1541C32.78 40.6737 35.0775 43.4447 40.1428 44.1001Z" stroke="black" stroke-width="2"/>
<path d="M40.1428 44.1001C40.1428 44.1001 41.4086 39.4207 39.1621 37.7071C36.9156 35.9935 35.9712 36.6621 34.1715 35.1652C32.3719 33.6683 31.3083 31.6345 32.0441 36.1541C32.78 40.6737 35.0775 43.4447 40.1428 44.1001Z" stroke="black" stroke-width="2"/>
<path d="M40.1428 44.1001C40.1428 44.1001 41.4086 39.4207 39.1621 37.7071C36.9156 35.9935 35.9712 36.6621 34.1715 35.1652C32.3719 33.6683 31.3083 31.6345 32.0441 36.1541C32.78 40.6737 35.0775 43.4447 40.1428 44.1001Z" stroke="black" stroke-width="2"/>
<path d="M48.7763 23.7349C48.7763 23.7349 48.9493 18.8934 46.3718 17.7234C43.7943 16.5534 43.0255 17.4151 40.9326 16.3569C38.8397 15.2986 37.3424 13.5535 39.0837 17.7939C40.825 22.0344 43.6918 24.2233 48.7763 23.7349Z" stroke="black" stroke-width="2"/>
<path d="M48.7763 23.7349C48.7763 23.7349 48.9493 18.8934 46.3718 17.7234C43.7943 16.5534 43.0255 17.4151 40.9326 16.3569C38.8397 15.2986 37.3424 13.5535 39.0837 17.7939C40.825 22.0344 43.6918 24.2233 48.7763 23.7349Z" stroke="black" stroke-width="2"/>
<path d="M48.7763 23.7349C48.7763 23.7349 48.9493 18.8934 46.3718 17.7234C43.7943 16.5534 43.0255 17.4151 40.9326 16.3569C38.8397 15.2986 37.3424 13.5535 39.0837 17.7939C40.825 22.0344 43.6918 24.2233 48.7763 23.7349Z" stroke="black" stroke-width="2"/>
<path d="M60.6229 31.4131C60.6229 31.4131 59.357 26.7338 61.6036 25.0201C63.8501 23.3065 64.7945 23.9751 66.5942 22.4782C68.3938 20.9813 69.4574 18.9475 68.7216 23.4671C67.9857 27.9867 65.6882 30.7577 60.6229 31.4131Z" stroke="black" stroke-width="2"/>
<path d="M60.6229 31.4131C60.6229 31.4131 59.357 26.7338 61.6036 25.0201C63.8501 23.3065 64.7945 23.9751 66.5942 22.4782C68.3938 20.9813 69.4574 18.9475 68.7216 23.4671C67.9857 27.9867 65.6882 30.7577 60.6229 31.4131Z" stroke="black" stroke-width="2"/>
<path d="M60.6229 31.4131C60.6229 31.4131 59.357 26.7338 61.6036 25.0201C63.8501 23.3065 64.7945 23.9751 66.5942 22.4782C68.3938 20.9813 69.4574 18.9475 68.7216 23.4671C67.9857 27.9867 65.6882 30.7577 60.6229 31.4131Z" stroke="black" stroke-width="2"/>
<path d="M50.2205 11.7394C50.2205 11.7394 48.9546 7.06006 51.2012 5.34642C53.4477 3.63279 54.3921 4.30138 56.1918 2.80448C57.9914 1.30757 59.055 -0.726181 58.3191 3.79342C57.5833 8.31302 55.2858 11.084 50.2205 11.7394Z" stroke="black" stroke-width="2"/>
<path d="M50.2205 11.7394C50.2205 11.7394 48.9546 7.06006 51.2012 5.34642C53.4477 3.63279 54.3921 4.30138 56.1918 2.80448C57.9914 1.30757 59.055 -0.726181 58.3191 3.79342C57.5833 8.31302 55.2858 11.084 50.2205 11.7394Z" stroke="black" stroke-width="2"/>
<path d="M50.2205 11.7394C50.2205 11.7394 48.9546 7.06006 51.2012 5.34642C53.4477 3.63279 54.3921 4.30138 56.1918 2.80448C57.9914 1.30757 59.055 -0.726181 58.3191 3.79342C57.5833 8.31302 55.2858 11.084 50.2205 11.7394Z" stroke="black" stroke-width="2"/>
<path d="M67.1545 57.1818C67.1545 57.1818 65.8886 52.5025 68.1351 50.7888C70.3816 49.0752 71.3261 49.7438 73.1257 48.2469C74.9254 46.75 75.9889 44.7162 75.2531 49.2358C74.5173 53.7554 72.2198 56.5264 67.1545 57.1818Z" stroke="black" stroke-width="2"/>
<path d="M67.1545 57.1818C67.1545 57.1818 65.8886 52.5025 68.1351 50.7888C70.3816 49.0752 71.3261 49.7438 73.1257 48.2469C74.9254 46.75 75.9889 44.7162 75.2531 49.2358C74.5173 53.7554 72.2198 56.5264 67.1545 57.1818Z" stroke="black" stroke-width="2"/>
<path d="M67.1545 57.1818C67.1545 57.1818 65.8886 52.5025 68.1351 50.7888C70.3816 49.0752 71.3261 49.7438 73.1257 48.2469C74.9254 46.75 75.9889 44.7162 75.2531 49.2358C74.5173 53.7554 72.2198 56.5264 67.1545 57.1818Z" stroke="black" stroke-width="2"/>
<path d="M29.5445 153.814C29.5445 155.626 28.159 157.009 26.5536 157.009C24.9481 157.009 23.5627 155.626 23.5627 153.814C23.5627 152.002 24.9481 150.619 26.5536 150.619C28.159 150.619 29.5445 152.002 29.5445 153.814Z" stroke="black" stroke-width="2"/>
<path d="M65.2268 158.609C65.2268 160.421 63.8414 161.803 62.236 161.803C60.6305 161.803 59.2451 160.421 59.2451 158.609C59.2451 156.796 60.6305 155.414 62.236 155.414C63.8414 155.414 65.2268 156.796 65.2268 158.609Z" stroke="black" stroke-width="2"/>
<path d="M97.2805 203.452C97.2805 205.264 95.895 206.647 94.2896 206.647C92.6842 206.647 91.2987 205.264 91.2987 203.452C91.2987 201.64 92.6842 200.257 94.2896 200.257C95.895 200.257 97.2805 201.64 97.2805 203.452Z" stroke="black" stroke-width="2"/>
<path d="M7.7722 236.514C7.7722 238.326 6.38673 239.709 4.7813 239.709C3.17587 239.709 1.79041 238.326 1.79041 236.514C1.79041 234.702 3.17587 233.319 4.7813 233.319C6.38673 233.319 7.7722 234.702 7.7722 236.514Z" stroke="black" stroke-width="2"/>
<ellipse cx="5.9909" cy="202.253" rx="3.9909" ry="4.1949" fill="black"/>
<ellipse cx="39.8589" cy="121.351" rx="3.9909" ry="4.1949" fill="black"/>
<ellipse cx="79.7747" cy="173.488" rx="3.9909" ry="4.19491" fill="black"/>
<ellipse cx="50.5031" cy="243.705" rx="3.9909" ry="4.19491" fill="black"/>
<ellipse cx="93.08" cy="237.712" rx="3.9909" ry="4.19491" fill="black"/>
<path d="M67.3169 56.63C65.51 119.746 70.9455 145.922 78.203 169.892M92.113 200.455C89.0891 196.86 86.0652 192.665 84.8556 187.962L65.763 179.894M50.3829 161.503L64.5799 174.087C64.9529 176.063 65.3471 177.998 65.763 179.894M50.3829 161.503V124.348M50.3829 161.503V240.607M37.1976 157.308L24.377 166.896C20.1435 181.279 12.8861 192.665 6.83826 199.856M37.1976 157.308C37.3733 155.916 37.5351 154.518 37.6824 153.113C38.2799 147.414 38.7667 141.588 39.161 135.734L50.3829 124.348M37.1976 157.308C32.7743 192.341 18.9531 221.609 6.83826 234.614M32.8439 68.0163C35.3414 95.2373 34.4721 123.606 28.0058 150.818M50.3829 124.348V11.0854M40.1016 42.8468C40.1016 50.0379 41.4622 82.5095 40.1016 117.763M60.6639 30.2621C58.6818 79.9402 59.2606 125.878 61.8738 155.51M65.763 179.894C70.7879 202.795 78.9956 219.99 91.508 235.213" stroke="black" stroke-width="2"/>
</svg>
